<svg width="26" height="18" viewBox="0 0 26 18" fill="none" xmlns="http://www.w3.org/2000/svg">
<path fill-rule="evenodd" clip-rule="evenodd" d="M14.6816 2.72872L16.7549 2.20919C16.4268 3.00997 16.2441 4.05099 16.5127 5.30099C15.5488 5.717 14.8564 6.28927 14.3408 6.95724C13.7344 7.74239 13.4102 8.61739 13.1484 9.32833C12.8682 10.0881 12.6631 10.6408 12.3252 11.09C12.0996 11.3889 11.7969 11.6565 11.3115 11.8557L7.68555 3.69552L7.66113 3.64669L9.26172 2.95919C9.76074 2.7463 9.6084 2.00021 9.06445 2.00021H4.19434C3.85254 2.00021 3.61133 2.33419 3.71973 2.65841L3.8125 2.93771C4.1582 3.97482 5.2627 4.5295 6.28223 4.22286L6.31445 4.30489L7.29004 6.50021H2.57031C1.83887 6.50021 1.35449 7.25997 1.66406 7.92403L2.12402 8.91036C0.838867 9.81466 0 11.3088 0 13.0002C0 15.7619 2.23828 18.0002 5 18.0002C7.41895 18.0002 9.4375 16.2834 9.90039 14.0002H10.085C10.291 14.5822 10.8477 15.0002 11.5 15.0002C12.3281 15.0002 13 14.3283 13 13.5002C13 13.4025 12.9902 13.3068 12.9727 13.215C13.3467 12.9514 13.6582 12.6408 13.9199 12.2951C14.4434 11.6037 14.7393 10.7971 14.9834 10.1311L15.0244 10.0197C15.2949 9.28536 15.5303 8.68966 15.9238 8.17989C16.1562 7.87911 16.459 7.592 16.8916 7.34396C17.0635 7.83419 17.2959 8.45919 17.5771 9.13497L17.6436 9.29317C16.6338 10.2072 16 11.5295 16 13.0002C16 15.7619 18.2383 18.0002 21 18.0002C23.7617 18.0002 26 15.7619 26 13.0002C26 10.2385 23.7617 8.00021 21 8.00021C20.4336 8.00021 19.8906 8.09396 19.3828 8.26778C19.0996 7.58028 18.8711 6.95138 18.7119 6.48849C18.6279 6.24435 18.5645 6.04903 18.5215 5.91427L18.4727 5.76193L18.458 5.7131C18.3857 5.47091 18.2295 5.26583 18.0146 5.13888C17.7383 4.0256 17.9434 3.1838 18.2197 2.60763C18.3848 2.25997 18.582 1.99435 18.7354 1.82052C18.8125 1.73263 18.876 1.67013 18.9189 1.63107L18.9629 1.59005C19.2432 1.36544 19.3281 0.984581 19.1729 0.670128C19.0176 0.351769 18.6611 0.187706 18.3184 0.273644L14.3184 1.27364C13.916 1.37325 13.6719 1.7795 13.7725 2.18185C13.873 2.58419 14.2803 2.82833 14.6816 2.72872ZM2.88281 10.5354L3.96191 12.8459C4.29004 13.551 4.99707 14.0002 5.77441 14.0002H8.09277C7.6709 15.3049 6.44629 16.2502 5 16.2502C3.20508 16.2502 1.75 14.7951 1.75 13.0002C1.75 12.0139 2.18945 11.1311 2.88281 10.5354ZM17.75 13.0002C17.75 12.2463 18.0078 11.549 18.4395 10.9983C18.9619 12.008 19.5869 13.0002 20.293 13.7072C20.6836 14.0979 21.3164 14.0979 21.707 13.7072C22.0977 13.3166 22.0977 12.6838 21.707 12.2932C21.1445 11.7307 20.5967 10.844 20.1104 9.87325C20.3926 9.79317 20.6914 9.75021 21 9.75021C22.7949 9.75021 24.25 11.2053 24.25 13.0002C24.25 14.7951 22.7949 16.2502 21 16.2502C19.2051 16.2502 17.75 14.7951 17.75 13.0002Z" fill="#FAFBFC"/>
</svg>
