<svg width="26" height="18" viewBox="0 0 26 18" fill="none" xmlns="http://www.w3.org/2000/svg">
<path fill-rule="evenodd" clip-rule="evenodd" d="M13.501 2.42497C13.501 1.98769 13.8369 1.63498 14.251 1.63498H15.1914C15.3809 1.63498 15.5547 1.52154 15.6387 1.34209L15.9971 0.585095C16.2646 0.0178682 16.9414 -0.173958 17.4414 0.174629L18.5195 0.925432C18.79 1.11313 18.957 1.42665 18.9688 1.76905L18.9805 2.09701C18.9922 2.46416 18.8242 2.81069 18.5352 3.01489L17.5 3.743L19.3652 4.9249C19.7754 5.18479 20.083 5.58907 20.2344 6.0676L20.7627 7.74453C20.916 8.22925 20.8975 8.75523 20.7119 9.22551L20.4541 9.87937C20.9297 9.66898 21.4521 9.55141 22 9.55141C24.209 9.55141 26 11.4429 26 13.7757C26 16.1086 24.209 18 22 18C20.1367 18 18.5703 16.6531 18.126 14.8318L7.87402 14.8297C7.43066 16.6531 5.86426 18 4 18C1.79102 18 0 16.1086 0 13.7757C0 11.4429 1.79102 9.55141 4 9.55141C5.85059 9.55141 7.41211 10.8736 7.86816 12.6763C8.23438 12.5567 8.5 12.1957 8.5 11.7688C8.5 9.66898 6.8877 7.9673 4.89941 7.9673L1.09473 7.96936C0.506836 7.96936 0.0458984 7.43514 0.0986328 6.81634L0.416992 3.11802C0.463867 2.57555 0.896484 2.15889 1.41309 2.15889H5.21973C5.67871 2.15889 6.0791 2.48892 6.18945 2.95714L7 6.38319H11.5C12.9277 6.38319 13.8955 7.91573 13.3467 9.30595L12 12.7217H15.499C16.0518 12.7217 16.499 12.2473 16.499 11.6656L16.5 6.72765C16.5 6.50076 16.4648 6.27387 16.3975 6.05935L15.6143 3.57799C15.5459 3.36141 15.3545 3.21703 15.1396 3.21703H14.251C13.8369 3.21703 13.501 2.86432 13.501 2.42497ZM3.99902 12.7196H6.01562C5.64746 11.9379 4.88281 11.3995 4 11.3995C2.75781 11.3995 1.75 12.4639 1.75 13.7757C1.75 15.0875 2.75781 16.1519 4 16.1519C4.88379 16.1519 5.64844 15.6135 6.0166 14.8297H3.99902C3.44727 14.8297 3 14.3574 3 13.7757C3 13.192 3.44727 12.7196 3.99902 12.7196ZM24.25 13.7757C24.25 15.0875 23.2422 16.1519 22 16.1519C20.7578 16.1519 19.75 15.0875 19.75 13.7757C19.75 12.4639 20.7578 11.3995 22 11.3995C23.2422 11.3995 24.25 12.4639 24.25 13.7757Z" fill="#FAFBFC"/>
</svg>
