<svg width="24" height="22" viewBox="0 0 24 22" fill="none" xmlns="http://www.w3.org/2000/svg">
<path fill-rule="evenodd" clip-rule="evenodd" d="M16.1202 2.28301L20.9919 15.6681L21 15.6681C22.6569 15.6681 24 17.0112 24 18.6681C24 20.3249 22.6569 21.6681 21 21.6681C19.3431 21.6681 18 20.3249 18 18.6681C18 17.7285 18.4319 16.8898 19.1081 16.3397L18.5839 14.8996C17.8511 15.4732 17.2944 16.2162 16.9974 17.0996C16.5559 18.4128 15.3592 19.9181 13.5 19.9181H5.72798C5.25397 20.9508 4.21075 21.6681 3 21.6681C1.34315 21.6681 0 20.3249 0 18.6681C0 17.0112 1.34315 15.6681 3 15.6681C4.21075 15.6681 5.25398 16.3853 5.72798 17.4181H13.5C13.8499 17.4181 14.3652 17.0836 14.6277 16.3029C15.1914 14.6262 16.326 13.339 17.6992 12.4688L13.9016 2.03512C13.86 1.92078 13.8405 1.80378 13.841 1.68882C13.8392 1.27869 14.0917 0.892956 14.4993 0.74462L16.3787 0.0605795C16.8976 -0.128313 17.4715 0.139274 17.6604 0.658252C17.8493 1.17723 17.5817 1.75107 17.0627 1.93996L16.1202 2.28301ZM21 19.6681C21.5523 19.6681 22 19.2203 22 18.6681C22 18.1158 21.5523 17.6681 21 17.6681C20.4477 17.6681 20 18.1158 20 18.6681C20 19.2203 20.4477 19.6681 21 19.6681ZM4 18.6681C4 19.2203 3.55228 19.6681 3 19.6681C2.44772 19.6681 2 19.2203 2 18.6681C2 18.1158 2.44772 17.6681 3 17.6681C3.55228 17.6681 4 18.1158 4 18.6681Z" fill="#FAFBFC"/>
</svg>
