<svg id="bike" xmlns="http://www.w3.org/2000/svg" xmlns:xlink="http://www.w3.org/1999/xlink" width="500" height="365" viewBox="0 0 500 365"><defs><clipPath id="clip-path"><path d="M43.6468,146.0562H135.076l55.9814,34.9682,12.7153,3.2528,11.68,23.2129,8.7264,22.987-96.44,27.4587a45.9738,45.9738,0,0,1-53.6426-23.5234L47.41,181.468a43.05,43.05,0,0,1-4.5376-21.8274Z" fill="none"/></clipPath><clipPath id="clip-path-2"><path d="M255.9216,270.9011l-5.4838-7.9785A29.9126,29.9126,0,0,1,228.3559,247.07l-4.0045-7.7587a4.2384,4.2384,0,0,1-.4619-6.791,4.9933,4.9933,0,0,0-8.2409,1.7931,2.8145,2.8145,0,0,0-2.6947-.6528L110.4223,262.8565l1.1486,5.2714,1.1709-.33-.1365,3.5515L258.9042,276.97l.2285-5.9452ZM227.066,266.29a6.1817,6.1817,0,0,1-5.6981,3.2836L127.21,265.9561a1.1055,1.1055,0,0,1-.2578-2.1687l87.5391-24.7021a2.8053,2.8053,0,0,0,1.3408-.841l11.2168,22.24A6.3239,6.3239,0,0,1,227.066,266.29Z" fill="none"/></clipPath></defs><title>bike-fmas</title><path d="M273.0358,282.5441a17.7092,17.7092,0,0,1-4.1094,3.8436l9.369,10.53a2.73,2.73,0,0,0,3.7236.3345h0a2.73,2.73,0,0,0,.3769-3.9408Z" fill="#6e7476" stroke="#1c1c1c" stroke-linecap="round" stroke-linejoin="round" stroke-width="3.8607"/><path d="M308.6334,67.36l-14.65-1.519h0a3.5454,3.5454,0,0,0,3.88-3.1515h0a3.5452,3.5452,0,0,0-3.1515-3.8805l14.65,1.5189a3.5348,3.5348,0,0,1-.7291,7.032Z" fill="#4b4b4b" stroke="#1c1c1c" stroke-linecap="round" stroke-linejoin="round" stroke-width="2.9966"/><rect x="290.8132" y="58.7899" width="7.0697" height="7.0697" rx="3.5348" ry="3.5348" transform="translate(7.997 -30.0235) rotate(5.9194)" fill="#323232" stroke="#1c1c1c" stroke-linecap="round" stroke-linejoin="round" stroke-width="2.9966"/><path d="M339.7038,146.8883l-11.1-33.3583a2.6185,2.6185,0,0,1-.7786.4087l-3.89,1.2577a2.6165,2.6165,0,0,1-1.0083.1191l11.1294,33.4485Z" fill="#aab3b6" stroke="#1c1c1c" stroke-linecap="round" stroke-linejoin="round" stroke-width="3.8607"/><path d="M257.1773,251.2369c-.8978.0444-2.666,0-2.666,0H230.9647a29.91,29.91,0,0,0,19.2291,11.6448,15.8879,15.8879,0,0,1,27.4163,6.3722c.068.2622.1841.7945.1841.7945l5.7028,3.2022C284.2205,260.4519,272.5333,250.4777,257.1773,251.2369Z" fill="#d40d12" stroke="#1c1c1c" stroke-linecap="round" stroke-linejoin="round" stroke-width="3.8607"/><polygon points="268.763 263.607 263.699 265.792 257.401 251.196 263.563 251.554 268.763 263.607" fill="#ff1d23" stroke="#1c1c1c" stroke-linecap="round" stroke-linejoin="round" stroke-width="3.8607"/><polygon points="171.429 251.237 153.459 256.308 224.943 256.308 222.385 251.237 171.429 251.237" fill="#d40d12" stroke="#1c1c1c" stroke-linecap="round" stroke-linejoin="round" stroke-width="3.8607"/><path d="M179.0092,243.3381a71.4727,71.4727,0,1,1-115.9717-30.866l-4.9382-9.7971a82.1177,82.1177,0,1,0,131.14,37.75Z" fill="#262626" stroke="#1c1c1c" stroke-linecap="round" stroke-linejoin="round" stroke-width="3.8607"/><path d="M170.1762,245.853A62.5161,62.5161,0,1,1,67.3059,220.94l-4.3574-8.6447a71.8348,71.8348,0,1,0,116.178,31.009Z" fill="#aab3b6" stroke="#1c1c1c" stroke-linecap="round" stroke-linejoin="round" stroke-width="3.8607"/><path d="M55.6168,197.75a88.5815,88.5815,0,0,0-25.9717,35.7236,89.9657,89.9657,0,0,0-3.37,10.1952,28.7358,28.7358,0,0,1-9.3235,14.6279,2.4868,2.4868,0,0,0,3.0824,3.9006l1.0656-.7913a44.3293,44.3293,0,0,0,15.3583-20.8451q.52-1.4735,1.1031-2.9381a78.834,78.834,0,0,1,22.4388-31.1782Z" fill="#4b4b4b" stroke="#1c1c1c" stroke-linecap="round" stroke-linejoin="round" stroke-width="3.8607"/><line x1="172.3954" y1="347.5954" x2="35.8934" y2="347.5954" fill="none" stroke="#1c1c1c" stroke-linecap="round" stroke-linejoin="round" stroke-width="3.8607"/><line x1="189.3396" y1="347.5954" x2="219.0692" y2="347.5954" fill="none" stroke="#1c1c1c" stroke-linecap="round" stroke-linejoin="round" stroke-width="3.8607"/><path d="M138.8721,148.4274h0a50.8983,50.8983,0,0,0,11.8128-3.8427l.5819-.2717" fill="none" stroke="#1c1c1c" stroke-linecap="round" stroke-linejoin="round" stroke-width="3.8607"/><path d="M43.5263,147.8478h0a9.8518,9.8518,0,0,1-5.1781-2.2763l-1.0774-.9173" fill="none" stroke="#1c1c1c" stroke-linecap="round" stroke-linejoin="round" stroke-width="3.8607"/><path d="M42.8723,159.6406l.4145-7.2714H39.8126a2.2061,2.2061,0,0,0-2.1842,2.5164l.6668,4.693a3.7777,3.7777,0,0,0,3.74,3.2462h.7777C42.7951,161.7651,42.8117,160.7032,42.8723,159.6406Z" fill="#ff1d23" stroke="#1c1c1c" stroke-linecap="round" stroke-linejoin="round" stroke-width="3.8607"/><path d="M215.4531,207.49l-11.68-23.2129-2.0393-.5217h-8.298a2.9428,2.9428,0,0,1-2.9341-2.9341h0c0-.0473.0049-.0932.0071-.14L135.076,146.0562H43.6468l-.7745,13.5844A43.05,43.05,0,0,0,47.41,181.468l26.6866,52.9444a45.9736,45.9736,0,0,0,53.6425,23.5234l96.44-27.4587Z" fill="#333" stroke="#1c1c1c" stroke-linecap="round" stroke-linejoin="round" stroke-width="3.8607"/><path d="M46.7557,146.0562l-.867-26.77a142.1222,142.1222,0,0,0-3.3416-26.3726h0A3.0356,3.0356,0,0,1,45.51,89.2164h60.3857a14.6124,14.6124,0,0,1,9.91,3.8739l7.5737,6.9894a14.6125,14.6125,0,0,1,4.7024,10.7384v35.2381Z" fill="none" stroke="#1c1c1c" stroke-linecap="round" stroke-linejoin="round" stroke-width="3.8607"/><path d="M44.9885,107.27l32.87.8435a426.1956,426.1956,0,0,1,50.2227,4.27h0" fill="none" stroke="#1c1c1c" stroke-linecap="round" stroke-linejoin="round" stroke-width="3.8607"/><path d="M46.1467,124.6436l32.87.8434a426.1961,426.1961,0,0,1,49.0645,4.104" fill="none" stroke="#1c1c1c" stroke-linecap="round" stroke-linejoin="round" stroke-width="3.8607"/><line x1="63.1135" y1="89.2164" x2="63.1135" y2="146.0562" fill="none" stroke="#1c1c1c" stroke-linecap="round" stroke-linejoin="round" stroke-width="3.8607"/><line x1="86.5349" y1="89.2164" x2="86.5349" y2="146.0562" fill="none" stroke="#1c1c1c" stroke-linecap="round" stroke-linejoin="round" stroke-width="3.8607"/><line x1="110.4832" y1="89.9574" x2="110.4832" y2="146.0562" fill="none" stroke="#1c1c1c" stroke-linecap="round" stroke-linejoin="round" stroke-width="3.8607"/><path d="M104.9824,234.4124,78.2958,181.468a43.05,43.05,0,0,1-4.5376-21.8274l.7744-13.5844H43.6468l-.7745,13.5844A43.05,43.05,0,0,0,47.41,181.468l26.6866,52.9444a45.9736,45.9736,0,0,0,53.6425,23.5234l3.016-.8588A45.91,45.91,0,0,1,104.9824,234.4124Z" fill="#1a1a1a"/><g clip-path="url(#clip-path)"><path d="M85.1653,140.8605l40.7984-11.2128a7.5776,7.5776,0,0,1,8.869,4.09h0c9.7767,20.8507,29.7767,56.9568,37.6431,71.0205a4.7219,4.7219,0,0,1-3.3369,6.9615l-38.5355,6.505a4.396,4.396,0,0,0-3.1084,6.4741l17.4551,31.33a1.692,1.692,0,0,1-2.5259,2.1519l-2.1862-1.7245a381.703,381.703,0,0,1-49.7889-47.1129c-.1193-.1352-.3342-.3814-.6058-.6934a3.1011,3.1011,0,0,1,1.7643-5.0853h0l33.333-6.1877.0439-.0081a2.6587,2.6587,0,0,0,1.3159-4.57h0a300.4734,300.4734,0,0,1-42.3991-48.4246h0A2.2833,2.2833,0,0,1,85.1653,140.8605Z" fill="#fff"/></g><circle cx="101.0339" cy="245.6227" r="3.7376" fill="none" stroke="#1c1c1c" stroke-linecap="round" stroke-linejoin="round" stroke-width="3.8607"/><rect x="140.8673" y="202.7273" width="49.9183" height="13.2731" rx="6.6365" ry="6.6365" transform="translate(-93.9888 147.4959) rotate(-38.225)" fill="#4b4b4b" stroke="#1c1c1c" stroke-linecap="round" stroke-linejoin="round" stroke-width="3.8607"/><line x1="152.9323" y1="219.5197" x2="176.5472" y2="200.9199" fill="#1c1c1c" stroke="#aab3b6" stroke-linecap="round" stroke-linejoin="round" stroke-width="3.8607"/><path d="M174.1939,170.4908v-1.7976a4.2178,4.2178,0,0,0-1.9834-3.5774L168.5,162.7979a2,2,0,0,0-3.0593,1.6961v.5291Z" fill="none" stroke="#1c1c1c" stroke-linecap="round" stroke-linejoin="round" stroke-width="3.8607"/><path d="M103.9607,117.4263h0a41.2573,41.2573,0,0,1,6.6047,22.3911l-.0822,6.2388,5.3132-23.4813-1.1386,23.4813,4.3076-23.7348-.1467,23.7348,3.1889-23.4813h0a83.067,83.067,0,0,0,28.0387,15.0619l2.7473.85a23.21,23.21,0,0,1,16.0387,18.4l1.2174,7.3916" fill="none" stroke="#1c1c1c" stroke-linecap="round" stroke-linejoin="round" stroke-width="3.8607"/><circle cx="131.556" cy="157.2218" r="5.2761" fill="#aab3b6" stroke="#1c1c1c" stroke-linecap="round" stroke-linejoin="round" stroke-width="3.8607"/><circle cx="131.556" cy="157.2218" r="0.0019" fill="none" stroke="#1c1c1c" stroke-linecap="round" stroke-linejoin="round" stroke-width="3.8607"/><path d="M215.4532,207.49l-12.1054-24.0575a2.905,2.905,0,0,1-1.3284.3229h-8.5839a2.9427,2.9427,0,0,1-2.9341-2.9341h0c0-.0473.0049-.0932.0071-.14L135.076,146.0562H43.6468l-.7744,13.5844A43.0514,43.0514,0,0,0,47.41,181.468l26.6866,52.9444a45.9737,45.9737,0,0,0,53.6426,23.5234l96.44-27.4587Z" fill="none" stroke="#1c1c1c" stroke-linecap="round" stroke-linejoin="round" stroke-width="3.8607"/><rect x="198.2249" y="177.8872" width="14.4522" height="5.8683" rx="2.9342" ry="2.9342" fill="#4b4b4b" stroke="#1c1c1c" stroke-linecap="round" stroke-linejoin="round" stroke-width="3.8607"/><path d="M203.4734,177.8872H209.22l-12.9386-33.113A47.2561,47.2561,0,0,0,190.449,134.13l-10.198,1.03,1.549,3.2218a3.0864,3.0864,0,0,0,3.3538,1.6956,2.6421,2.6421,0,0,1,3.132,2.5963,11.35,11.35,0,0,0,.9525,4.5513l13.4679,30.768A2.903,2.903,0,0,1,203.4734,177.8872Z" fill="#6e7476" stroke="#1c1c1c" stroke-linecap="round" stroke-linejoin="round" stroke-width="3.8607"/><path d="M163.2513,128.3726h0c-.1514.0146-.3039.0252-.4572.0331v3.5031a3.0192,3.0192,0,0,0,3.01,3.01H172.5a3.0192,3.0192,0,0,0,3.01-3.01v-4.2914Q169.3868,128.0758,163.2513,128.3726Z" fill="#4b4b4b" stroke="#1c1c1c" stroke-linecap="round" stroke-linejoin="round" stroke-width="3.8607"/><path d="M197.063,125.4934l-4.2708,4.13a18.68,18.68,0,0,1-11.1089,5.1577l-.1721.0174a18.68,18.68,0,0,1-7.032-.6307h0" fill="none" stroke="#1c1c1c" stroke-linecap="round" stroke-linejoin="round" stroke-width="3.8607"/><path d="M220.3208,117.388h0a16.2392,16.2392,0,0,0-13.5035-5.9624l-8.5627.48a90.9753,90.9753,0,0,1-17.0042-.6406h0a90.9766,90.9766,0,0,0-11.9122-.7832H162.27a8.9857,8.9857,0,1,0,0,17.938q.4973,0,.9817-.0472h0a459.1153,459.1153,0,0,0,51.9755-5.4737l3.2-.5225A3.0827,3.0827,0,0,0,220.3208,117.388Z" fill="#323232" stroke="#1c1c1c" stroke-linecap="round" stroke-linejoin="round" stroke-width="3.8607"/><line x1="190.0298" y1="149.0333" x2="197.9457" y2="149.0333" fill="none" stroke="#1c1c1c" stroke-linecap="round" stroke-linejoin="round" stroke-width="3.8607"/><line x1="194.3658" y1="158.9389" x2="201.8162" y2="158.9389" fill="none" stroke="#1c1c1c" stroke-linecap="round" stroke-linejoin="round" stroke-width="3.8607"/><line x1="198.7017" y1="168.8446" x2="205.6868" y2="168.8446" fill="none" stroke="#1c1c1c" stroke-linecap="round" stroke-linejoin="round" stroke-width="3.8607"/><line x1="128.0814" y1="143.3537" x2="46.8484" y2="143.3537" fill="none" stroke="#1c1c1c" stroke-linecap="round" stroke-linejoin="round" stroke-width="3.8607"/><path d="M377.2932,159.0115l-2.5269.02.1,12.7174,2.5269-.02a2.7607,2.7607,0,0,0,2.7388-2.7823l-.0567-7.1963A2.7607,2.7607,0,0,0,377.2932,159.0115Z" fill="#ffd460" stroke="#1c1c1c" stroke-linecap="round" stroke-linejoin="round" stroke-width="3.8607"/><path d="M367.6105,172.2026h0a12.727,12.727,0,0,1-3.6319,9.0033l-1.5072,1.54" fill="#aab3b6" stroke="#1c1c1c" stroke-linecap="round" stroke-linejoin="round" stroke-width="3.8607"/><path d="M374.8775,173.145l-2.773-.2263a29.776,29.776,0,0,1-11.4061-3.3072h0a4.3118,4.3118,0,0,1-2.3094-3.7848h0a4.3119,4.3119,0,0,1,2.1939-3.79h0a33.4536,33.4536,0,0,1,10.9056-3.8542l3.2668-.5473Z" fill="#aab3b6" stroke="#1c1c1c" stroke-linecap="round" stroke-linejoin="round" stroke-width="3.8607"/><circle cx="395.3146" cy="264.5109" r="17.0624" fill="#aab3b6" stroke="#1c1c1c" stroke-linecap="round" stroke-linejoin="round" stroke-width="3.8607"/><circle cx="395.3146" cy="264.5109" r="9.8199" fill="#aab3b6" stroke="#1c1c1c" stroke-linecap="round" stroke-linejoin="round" stroke-width="3.8607"/><path d="M394.3727,182.0555a82.1116,82.1116,0,1,0,82.1115,82.1115A82.1115,82.1115,0,0,0,394.3727,182.0555Zm0,153.5952a71.4837,71.4837,0,1,1,71.4837-71.4837A71.4836,71.4836,0,0,1,394.3727,335.6507Z" fill="#262626" stroke="#1c1c1c" stroke-linecap="round" stroke-linejoin="round" stroke-width="3.8607"/><path d="M394.3727,192.3394A71.8276,71.8276,0,1,0,466.2,264.167,71.8276,71.8276,0,0,0,394.3727,192.3394Zm0,134.3585a62.5309,62.5309,0,1,1,62.5309-62.5309A62.5309,62.5309,0,0,1,394.3727,326.6979Z" fill="#aab3b6" stroke="#1c1c1c" stroke-linecap="round" stroke-linejoin="round" stroke-width="3.8607"/><path d="M315.8118,265.48a79.47,79.47,0,0,1,59.3036-76.7671l.0845-.0219a32.5132,32.5132,0,0,0,15.4261-9.0234l3.9676-4.1587a89.05,89.05,0,0,0-87.67,89.0438,89.97,89.97,0,0,0,.6393,10.7189,28.7343,28.7343,0,0,1-3.2519,17.039h0a2.4866,2.4866,0,0,0-.19,1.9027h0a2.4868,2.4868,0,0,0,4.4961.5813l.6974-1.1294a44.33,44.33,0,0,0,6.5592-25.0474Q315.8121,267.0563,315.8118,265.48Z" fill="#4b4b4b" stroke="#1c1c1c" stroke-linecap="round" stroke-linejoin="round" stroke-width="3.8607"/><line x1="325.3557" y1="347.5936" x2="483.9382" y2="347.5936" fill="none" stroke="#1c1c1c" stroke-linecap="round" stroke-linejoin="round" stroke-width="3.8607"/><rect x="269.7214" y="293.5231" width="22.5769" height="5.1789" transform="matrix(0.9986, -0.0532, 0.0532, 0.9986, -15.3489, 15.3624)" fill="#4b4b4b" stroke="#1c1c1c" stroke-linecap="round" stroke-linejoin="round" stroke-width="3.8607"/><path d="M262.2278,257.3614a15.8892,15.8892,0,1,0,15.8892,15.8892A15.8893,15.8893,0,0,0,262.2278,257.3614Z" fill="#4b4b4b" stroke="#1c1c1c" stroke-linecap="round" stroke-linejoin="round" stroke-width="3.8607"/><path d="M226.65,239.9907a4.2475,4.2475,0,0,1-1.4579-8.2368l13.8728-5.0693a42.219,42.219,0,0,0,20.6536-16.26l34.1542-51.311a43.9768,43.9768,0,0,1,26.13-18.3429l8.0672-1.9793a4.2468,4.2468,0,1,1,2.0239,8.2489l-8.0672,1.9794a35.48,35.48,0,0,0-21.0836,14.8l-34.1543,51.311a50.71,50.71,0,0,1-24.809,19.531l-13.8729,5.0693A4.2394,4.2394,0,0,1,226.65,239.9907Z" fill="#ff1d23"/><path d="M333.2066,141.9043a4.2468,4.2468,0,0,0-5.1366-3.1125l-8.0672,1.9793a43.991,43.991,0,0,0-6.2867,2.063c.1657-.0427.3293-.0918.4956-.1326l8.0672-1.9794a4.2461,4.2461,0,0,1,3.8362,7.2948l3.9788-.9762A4.247,4.247,0,0,0,333.2066,141.9043Z" fill="#d40d12"/><path d="M355.1913,180.8738c-1.122-3.04-2.2037-6.1387-3.2145-9.2106l-11.6925-35.4568a6.3638,6.3638,0,0,0-.6772-1.4178,2.6149,2.6149,0,0,1-1.4032,1.082l-8.7254,2.8209a4.2422,4.2422,0,0,1,.9323,8.2543l8.3154,25.2159a4.2413,4.2413,0,0,1,2.6774,7.9972c.597,1.7172,1.2095,3.4308,1.8353,5.1264a6.37,6.37,0,0,0,11.9524-4.4115Z" fill="#ff1d23"/><path d="M350.1232,183.2174c-.6258-1.6957-1.8353-5.1264-1.8353-5.1264l-2.6774-7.9972-10.912-33.09-5.22,1.6876a4.2422,4.2422,0,0,1,.9323,8.2543l8.3154,25.2159a4.2413,4.2413,0,0,1,2.6774,7.9972c.597,1.7172,1.2095,3.4308,1.8353,5.1264a6.3609,6.3609,0,0,0,10.926,1.7944A6.3579,6.3579,0,0,1,350.1232,183.2174Z" fill="#d40d12"/><path d="M255.9216,270.9011l-5.4838-7.9785A29.9126,29.9126,0,0,1,228.3559,247.07l-4.0045-7.7587a4.2384,4.2384,0,0,1-.4619-6.791,4.9933,4.9933,0,0,0-8.2409,1.7931,2.8145,2.8145,0,0,0-2.6947-.6528L111.4156,262.5737c.1255-.0108.2518-.0192.38-.0192a4.3959,4.3959,0,0,1,.8127,8.7162l-.0031.0783L258.9042,276.97l.2285-5.9452ZM227.066,266.29a6.1816,6.1816,0,0,1-5.6981,3.2836L127.21,265.9562a1.1056,1.1056,0,0,1-.2577-2.1688l87.539-24.7021a2.8053,2.8053,0,0,0,1.3408-.841l11.2168,22.24A6.3239,6.3239,0,0,1,227.066,266.29Z" fill="#ff1d23"/><path d="M221.6014,249.5763h0a51.7744,51.7744,0,0,0,35.1893,26.94l2.1135.453L211.13,275.1343l4.7032-.776a7.0057,7.0057,0,0,0,5.5344-4.7847h0a6.391,6.391,0,0,0,6.3956-6.391h0a4.7212,4.7212,0,0,0-.4861-2.0866Z" fill="#d40d12"/><g clip-path="url(#clip-path-2)"><path d="M85.1653,140.8605l40.7984-11.2128a7.5776,7.5776,0,0,1,8.869,4.09h0c9.7767,20.8507,29.7767,56.9568,37.6431,71.0205a4.7219,4.7219,0,0,1-3.3369,6.9615l-38.5355,6.505a4.396,4.396,0,0,0-3.1084,6.4741l17.4551,31.33a1.692,1.692,0,0,1-2.5259,2.1519l-2.1862-1.7245a381.703,381.703,0,0,1-49.7889-47.1129c-.1193-.1352-.3342-.3814-.6058-.6934a3.1011,3.1011,0,0,1,1.7643-5.0853h0l33.333-6.1877.0439-.0081a2.6587,2.6587,0,0,0,1.3159-4.57h0a300.4734,300.4734,0,0,1-42.3991-48.4246h0A2.2833,2.2833,0,0,1,85.1653,140.8605Z" fill="#fff"/></g><path d="M399.3707,262.4166a274.6029,274.6029,0,0,1-44.751-75.976,6.34,6.34,0,0,1-7.2181,2.7433A282.2869,282.2869,0,0,0,393.43,267.348a3.8605,3.8605,0,1,0,5.9411-4.9314Z" fill="#d40d12" stroke="#1c1c1c" stroke-linecap="round" stroke-linejoin="round" stroke-width="3.8607"/><rect x="325.793" y="132.1606" width="14.4522" height="5.2524" rx="2.6262" ry="2.6262" transform="translate(-25.3146 108.9769) rotate(-17.9155)" fill="#4b4b4b" stroke="#1c1c1c" stroke-linecap="round" stroke-linejoin="round" stroke-width="3.8607"/><line x1="355.3425" y1="181.3399" x2="343.3724" y2="185.6157" fill="none" stroke="#1c1c1c" stroke-linecap="round" stroke-linejoin="round" stroke-width="3.8607"/><path d="M212.9539,233.66a2.8194,2.8194,0,0,1,3.51,2.04h0a2.82,2.82,0,0,1-1.9726,3.3846" fill="#ff1d23" stroke="#1c1c1c" stroke-linecap="round" stroke-linejoin="round" stroke-width="3.8607"/><path d="M255.9216,270.9011l-5.4838-7.9785A29.9126,29.9126,0,0,1,228.3559,247.07l-4.0045-7.7587a4.2384,4.2384,0,0,1-.4619-6.791,4.9933,4.9933,0,0,0-8.2409,1.7931,2.8145,2.8145,0,0,0-2.6947-.6528L111.4156,262.5737c.1255-.0108.2518-.0192.38-.0192a4.3959,4.3959,0,0,1,.8127,8.7162l-.0031.0783L258.9042,276.97l.2285-5.9452ZM227.066,266.29a6.1816,6.1816,0,0,1-5.6981,3.2836L127.21,265.9562a1.1056,1.1056,0,0,1-.2577-2.1688l87.539-24.7021a2.8053,2.8053,0,0,0,1.3408-.841l11.2168,22.24A6.3239,6.3239,0,0,1,227.066,266.29Z" fill="none" stroke="#1c1c1c" stroke-linecap="round" stroke-linejoin="round" stroke-width="3.8607"/><circle cx="111.7957" cy="266.9516" r="4.3971" fill="#d40d12" stroke="#1c1c1c" stroke-linecap="round" stroke-linejoin="round" stroke-width="3.8607"/><circle cx="396.1379" cy="264.5109" r="0.8232" fill="none" stroke="#1c1c1c" stroke-linecap="round" stroke-linejoin="round" stroke-width="3.8607"/><path d="M56.76,286.2715l-6.6064-.6a3.4877,3.4877,0,0,0-.3634,1.263,3.5354,3.5354,0,0,0,3.1966,3.8255l20.0028,1.7914a3.5354,3.5354,0,0,0,3.8255-3.1966,3.4856,3.4856,0,0,0-.2077-1.5278Q66.6755,287.1629,56.76,286.2715Z" fill="#4b4b4b" stroke="#1c1c1c" stroke-linecap="round" stroke-linejoin="round" stroke-width="3.8607"/><path d="M132.1878,272.1014h0l-10.938-.42a21.8148,21.8148,0,0,1-3.7323,7.8372l-.61.8112.0046.0034a6.105,6.105,0,1,0,9.8052,7.27l.0039.0029.0305-.0489a6.0987,6.0987,0,0,0,.3632-.5918A36.2031,36.2031,0,0,0,132.1878,272.1014Z" fill="#aab3b6" stroke="#1c1c1c" stroke-linecap="round" stroke-linejoin="round" stroke-width="3.8607"/><circle cx="121.541" cy="283.9079" r="1.9192" fill="#1c1c1c"/><path d="M221.6014,249.5763a51.7542,51.7542,0,0,0,13.4152,16.5182" fill="none" stroke="#1c1c1c" stroke-linecap="round" stroke-linejoin="round" stroke-width="3.8607"/><path d="M343.5872,174.7724a4.2461,4.2461,0,0,0-5.4947-2.425l-3.0837,1.1951A56.4317,56.4317,0,0,0,308.5043,194.77L263.71,261.0216a6.8269,6.8269,0,0,1-4.49,2.8934l-2.3805.4051,3.1555,3.8056h0a5.5181,5.5181,0,0,1,5.4248,2.4907,15.3245,15.3245,0,0,0,5.3274-4.8377L315.552,199.51a47.944,47.944,0,0,1,22.5262-18.0478l3.084-1.1953A4.2468,4.2468,0,0,0,343.5872,174.7724Z" fill="#ff1d23"/><path d="M355.1913,180.8738c-1.122-3.04-2.2037-6.1387-3.2145-9.2106l-11.6925-35.4568a6.3638,6.3638,0,0,0-.6772-1.4178,2.6149,2.6149,0,0,1-1.4032,1.082l-8.7254,2.8209a4.2422,4.2422,0,0,1,.9323,8.2543l8.3154,25.2159a4.2413,4.2413,0,0,1,2.6774,7.9972c.597,1.7172,1.2095,3.4308,1.8353,5.1264a6.37,6.37,0,0,0,11.9524-4.4115Z" fill="none" stroke="#1c1c1c" stroke-linecap="round" stroke-linejoin="round" stroke-width="3.8607"/><path d="M328.4586,70.29l-18.6481-3.5121h0a4.5676,4.5676,0,0,1,3.6325,5.3184h0a4.5675,4.5675,0,0,1-5.3184,3.6327l18.648,3.512a4.5542,4.5542,0,1,0,1.6859-8.951Z" fill="#4b4b4b" stroke="#1c1c1c" stroke-linecap="round" stroke-linejoin="round" stroke-width="3.8607"/><path d="M322.3191,110.1987l3.89-1.2577a2.6119,2.6119,0,0,1,1.3059-.0793l5.3156-6.14a2.3825,2.3825,0,0,1-2.0666-.292l-.0386-.0261a2.4682,2.4682,0,0,1-1.0084-2.6516l.1288-.5069-7.8337,9.1647a2.45,2.45,0,0,0-.5046,2.2234A2.6143,2.6143,0,0,1,322.3191,110.1987Z" fill="#4b4b4b" stroke="#1c1c1c" stroke-linecap="round" stroke-linejoin="round" stroke-width="3.8607"/><rect x="320.4016" y="109.4425" width="9.3408" height="5.2524" rx="2.6262" ry="2.6262" transform="translate(-18.7116 105.4307) rotate(-17.9155)" fill="#aab3b6" stroke="#1c1c1c" stroke-linecap="round" stroke-linejoin="round" stroke-width="3.8607"/><path d="M343.3539,90.464a2.5853,2.5853,0,0,1-.8446-3.1045.3524.3524,0,0,0-.3262-.4857h-3.2455l-.6939,1.492a39.1145,39.1145,0,0,1-4.1745,6.9729,3.1279,3.1279,0,0,1-1.7881,1.1687h0a3.1287,3.1287,0,0,0-2.3175,2.275l-.2464.9694a2.4682,2.4682,0,0,0,1.0084,2.6516l.0386.0261a2.396,2.396,0,0,0,2.3614.178l.1037-.0478a17.8718,17.8718,0,0,0,9.0806-9.51l1.0478-2.583Z" fill="#aab3b6" stroke="#1c1c1c" stroke-linecap="round" stroke-linejoin="round" stroke-width="3.8607"/><path d="M342.8492,81.83h3.6133a14.2372,14.2372,0,0,0-8.1884-6.8727l-6.2506-2.0256a4.5217,4.5217,0,0,1-1.6742,5.14l10.0988,3.2727A10.9486,10.9486,0,0,0,342.8492,81.83Z" fill="#aab3b6" stroke="#1c1c1c" stroke-linecap="round" stroke-linejoin="round" stroke-width="3.8607"/><rect x="325.2524" y="124.4469" width="9.3408" height="5.2524" rx="2.6262" ry="2.6262" transform="translate(-23.0919 107.6504) rotate(-17.9155)" fill="#aab3b6" stroke="#1c1c1c" stroke-linecap="round" stroke-linejoin="round" stroke-width="3.8607"/><path d="M226.65,239.9907a4.2475,4.2475,0,0,1-1.4579-8.2368l13.8728-5.0693a42.219,42.219,0,0,0,20.6536-16.26l34.1542-51.311a43.9768,43.9768,0,0,1,26.13-18.3429l8.0672-1.9793a4.2468,4.2468,0,1,1,2.0239,8.2489l-8.0672,1.9794a35.48,35.48,0,0,0-21.0836,14.8l-34.1543,51.311a50.71,50.71,0,0,1-24.809,19.531l-13.8729,5.0693A4.2394,4.2394,0,0,1,226.65,239.9907Z" fill="none" stroke="#1c1c1c" stroke-linecap="round" stroke-linejoin="round" stroke-width="3.8607"/><path d="M343.7521,175.2946a4.2468,4.2468,0,0,0-5.1366-3.1125l-8.0672,1.9793c-2.1539.5285-2.064,2.2739-4.1,3.1133.1657-.0427,0,0,.1664-.0408l6.21-3.1215a4.246,4.246,0,0,1,3.8361,7.2948l3.9789-.9762A4.247,4.247,0,0,0,343.7521,175.2946Z" fill="#d40d12"/><path d="M343.5872,174.7724a4.2461,4.2461,0,0,0-5.4947-2.425l-3.0837,1.1951A56.4317,56.4317,0,0,0,308.5043,194.77L263.71,261.0216a6.8269,6.8269,0,0,1-4.49,2.8934l-2.3805.4051,3.1555,3.8056h0a5.5181,5.5181,0,0,1,5.4248,2.4907,15.3245,15.3245,0,0,0,5.3274-4.8377L315.552,199.51a47.944,47.944,0,0,1,22.5262-18.0478l3.084-1.1953A4.2468,4.2468,0,0,0,343.5872,174.7724Z" fill="none" stroke="#1c1c1c" stroke-linecap="round" stroke-linejoin="round" stroke-width="3.8607"/><path d="M115.6172,284.0852a6.0566,6.0566,0,0,1,.3506-2.0346,504.7339,504.7339,0,0,1-58.32.0105l-7.5885-.4383a2.0124,2.0124,0,0,0-.2981,4.0132l6.9987.6355q31.089,2.8231,62.3236,3.3233h0l-.0013-.0085A6.1041,6.1041,0,0,1,115.6172,284.0852Z" fill="#6e7476" stroke="#1c1c1c" stroke-linecap="round" stroke-linejoin="round" stroke-width="3.8607"/><circle cx="260.7352" cy="273.6601" r="5.5891" fill="#aab3b6" stroke="#1c1c1c" stroke-linecap="round" stroke-linejoin="round" stroke-width="3.8607"/><path d="M242.9328,247.5487h-4.6616a3.2987,3.2987,0,0,1-2.6471.2525l20.0124,23.5773a5.5878,5.5878,0,0,1,4.3581-3.2528Z" fill="#6e7476" stroke="#1c1c1c" stroke-linecap="round" stroke-linejoin="round" stroke-width="3.8607"/><circle cx="236.6592" cy="244.6553" r="3.3131" fill="#6e7476" stroke="#1c1c1c" stroke-linecap="round" stroke-linejoin="round" stroke-width="3.8607"/><path d="M233.55,243.5117a3.3112,3.3112,0,0,1,2.5953-2.1283l-8.0527-2.9617-1.9974,5.431,8.0527,2.9617A3.3107,3.3107,0,0,1,233.55,243.5117Z" fill="#aab3b6" stroke="#1c1c1c" stroke-linecap="round" stroke-linejoin="round" stroke-width="3.8607"/><path d="M239.1708,242.4963a3.3111,3.3111,0,0,1-1.9974,5.431l8.0526,2.9616,1.9975-5.431Z" fill="#aab3b6" stroke="#1c1c1c" stroke-linecap="round" stroke-linejoin="round" stroke-width="3.8607"/><path d="M346.9418,82.7763c.0183-.0592.0325-.1188.0462-.1784.0053-.0227.0117-.0449.0162-.0678.0114-.057.0191-.1141.0264-.1713.0035-.0268.0083-.0533.0109-.08.0051-.054.0066-.1078.0082-.1617.0009-.0271.0042-.0537.0042-.0811l-.0008-.0144c0-.04-.0038-.0792-.006-.1188-.0025-.0466-.0037-.0934-.0088-.1393v-.0015a2.4953,2.4953,0,0,0-.2561-.8557c-.0114-.0227-.0211-.0462-.0331-.0685l-.0093-.0155a2.4735,2.4735,0,0,0-1.67-1.2485l-.0379-.0091c-.0636-.0128-.1272-.0216-.1911-.0293-.021-.0027-.0417-.0065-.0629-.0086-.0565-.0054-.1128-.007-.1692-.0086-.0256-.0008-.0508-.0039-.0766-.0039H328.9544a2.5869,2.5869,0,0,1-2.5938,2.1827,2.528,2.528,0,0,0,2.4992,2.8607h11.393a.3523.3523,0,0,1,.3261.4857h0a2.5855,2.5855,0,0,1,.8446,3.1046,2.5287,2.5287,0,0,0,3.788-1.1084l1.6559-4.05c.0226-.0556.04-.1119.0588-.1681C346.9312,82.8059,346.9371,82.7914,346.9418,82.7763Z" fill="#6e7476" stroke="#1c1c1c" stroke-linecap="round" stroke-linejoin="round" stroke-width="3.8607"/><line x1="316.0366" y1="65.7409" x2="325.8109" y2="64.7757" fill="#ffd460"/><path d="M315.9778,65.1449l9.6813-1.9061a1.5515,1.5515,0,0,1,.5994,3.0445,1.662,1.662,0,0,1-.2959.0292l-9.8671.0243a.6016.6016,0,0,1-.1177-1.1919Z" fill="#1c1c1c"/></svg>