<svg id="Layer_1" data-name="Layer 1" xmlns="http://www.w3.org/2000/svg" xmlns:xlink="http://www.w3.org/1999/xlink" width="70" height="90" viewBox="0 0 70 90"><defs><radialGradient id="radial-gradient" cx="41.1619" cy="26.5795" r="29.9289" gradientTransform="translate(-9.7791 3.6438) scale(1.0879 1.0879)" gradientUnits="userSpaceOnUse"><stop offset="0.3334"/><stop offset="0.9484" stop-opacity="0"/></radialGradient><radialGradient id="radial-gradient-2" cx="60.3981" cy="9.5871" r="12.9365" xlink:href="#radial-gradient"/></defs><title>parking-pin-swap</title><g id="Oval_6_Copy_9" data-name="Oval 6 Copy 9"><path id="path0_fill" data-name="path0 fill" d="M35,86.4375a16,16,0,1,0-16-16A16,16,0,0,0,35,86.4375Z" fill="#505866" fill-opacity="0.2"/></g><circle cx="35" cy="32.559" r="32.559" fill="url(#radial-gradient)"/><g id="Union"><path id="path1_fill" data-name="path1 fill" d="M35,3.4375a28.0039,28.0039,0,0,0-6.8418,55.1581L35,65.4375l6.8418-6.8419A28.0039,28.0039,0,0,0,35,3.4375Z" fill="#fff"/></g><g id="Ellipse"><path id="path2_fill" data-name="path2 fill" d="M59,31.4375a24,24,0,1,1-24-24A24,24,0,0,1,59,31.4375Z" fill="#505866"/></g><g id="Oval_6_Copy_4" data-name="Oval 6 Copy 4"><path id="path3_fill" data-name="path3 fill" d="M35,73.4375a3,3,0,1,0-3-3A3,3,0,0,0,35,73.4375Z" fill="#fd4452"/></g><circle cx="55.9267" cy="14.0733" r="14.0733" fill="url(#radial-gradient-2)"/><circle cx="57.3968" cy="12.6033" r="11.8535" fill="#fd4452"/><path d="M57.3968,1.5A11.1032,11.1032,0,1,1,46.2937,12.6032,11.1157,11.1157,0,0,1,57.3968,1.5m0-1.5A12.6032,12.6032,0,1,0,70,12.6032,12.6031,12.6031,0,0,0,57.3968,0Z" fill="#d33346"/><path d="M56.2116,10.2327,51.881,5.9021,50.6957,7.0873l4.3306,4.3306Zm3.2793-4.3306,1.713,1.7129L50.6957,18.119l1.1853,1.1853L62.3892,8.7961l1.7087,1.713V5.9021Zm.2764,7.8863-1.1852,1.1853,2.6218,2.6218-1.713,1.7088h4.607v-4.607L62.385,16.41Z" fill="#fff"/><g id="ic_local_parking_black_24px" data-name="ic local parking black 24px"><g id="Shape"><path id="path3_fill-2" data-name="path3 fill" d="M29.6279,22.06h7.5213a6.4468,6.4468,0,0,1,0,12.8936H33.9258v6.4468H29.6279Zm4.2979,8.5957H37.364a2.149,2.149,0,0,0,0-4.2979H33.9258Z" fill="#fff"/></g></g></svg>