<svg id="Layer_1" data-name="Layer 1" xmlns="http://www.w3.org/2000/svg" xmlns:xlink="http://www.w3.org/1999/xlink" width="70" height="70" viewBox="0 0 70 70"><defs><radialGradient id="radial-gradient" cx="55.9529" cy="30.8428" r="31.2535" gradientTransform="translate(-25.8699 1.4468) scale(1.0879 1.0879)" gradientUnits="userSpaceOnUse"><stop offset="0.3334"/><stop offset="0.9484" stop-opacity="0"/></radialGradient></defs><title>parking-puck-unavl</title><circle cx="35" cy="35" r="34" fill="url(#radial-gradient)"/><g id="Rectangle_12" data-name="Rectangle 12"><path id="path0_fill" data-name="path0 fill" d="M6.7143,35A28.2856,28.2856,0,0,1,35,6.7143h0A28.2857,28.2857,0,0,1,63.2857,35h0A28.2858,28.2858,0,0,1,35,63.2857h0A28.2857,28.2857,0,0,1,6.7143,35Z" fill="#9ea8b0" stroke="#fff" stroke-miterlimit="10" stroke-width="4"/></g><g id="ic_local_parking_black_24px" data-name="ic local parking black 24px" opacity="0.5"><g id="Shape"><path id="path2_fill" data-name="path2 fill" d="M27.9286,24.3929h8.25a7.0714,7.0714,0,0,1,0,14.1428H32.6429v7.0714H27.9286Zm4.7143,9.4285h3.7716a2.3572,2.3572,0,1,0,0-4.7143H32.6429Z" fill="#fff"/></g></g></svg>