<svg id="Layer_1" data-name="Layer 1" xmlns="http://www.w3.org/2000/svg" xmlns:xlink="http://www.w3.org/1999/xlink" width="70" height="70" viewBox="0 0 70 70"><defs><radialGradient id="radial-gradient" cx="62.2536" cy="18.0528" r="31.2535" gradientTransform="translate(-32.7243 15.3608) scale(1.0879 1.0879)" gradientUnits="userSpaceOnUse"><stop offset="0.3334"/><stop offset="0.9484" stop-opacity="0"/></radialGradient></defs><title>ride-puck</title><circle cx="35" cy="35" r="34" fill="url(#radial-gradient)"/><g id="Rectangle_12" data-name="Rectangle 12"><path id="path0_fill" data-name="path0 fill" d="M6.7143,35A28.2856,28.2856,0,0,1,35,6.7143h0A28.2857,28.2857,0,0,1,63.2857,35h0A28.2858,28.2858,0,0,1,35,63.2857h0A28.2857,28.2857,0,0,1,6.7143,35Z" fill="#4392f1" stroke="#fff" stroke-miterlimit="10" stroke-width="4"/></g><g id="Rectangle_5" data-name="Rectangle 5"><path id="path2_fill" data-name="path2 fill" d="M26.04,46.1686a1.3689,1.3689,0,0,1-2.0181-1.6777l9.7132-22.6826a1.369,1.369,0,0,1,2.5166-.0007L45.978,44.4844a1.369,1.369,0,0,1-2.0171,1.679l-8.2027-5.465a1.3691,1.3691,0,0,0-1.5189,0Z" fill="#fff"/></g></svg>