<svg id="Layer_1" data-name="Layer 1" xmlns="http://www.w3.org/2000/svg" xmlns:xlink="http://www.w3.org/1999/xlink" width="70" height="90" viewBox="0 0 70 90"><defs><radialGradient id="radial-gradient" cx="35.0227" cy="18.5419" r="29.9289" gradientTransform="translate(-3.1004 12.3876) scale(1.0879 1.0879)" gradientUnits="userSpaceOnUse"><stop offset="0.3334"/><stop offset="0.9484" stop-opacity="0"/></radialGradient></defs><title>scoot-selected-pin</title><g id="Oval_6_Copy_9" data-name="Oval 6 Copy 9"><path id="path0_fill" data-name="path0 fill" d="M35,86.4375a16,16,0,1,0-16-16A16,16,0,0,0,35,86.4375Z" fill="#505866" fill-opacity="0.2"/></g><circle cx="35" cy="32.559" r="32.559" fill="url(#radial-gradient)"/><g id="Union"><path id="path1_fill" data-name="path1 fill" d="M35,3.4375a28.0039,28.0039,0,0,0-6.8418,55.1581L35,65.4375l6.8418-6.8419A28.0039,28.0039,0,0,0,35,3.4375Z" fill="#fff"/></g><g id="Ellipse"><path id="path2_fill" data-name="path2 fill" d="M59,31.4375a24,24,0,1,1-24-24A24,24,0,0,1,59,31.4375Z" fill="#fd4452"/></g><g id="Oval_6_Copy_4" data-name="Oval 6 Copy 4"><path id="path3_fill" data-name="path3 fill" d="M35,73.4375a3,3,0,1,0-3-3A3,3,0,0,0,35,73.4375Z" fill="#fd4452"/></g><g id="Combined_Shape_Copy_21" data-name="Combined Shape Copy 21"><path id="path2_fill-2" data-name="path2 fill" d="M40.4122,23.5725c1.293,1.6188,4.3284,5.4193,4.3284,8.3792,0,1.7739-2.3183,4.7072-5.6649,4.7072-.0785,0-.2195-.0032-.4119-.0076-.5508-.0126-1.5267-.0349-2.6838-.02-3.2841.04-8.0325.3726-8.6478,2.0417l-.0081-.0336a4.4206,4.4206,0,1,1-.9376-4.7422c.855.8074,2.6325.6146,2.71-1.6833.0614-1.6849-5.36-2.3986-7.9258-2.7364a10.594,10.594,0,0,1-1.291-.2034c-.9437-.4076-2.7655-1.871.4209-1.65,2.1914.1578,12.15.89,13.0387,1.0143,1.5267.2071,1.66,1.0559,1.38,1.7391-.0745.1856-.21.4736-.3706.8134A13.627,13.627,0,0,0,33.2347,34.05c-.139,1.0416,1.3525,1.2758,2.7382,1.2758a19.0331,19.0331,0,0,0,2.0625-.1317l.11-.0119c2.6678-.2627,2.7645-3.1546,2.6042-5.9637a13.5018,13.5018,0,0,0-2.4652-6.5148,1.6934,1.6934,0,0,0-.59-.1627c-.1924-.0319-.4552-.0755-.853-.1621-1.1118-.242,1.4774-1.5527,2.2912-1.7869a2.1519,2.1519,0,0,1,1.3584,0,1.2005,1.2005,0,0,1,.3143,1.8425.7958.7958,0,0,1-.3224.0641c-.2477.02-.5426.0438-.6424.2943A4.1507,4.1507,0,0,0,40.4122,23.5725Zm5.38,8.0975a3.48,3.48,0,0,1,.7281-.1036,4.9109,4.9109,0,1,1,0,9.8209,5.0063,5.0063,0,0,1-4.8733-4.1613C43.5392,36.4794,45.8966,34.2578,45.792,31.67Z" fill="#fafbfc"/></g></svg>