<svg id="Layer_1" data-name="Layer 1" xmlns="http://www.w3.org/2000/svg" xmlns:xlink="http://www.w3.org/1999/xlink" width="70" height="90" viewBox="0 0 70 90"><defs><radialGradient id="radial-gradient" cx="22.8251" cy="18.9862" r="29.9289" gradientTransform="translate(10.1691 11.9043) scale(1.0879 1.0879)" gradientUnits="userSpaceOnUse"><stop offset="0.3334"/><stop offset="0.9484" stop-opacity="0"/></radialGradient></defs><title>scoot-unselected-pin</title><g id="Oval_6_Copy_9" data-name="Oval 6 Copy 9"><path id="path0_fill" data-name="path0 fill" d="M35,86.4375a16,16,0,1,0-16-16A16,16,0,0,0,35,86.4375Z" fill="#505866" fill-opacity="0.2"/></g><circle cx="35" cy="32.559" r="32.559" fill="url(#radial-gradient)"/><g id="Union"><path id="path1_fill" data-name="path1 fill" d="M35,3.4375a28.0039,28.0039,0,0,0-6.8418,55.1581L35,65.4375l6.8418-6.8419A28.0039,28.0039,0,0,0,35,3.4375Z" fill="#fff"/></g><g id="Oval_6_Copy_4" data-name="Oval 6 Copy 4"><path id="path3_fill" data-name="path3 fill" d="M35,73.4375a3,3,0,1,0-3-3A3,3,0,0,0,35,73.4375Z" fill="#fd4452"/></g><g id="Combined_Shape_Copy_21" data-name="Combined Shape Copy 21"><path id="path3_fill-2" data-name="path3 fill" d="M40.4953,23.5328c1.3128,1.6441,4.395,5.502,4.395,8.5073,0,1.8008-2.3543,4.7788-5.7521,4.7788-.0792,0-.2216-.0034-.4166-.0074-.5588-.013-1.5506-.0355-2.7264-.02-3.3338.0409-8.1549.3783-8.78,2.0729l-.0082-.0342a4.4877,4.4877,0,1,1-.9515-4.8149c.8677.82,2.6726.6244,2.751-1.7088.062-1.7109-5.4427-2.4354-8.0479-2.7783a10.6883,10.6883,0,0,1-1.3094-.2065c-.9583-.4138-2.8075-1.9.4281-1.6747,2.2248.16,12.3352.9038,13.2377,1.03,1.55.21,1.6842,1.0715,1.4007,1.7654-.0757.1881-.2133.48-.3755.824a13.8544,13.8544,0,0,0-1.1323,2.9044c-.141,1.0572,1.3728,1.2951,2.78,1.2951a19.3575,19.3575,0,0,0,2.1043-.135l.1008-.0109c2.7088-.2665,2.807-3.2029,2.6447-6.0548a13.7115,13.7115,0,0,0-2.5036-6.6144,1.72,1.72,0,0,0-.597-.165c-.1958-.032-.4629-.0763-.8678-.1642-1.1287-.2461,1.5-1.5766,2.3264-1.8145a2.186,2.186,0,0,1,1.38,0,1.2183,1.2183,0,0,1,.3183,1.87.8015.8015,0,0,1-.3265.0647c-.2523.0205-.5521.045-.6531.2993A4.239,4.239,0,0,0,40.4953,23.5328Zm5.46,8.22a3.5443,3.5443,0,0,1,.74-.105,4.9858,4.9858,0,1,1,0,9.9707,5.0828,5.0828,0,0,1-4.948-4.2247C43.6682,36.6363,46.0619,34.3807,45.9557,31.7531Z" fill="#464646"/></g></svg>