<?xml version="1.0" encoding="utf-8"?>
<!-- Generator: Adobe Illustrator 22.0.1, SVG Export Plug-In . SVG Version: 6.00 Build 0)  -->
<svg version="1.1" id="Layer_1" xmlns="http://www.w3.org/2000/svg" xmlns:xlink="http://www.w3.org/1999/xlink" x="0px" y="0px"
	 viewBox="0 0 80 60" style="enable-background:new 0 0 80 60;" xml:space="preserve">
<style type="text/css">
	.st0{fill:#666666;}
	.st1{fill:#FF0000;}
	.st2{fill:#999999;}
</style>
<title>scoot-t</title>
<g>
	<path class="st0" d="M17.3,50.7c-8.2,0-14.8-6.6-14.8-14.8s6.6-14.8,14.8-14.8s14.8,6.6,14.8,14.8S25.4,50.7,17.3,50.7z M17.3,24.5
		c-6.3,0-11.4,5.1-11.4,11.4S11,47.3,17.3,47.3s11.4-5.1,11.4-11.4S23.6,24.5,17.3,24.5z"/>
	<path class="st0" d="M62.2,50.7c-8.2,0-14.8-6.6-14.8-14.8S54,21.1,62.2,21.1S77,27.8,77,35.9S70.4,50.7,62.2,50.7z M62.2,24.5
		c-6.3,0-11.4,5.1-11.4,11.4c0,6.3,5.1,11.4,11.4,11.4s11.4-5.1,11.4-11.4C73.6,29.6,68.5,24.5,62.2,24.5z"/>
	<path class="st1" d="M63.4,35.9c0,0.4-0.2,0.9-0.7,1.1c-0.6,0.3-1.3,0.1-1.6-0.5l-9.1-17.6l-9,14.1l-2-1.3l8.9-13.9H31.7l7.1,13.8
		l-2.1,1.1l-7-13.7l-9.8,15.2l-2-1.3l10.6-16.4l-3-5.9l2.1-1.1l3,5.9h19.7l-2.5-4.8c-0.2-0.5-0.1-1.1,0.3-1.5
		c0.2-0.2,0.5-0.3,0.8-0.3h7.6l1.1,0.1c2.1,0,3.8,1.6,3.9,3.7c0,2.2-1.8,3.9-3.9,3.9h-1.3c-0.3,0-0.6-0.1-0.8-0.4
		c-0.2-0.2-0.4-0.5-0.4-0.9c0-0.7,0.5-1.2,1.2-1.2h1.4c0.8,0,1.5-0.7,1.4-1.5c-0.1-0.8-0.7-1.4-1.5-1.4l-1.1,0.1h-5.7l12.5,24.2
		C63.4,35.5,63.4,35.7,63.4,35.9z"/>
	<path class="st0" d="M31.7,11.2h-8.8c-0.7,0-1.2-0.5-1.2-1.2s0.5-1.2,1.2-1.2h8.8c0.7,0,1.2,0.5,1.2,1.2S32.4,11.2,31.7,11.2z"/>
	<path class="st2" d="M17.3,34.2c-0.6,0-1.2-0.5-1.2-1.1c0-0.7,0.5-1.2,1.1-1.3l22.4-1.4c0.7,0,1.2,0.5,1.3,1.1
		c0,0.7-0.5,1.2-1.1,1.3L17.3,34.2C17.3,34.2,17.3,34.2,17.3,34.2z"/>
	<path class="st2" d="M39.7,41.4C39.7,41.4,39.6,41.4,39.7,41.4L17.2,40c-0.7,0-1.2-0.6-1.1-1.3c0-0.7,0.6-1.2,1.3-1.1L39.8,39
		c0.7,0,1.2,0.6,1.1,1.3C40.8,40.9,40.3,41.4,39.7,41.4z"/>
	<path class="st0" d="M61.5,12.6c0,2.2-1.8,3.9-4,3.9h-1.3c-0.3,0-0.6-0.1-0.8-0.4c-0.2-0.2-0.4-0.5-0.4-0.9c0-0.7,0.6-1.2,1.2-1.2
		h1.4c0.8,0,1.4-0.7,1.4-1.5c-0.1-0.8-0.7-1.4-1.4-1.4h-1.1V8.8h1.2C59.9,8.8,61.5,10.5,61.5,12.6z"/>
	<path class="st0" d="M39.7,41.4c-3,0-5.5-2.5-5.5-5.5c0-3,2.5-5.5,5.5-5.5c3,0,5.5,2.5,5.5,5.5C45.2,38.9,42.7,41.4,39.7,41.4z
		 M39.7,32.8c-1.7,0-3.1,1.4-3.1,3.1c0,1.7,1.4,3.1,3.1,3.1c1.7,0,3.1-1.4,3.1-3.1C42.8,34.2,41.4,32.8,39.7,32.8z"/>
	<path class="st0" d="M17.3,40c-2.3,0-4.1-1.8-4.1-4.1c0-2.3,1.8-4.1,4.1-4.1s4.1,1.8,4.1,4.1C21.4,38.2,19.5,40,17.3,40z
		 M17.3,34.2c-0.9,0-1.7,0.8-1.7,1.7s0.8,1.7,1.7,1.7c0.9,0,1.7-0.8,1.7-1.7S18.2,34.2,17.3,34.2z"/>
	<path class="st1" d="M37.6,43.9c-0.1,0-0.2,0-0.4-0.1c-0.6-0.2-1-0.9-0.8-1.5l2.1-6.8c0.2-0.6,0.9-1,1.5-0.8c0.6,0.2,1,0.9,0.8,1.5
		L38.7,43C38.6,43.6,38.1,43.9,37.6,43.9z"/>
</g>
</svg>
