<svg xmlns="http://www.w3.org/2000/svg" viewBox="0 0 80 60"><title>cargo-t</title><g id="icons"><path d="M25.5544,32.8082l-.55-.17-.0026-.0183a2.1912,2.1912,0,0,0-.9184,1.8117,1.5941,1.5941,0,0,1-1.6394,1.6149l-.1779-.0051-.8378-.1543a1.5857,1.5857,0,0,1-.7717.2069H10.255l-.365.3532a1.4767,1.4767,0,0,0,1.0269,2.5379h0a10.8692,10.8692,0,0,1,3.9411.74,11.293,11.293,0,0,0,3.1974.7276,9.8858,9.8858,0,0,1,1.7048-.1637,10.1206,10.1206,0,0,1,1.3949.1076,63.7274,63.7274,0,0,0,12.3731-1.841l.3575-.09A17.3023,17.3023,0,0,0,25.5544,32.8082Z" fill="#ff1d23"/><path d="M32.2913,36.7553a64.3763,64.3763,0,0,1-9.9639,1.2971,10.1206,10.1206,0,0,0-1.3949-.1076,9.8858,9.8858,0,0,0-1.7048.1637,11.293,11.293,0,0,1-3.1974-.7276,10.8692,10.8692,0,0,0-3.9411-.74h0a1.4523,1.4523,0,0,1-1.1212-.5467H10.255l-.365.3532a1.4767,1.4767,0,0,0,1.0269,2.5379h0a10.8692,10.8692,0,0,1,3.9411.74,11.293,11.293,0,0,0,3.1974.7276,9.8858,9.8858,0,0,1,1.7048-.1637,10.1206,10.1206,0,0,1,1.3949.1076,63.7274,63.7274,0,0,0,12.3731-1.841l.3575-.09A17.624,17.624,0,0,0,32.2913,36.7553Z" fill="#d40d12"/><path d="M67.0059,32.78a29.9682,29.9682,0,0,0-11.3335-9.8427l-1.9085-.95.9674-.2261a1.2968,1.2968,0,0,0,.7609-2.0153h0a13.3473,13.3473,0,0,0-2.78-2.8707l-.7294-.5557a1.2969,1.2969,0,0,0-1.5551-.0125,11.121,11.121,0,0,0-2.3147,2.3,2.6106,2.6106,0,0,0-.2292,2.7565,8.8271,8.8271,0,0,0,1.3643,1.95,4.2535,4.2535,0,0,0,1.2933.9531l.0648.031a1.1818,1.1818,0,0,1,.2711-.2243,1.1938,1.1938,0,0,1,1.1844-.0031l.1834.1042a32.6347,32.6347,0,0,1,5.817,4.2126,2.2857,2.2857,0,0,1,.3287,3.0139l-3.328,4.6965a10.3036,10.3036,0,0,0-1.8857,6.4254l.0935.9957.0647.4527a1.56,1.56,0,0,1,.01.3477V44.32l.71,3.1068a.7864.7864,0,0,1-.7925.9612q-9.148-.3-18.2642-1.165l-3.12-.2961a.5955.5955,0,0,0-.5536.92l.0952.1445a16.1156,16.1156,0,0,0,2.9368,3.3428,1.6962,1.6962,0,0,0,1.0714.411l19.0378.4031a1.9115,1.9115,0,0,0,1.9483-1.7934,14.2115,14.2115,0,0,1,2.7815-7.6072l3.9025-5.2467a1.464,1.464,0,0,0,.2893-.8737,1.464,1.464,0,0,1,1.1248-1.4242l1.7185-.4091A1.3081,1.3081,0,0,0,67.0059,32.78Z" fill="#ff1d23"/><path d="M67.0059,32.78c-.3126-.4545-.6426-.8951-.9786-1.33a1.2961,1.2961,0,0,1-.9683,1l-1.7185.4091a1.464,1.464,0,0,0-1.1248,1.4242,1.464,1.464,0,0,1-.2893.8737l-3.9025,5.2467A14.2115,14.2115,0,0,0,55.2422,48.01a1.9115,1.9115,0,0,1-1.9483,1.7934l-19.0378-.4031a1.6962,1.6962,0,0,1-1.0714-.411,16.09,16.09,0,0,1-1.7975-1.849.5738.5738,0,0,0-.0623.7062l.0952.1445a16.1156,16.1156,0,0,0,2.9368,3.3428,1.6962,1.6962,0,0,0,1.0714.411l19.0378.4031a1.9115,1.9115,0,0,0,1.9483-1.7934,14.2115,14.2115,0,0,1,2.7815-7.6072l3.9025-5.2467a1.464,1.464,0,0,0,.2893-.8737,1.464,1.464,0,0,1,1.1248-1.4242l1.7185-.4091A1.3081,1.3081,0,0,0,67.0059,32.78Z" fill="#d40d12"/><path d="M47.1287,19.9231l.9369.5095a3.3264,3.3264,0,0,0,1.5891.4041h0a3.3264,3.3264,0,0,0,1.268-.2512h0a1.1616,1.1616,0,0,0,.6579-1.4451h0a1.7109,1.7109,0,0,0-1.2392-1.121l-.8642-.198Z" fill="#595959" stroke="#1c1c1c" stroke-linecap="round" stroke-linejoin="round"/><circle cx="19.7601" cy="50.8691" r="8.1309" fill="#323232" stroke="#1c1c1c" stroke-linecap="round" stroke-linejoin="round"/><path d="M22.2664,26.0246v-1.18A1.6094,1.6094,0,0,0,20.6617,23.24H6.3712a1.6142,1.6142,0,0,0-1.6094,1.6095v1.1755Z" fill="#595959" stroke="#1c1c1c" stroke-linecap="round" stroke-linejoin="round"/><path d="M22.2664,24.8443v1.18H26.84v-1.18A1.6047,1.6047,0,0,0,25.235,23.24H20.6617A1.6094,1.6094,0,0,1,22.2664,24.8443Z" fill="#4b4b4b" stroke="#1c1c1c" stroke-linecap="round" stroke-linejoin="round"/><rect x="3.3425" y="26.0247" width="24.5485" height="1.6959" rx="0.7239" ry="0.7239" fill="#595959" stroke="#1c1c1c" stroke-linecap="round" stroke-linejoin="round"/><path d="M26.84,33.2646v-.0018l-.0212-.0075Z" fill="#4b4b4b" stroke="#1c1c1c" stroke-linecap="round" stroke-linejoin="round"/><path d="M22.2664,36.0419l.1779.0051a1.5941,1.5941,0,0,0,1.6394-1.6149,2.1912,2.1912,0,0,1,.9184-1.8117l.0026.0183a7.435,7.435,0,0,1,.03-2.5615,1.3523,1.3523,0,0,1,1.4589-.895l.3462.047V27.7206H22.2664V34.485a1.6068,1.6068,0,0,1-.8378,1.4025Z" fill="#4b4b4b" stroke="#1c1c1c" stroke-linecap="round" stroke-linejoin="round"/><path d="M4.7618,27.7206V34.485a1.6142,1.6142,0,0,0,1.6094,1.6094H20.6569a1.6142,1.6142,0,0,0,1.6095-1.6094V27.7206Z" fill="#595959" stroke="#1c1c1c" stroke-linecap="round" stroke-linejoin="round"/><circle cx="19.7601" cy="50.8509" r="5.4453" fill="#fff" stroke="#1c1c1c" stroke-linecap="round" stroke-linejoin="round"/><circle cx="19.7601" cy="50.8509" r="1.3361" fill="#1c1c1c" stroke="#1c1c1c" stroke-linecap="round" stroke-linejoin="round"/><path d="M10.9169,38.9856h0a1.4668,1.4668,0,0,1-1.018-.4149L9.02,39.01a1.2387,1.2387,0,0,0-.403,1.8957A1.2386,1.2386,0,0,1,8.88,41.9127l-1.079,4.1384a1.1906,1.1906,0,0,0,1.152,1.491h0a1.1905,1.1905,0,0,0,1.0609-.65l3.8208-7.5042A10.866,10.866,0,0,0,10.9169,38.9856Z" fill="#4b4b4b" stroke="#1c1c1c" stroke-linecap="round" stroke-linejoin="round"/><path d="M58.0615,28.3869a32.6347,32.6347,0,0,0-5.817-4.2126l-.1834-.1042a1.1938,1.1938,0,0,0-1.7325,1.3828l.3638,1.2063a6.3985,6.3985,0,0,1-.049,3.85h0a47.53,47.53,0,0,0-1.8311,7.6213l-.4659,3.0159a1.2177,1.2177,0,0,1-1.1637,1.0311l-3.9865.13a2.173,2.173,0,0,1-1.5734-.6022l-1.3682-1.31a2.9491,2.9491,0,0,1-.9037-2.3171l.0548-.8625a3.0935,3.0935,0,0,1-.3335.13L34.3674,38.72l-.2935-.0322a17.2866,17.2866,0,0,1,1.2178,1.7387l2.3764,3.9452a2.8308,2.8308,0,0,0,2.4248,1.37H51.799a1.5514,1.5514,0,0,0,1.5358-1.7708l-.0657-.46a10.3037,10.3037,0,0,1,1.7931-7.4141l3.328-4.6965A2.2857,2.2857,0,0,0,58.0615,28.3869Z" fill="#323232" stroke="#1c1c1c" stroke-linecap="round" stroke-linejoin="round"/><path d="M40.8426,32.7067l-.729-1.169a3.5521,3.5521,0,0,0-3.1265-1.6705,52.8717,52.8717,0,0,1-8.789-.4537l-1.7045-.2313a1.3523,1.3523,0,0,0-1.4589.895,7.435,7.435,0,0,0-.03,2.5615h0l.55.17a17.3168,17.3168,0,0,1,8.5195,5.88l.2935.0322,4.7049-1.3741a3.0935,3.0935,0,0,0,.3335-.13h0a3.0951,3.0951,0,0,0,1.4368-4.5094Z" fill="#4b4b4b" stroke="#1c1c1c" stroke-linecap="round" stroke-linejoin="round"/><path d="M19.76,40.2892a9.996,9.996,0,0,0-3.6273.6825,1.229,1.229,0,0,0-.7972,1.14h0a1.1977,1.1977,0,0,0,1.61,1.13,8.1279,8.1279,0,0,1,10.899,6.7521.988.988,0,0,0,.9945.87l.03,0a1.0169,1.0169,0,0,0,1.0018-1.0885A10.1438,10.1438,0,0,0,19.76,40.2892Z" fill="#595959" stroke="#1c1c1c" stroke-linecap="round" stroke-linejoin="round"/><path d="M53.3453,44.32V44.319a1.552,1.552,0,0,1-1.5462,1.423H40.0929a2.8308,2.8308,0,0,1-2.4249-1.37l-2.3764-3.9452a17.2866,17.2866,0,0,0-1.2178-1.7387c-.06-.0771-.13-.1456-.192-.2215l-.3537.0894a63.4725,63.4725,0,0,1-11.4407,1.7713l.14.2778a10.1441,10.1441,0,0,1,7.6429,9.171,1.0168,1.0168,0,0,1-1.0017,1.0885l-.03,0a.988.988,0,0,1-.9944-.87c-.0049-.0455-.0169-.0886-.0226-.1339a7.6306,7.6306,0,0,1,.0208,1.8814l.0483.0957h2.7483a12.98,12.98,0,0,0,3.6863-.5345h0A16.1135,16.1135,0,0,1,31.42,47.9913l-.0952-.1445a.5955.5955,0,0,1,.5536-.92l3.12.2961q9.1126.865,18.2655,1.165a.7874.7874,0,0,0,.7912-.9612Z" fill="#4b4b4b" stroke="#1c1c1c" stroke-linecap="round" stroke-linejoin="round"/><circle cx="67.6034" cy="50.8691" r="8.1309" fill="#323232" stroke="#1c1c1c" stroke-linecap="round" stroke-linejoin="round"/><circle cx="67.6034" cy="50.8509" r="5.4453" fill="#fff" stroke="#1c1c1c" stroke-linecap="round" stroke-linejoin="round"/><circle cx="67.6034" cy="50.8509" r="1.3361" fill="#1c1c1c" stroke="#1c1c1c" stroke-linecap="round" stroke-linejoin="round"/><path d="M71.9177,40.6643l-2.183-.59a10.7283,10.7283,0,0,0-3.8092-.3246h0A10.7317,10.7317,0,0,0,61.4305,41.22l-1.9767,1.1807-.2579.3467a14.2105,14.2105,0,0,0-1.5592,2.6555,3.45,3.45,0,0,0,3.3216-.4584l2.9637-2.22,1.9787,5.1021a1.0879,1.0879,0,0,0,2.09-.5531l-.6243-4.2075a.6648.6648,0,0,1,.7466-.7564l.0016,0a8.2636,8.2636,0,0,0,3.8492-.395A.6556.6556,0,0,0,71.9177,40.6643Z" fill="#d40d12" stroke="#1c1c1c" stroke-linecap="round" stroke-linejoin="round"/><path d="M67.8577,50.4231l-5.653-11.7207-1.226,1.6483,5.2394,10.8632a.91.91,0,1,0,1.64-.7908Z" fill="#aab3b6" stroke="#1c1c1c" stroke-linecap="round" stroke-linejoin="round"/><path d="M48.8051,18.4943l.6433-3.5735A7.5974,7.5974,0,0,0,49.5,12.558h0" fill="none" stroke="#1c1c1c" stroke-linecap="round" stroke-linejoin="round"/><path d="M49.4117,12.7036l-.6587.6688a.18.18,0,0,1-.3077-.1287l.0571-3.9564a.18.18,0,0,1,.3315-.0936l.8155,1.2871A1.7971,1.7971,0,0,1,49.4117,12.7036Z" fill="#1c1c1c" stroke="#1c1c1c" stroke-linecap="round" stroke-linejoin="round"/><rect x="45.353" y="18.5975" width="4.3138" height="1.2105" rx="0.5167" ry="0.5167" transform="translate(-1.4685 4.1346) rotate(-4.9074)" fill="#1c1c1c" stroke="#1c1c1c" stroke-linecap="round" stroke-linejoin="round"/><path d="M67.0059,32.78a29.9682,29.9682,0,0,0-11.3335-9.8427l-1.9085-.95.9674-.2261a1.2968,1.2968,0,0,0,.7609-2.0153h0a13.3473,13.3473,0,0,0-2.78-2.8707l-.7294-.5557a1.2969,1.2969,0,0,0-1.5551-.0125,11.121,11.121,0,0,0-2.3147,2.3,2.6106,2.6106,0,0,0-.2292,2.7565,8.8271,8.8271,0,0,0,1.3643,1.95,4.2535,4.2535,0,0,0,1.2933.9531l.0648.031a1.1818,1.1818,0,0,1,.2711-.2243,1.1938,1.1938,0,0,1,1.1844-.0031l.1834.1042a32.6347,32.6347,0,0,1,5.817,4.2126,2.2857,2.2857,0,0,1,.3287,3.0139l-3.328,4.6965a10.3036,10.3036,0,0,0-1.8857,6.4254l.0935.9957.0647.4527a1.56,1.56,0,0,1,.01.3477V44.32l.71,3.1068a.7864.7864,0,0,1-.7925.9612q-9.148-.3-18.2642-1.165l-3.12-.2961a.5955.5955,0,0,0-.5536.92l.0952.1445a16.1156,16.1156,0,0,0,2.9368,3.3428,1.6962,1.6962,0,0,0,1.0714.411l19.0378.4031a1.9115,1.9115,0,0,0,1.9483-1.7934,14.2115,14.2115,0,0,1,2.7815-7.6072l3.9025-5.2467a1.464,1.464,0,0,0,.2893-.8737,1.464,1.464,0,0,1,1.1248-1.4242l1.7185-.4091A1.3081,1.3081,0,0,0,67.0059,32.78Z" fill="none" stroke="#1c1c1c" stroke-linecap="round" stroke-linejoin="round"/><path d="M25.5544,32.8082l-.55-.17-.0026-.0183a2.1912,2.1912,0,0,0-.9184,1.8117,1.5941,1.5941,0,0,1-1.6394,1.6149l-.1779-.0051-.8378-.1543a1.5857,1.5857,0,0,1-.7717.2069H10.255l-.365.3532a1.4767,1.4767,0,0,0,1.0269,2.5379h0a10.8692,10.8692,0,0,1,3.9411.74,11.293,11.293,0,0,0,3.1974.7276,9.8858,9.8858,0,0,1,1.7048-.1637,10.1206,10.1206,0,0,1,1.3949.1076,63.7274,63.7274,0,0,0,12.3731-1.841l.3575-.09A17.3023,17.3023,0,0,0,25.5544,32.8082Z" fill="none" stroke="#1c1c1c" stroke-linecap="round" stroke-linejoin="round"/><line x1="4.8447" y1="59" x2="46.398" y2="59" fill="#595959" stroke="#1c1c1c" stroke-linecap="round" stroke-linejoin="round"/><line x1="58.5493" y1="59" x2="76.6575" y2="59" fill="#595959" stroke="#1c1c1c" stroke-linecap="round" stroke-linejoin="round"/><rect x="8.0191" y="30.5907" width="11.3973" height="2.0687" rx="0.8103" ry="0.8103" fill="#fff"/></g></svg>