<svg xmlns="http://www.w3.org/2000/svg" viewBox="0 0 80 60"><title>classic-t</title><g style="isolation:isolate"><g id="icons"><path d="M26.26,45.0075l.5508-.4848a4.069,4.069,0,0,1,2.9052-1.0086l3.8611.2063a17.4526,17.4526,0,0,0,5.709-.6616,14.35,14.35,0,0,1,.1673-3.7141l.1133-.6342a1.3558,1.3558,0,0,1-.6252-.0589l-6.3366-2.1662a22.2608,22.2608,0,0,0-8.0313-1.1815,19.146,19.146,0,0,1-5.195-.5185,1.3332,1.3332,0,0,1-.3089-.1164,1.3076,1.3076,0,0,1-.5865-.6334h0L16.52,35.6175a28.0421,28.0421,0,0,0-5.5245,5.9678h0a.38.38,0,0,0,.2878.5943l7.3146.4962a17.73,17.73,0,0,1,7.6686,2.353Z" fill="#ff1d23"/><g style="mix-blend-mode:multiply"><path d="M22.4493,36.8034l1.8594-1.4988a19.1423,19.1423,0,0,1-4.93-.5193,1.3332,1.3332,0,0,1-.3089-.1164,1.3076,1.3076,0,0,1-.5865-.6334h0L16.52,35.6175a28.0421,28.0421,0,0,0-5.5245,5.9678h0a.38.38,0,0,0,.2878.5943l5.7887.3927A28.0354,28.0354,0,0,1,22.4493,36.8034Z" fill="#d40d12"/></g><rect x="42.783" y="21.7554" width="4.8721" height="2.1916" rx="0.9248" ry="0.9248" transform="matrix(0.866, -0.5, 0.5, 0.866, -5.3674, 25.671)" fill="#595959" stroke="#1c1c1c" stroke-linecap="round" stroke-linejoin="round"/><circle cx="66.8862" cy="51.7364" r="7.2636" fill="#323232" stroke="#1c1c1c" stroke-linecap="round" stroke-linejoin="round"/><circle cx="66.8862" cy="51.7364" r="5.4333" fill="#fff" stroke="#1c1c1c" stroke-linecap="round" stroke-linejoin="round"/><circle cx="18.9561" cy="51.7635" r="7.2365" fill="#323232" stroke="#1c1c1c" stroke-linecap="round" stroke-linejoin="round"/><path d="M5.9327,33.5249h4.7294a11.7122,11.7122,0,0,0,4.9081-1.078h0a1.6335,1.6335,0,0,1,.6845-.15h.07A1.6335,1.6335,0,0,0,17.887,31.14h0a11.9912,11.9912,0,0,0-.15-7.4654h0a2.5607,2.5607,0,0,0-2.4679-1.7143l-10.64.2117a1.7317,1.7317,0,0,0-1.6084,1.1837h0a1.7317,1.7317,0,0,1-.2662.503h0a5.715,5.715,0,0,0-.9035,5.1978l.9294,2.9247a2.2134,2.2134,0,0,0,2.11,1.5431Z" fill="#595959" stroke="#1c1c1c" stroke-linecap="round" stroke-linejoin="round"/><path d="M19.07,34.6689h0a1.3332,1.3332,0,0,0,.3089.1164h0a19.1455,19.1455,0,0,0,5.195.5185h0a22.261,22.261,0,0,1,8.0313,1.1815l6.3365,2.1663a1.3687,1.3687,0,0,0,1.8114-1.2951h0a1.3687,1.3687,0,0,0-.2065-.7228L38.75,33.7461A5.57,5.57,0,0,0,37.31,32.1926h0a4.16,4.16,0,0,0-2.6782-.7969l-2.6522.1414a59.5917,59.5917,0,0,1-9.9018-.2965h0a3.6637,3.6637,0,0,0-2.75.8185l-.4869.4032A1.3332,1.3332,0,0,0,19.07,34.6689Z" fill="#595959" stroke="#1c1c1c" stroke-linecap="round" stroke-linejoin="round"/><path d="M13.2045,38.7262l.1919-.1587a28.0377,28.0377,0,0,1,3.1237-2.95l1.9626-1.582h0c.0111.0246.0319.0443.0443.0684a1.3223,1.3223,0,0,1,.0124-1.2706l-1.2151-.8816-.0034-.0007a1.6253,1.6253,0,0,1-.9965.3456h-.07a1.6333,1.6333,0,0,0-.5771.1053,13.907,13.907,0,0,1-4.8851,1.123H6.7442v.57a1.1572,1.1572,0,0,0,1.1572,1.1572H9.3128a3.3707,3.3707,0,0,1,2.962,1.7619Z" fill="#1c1c1c" stroke="#1c1c1c" stroke-linecap="round" stroke-linejoin="round"/><circle cx="18.9561" cy="51.7635" r="5.0797" fill="#aab3b6" stroke="#1c1c1c" stroke-linecap="round" stroke-linejoin="round"/><path d="M34.2928,53.3992,31.7,49.8721a17.3193,17.3193,0,0,0-1.4264-1.6787l-3.4379.5106a39.0413,39.0413,0,0,1-8.3829.3337,2.9134,2.9134,0,1,0,0,5.8269c.0557,0,.337-.0573.7506-.1487A52.7508,52.7508,0,0,1,30.5837,53.46H35.62Z" fill="#d40d12" stroke="#1c1c1c" stroke-linecap="round" stroke-linejoin="round"/><path d="M11.2834,42.18a.3723.3723,0,0,1-.3116-.5255l-.0149.0022-.2157.5038A2.3093,2.3093,0,0,1,9.34,43.5424a2.31,2.31,0,0,0-1.0577.7622L7.2583,45.6232A7.391,7.391,0,0,0,5.74,49.435l.9607.25,3.99-4.1249a10.8874,10.8874,0,0,1,5.4252-3.05l-.0012-.003Z" fill="#4b4b4b" stroke="#1c1c1c" stroke-linecap="round" stroke-linejoin="round"/><circle cx="66.8862" cy="51.4222" r="2.7094" fill="#aab3b6" stroke="#1c1c1c" stroke-linecap="round" stroke-linejoin="round"/><path d="M52.6217,50.4426,39.7795,50.21a28.3054,28.3054,0,0,1-6.2645-.8184l-.5475-.135,6.8112-.3349a.6728.6728,0,0,0,.63-.7829.6649.6649,0,0,1,.6157-.7693l-.7792-.1984a14.3472,14.3472,0,0,1-.96-4.1129,17.4526,17.4526,0,0,1-5.709.6616l-3.8611-.2063a4.069,4.069,0,0,0-2.9052,1.0086l-.5508.4848.0068.0214A17.73,17.73,0,0,1,31.7,49.8721l2.5932,3.5271,6.6565.3042,3.3667.0318a18.5876,18.5876,0,0,0,6.2334-1.0142h0a4.5041,4.5041,0,0,0,1.6363-1.0119Z" fill="#4b4b4b" stroke="#1c1c1c" stroke-linecap="round" stroke-linejoin="round"/><path d="M61.1845,44.112l4.7364,7.5046a.9677.9677,0,0,0,1.3348.3019h0a.9677.9677,0,0,0,.3019-1.3348L62.75,42.9669A12.4968,12.4968,0,0,0,61.1845,44.112Z" fill="#aab3b6" stroke="#1c1c1c" stroke-linecap="round" stroke-linejoin="round"/><path d="M53.3877,23.7475h0a1.4287,1.4287,0,0,1,1.0595.47l4.5115,4.9867,1.85,2.0826a10.8864,10.8864,0,0,1,1.7871,2.76h0a1.0361,1.0361,0,0,1-.7872,1.4494h0a1.0361,1.0361,0,0,0-.8343.7246l-1.2177,4.0337a53.1686,53.1686,0,0,1-3.0089,7.7286h0a14.322,14.322,0,0,1-3.77,4.8377,1.8052,1.8052,0,0,1-.2921.22,7.18,7.18,0,0,1-.5084-1.3041l1.6513-4.798a78.6291,78.6291,0,0,0,2.2595-7.8774h0a10.7689,10.7689,0,0,0-1.2089-7.8837l-1.6392-2.788L52.35,27.0079a2.7447,2.7447,0,0,1-.3405-2.2072h0A1.4287,1.4287,0,0,1,53.3877,23.7475Z" fill="#ff1d23" stroke="#1c1c1c" stroke-linecap="round" stroke-linejoin="round"/><path d="M54.8784,31.1773l-1.6392-2.788L52.35,27.008a2.7449,2.7449,0,0,1-.3406-2.2073,1.4087,1.4087,0,0,1,.1624-.3532l-.0043-.0061-3.0585,1.9656a1.0829,1.0829,0,0,0-.3271,1.494l1.1465,1.7945a15.2643,15.2643,0,0,1,2.2665,10.2413L51.28,46.7791l.0029.0016a.9193.9193,0,0,1,.73-.0484l.1759.0648a.934.934,0,0,0,.19.0482l.7776.1114a.9044.9044,0,0,1,.5539.3221l-.2353.6836h0l.3524-1.024a78.6224,78.6224,0,0,0,2.2595-7.8775A10.7688,10.7688,0,0,0,54.8784,31.1773Z" fill="#d40d12" stroke="#1c1c1c" stroke-linecap="round" stroke-linejoin="round"/><path d="M53.7106,47.2788a.9044.9044,0,0,0-.5539-.3221l-.7776-.1114a.934.934,0,0,1-.19-.0482l-.1759-.0648a.9326.9326,0,0,0-1.1532.4511.9327.9327,0,0,1-.8659.508l-8.8958-.3354a.6727.6727,0,0,0-.6889.7831.6728.6728,0,0,1-.63.7829l-6.8112.3349.5475.135a28.3054,28.3054,0,0,0,6.2645.8184l12.8422.2321Z" fill="#323232" stroke="#1c1c1c" stroke-linecap="round" stroke-linejoin="round"/><path d="M70.4166,40.2156A20.064,20.064,0,0,0,63.35,36.8287l-2.3764-.6078-1.2177,4.0337a53.1769,53.1769,0,0,1-3.0088,7.7286,14.7019,14.7019,0,0,1-1.1287,1.9109l-.0071.0448,4.5867-4.893a12.5168,12.5168,0,0,1,8.21-3.9228l1.7812-.1316A.4316.4316,0,0,0,70.4166,40.2156Z" fill="#d40d12" stroke="#1c1c1c" stroke-linecap="round" stroke-linejoin="round"/><path d="M1.588,27.411H13.21a25.98,25.98,0,0,0,3.9492-.3019l1.2508-.1924" fill="none" stroke="#1c1c1c" stroke-linecap="round" stroke-linejoin="round"/><rect x="16.8379" y="38.0659" width="10.5793" height="1.9202" rx="0.8103" ry="0.8103" fill="#fff"/><path d="M47.4748,18.5084l.6507-3.6149a7.6854,7.6854,0,0,0,.0524-2.39h0" fill="none" stroke="#1c1c1c" stroke-linecap="round" stroke-linejoin="round"/><path d="M48.0884,12.6506l-.6663.6766a.1818.1818,0,0,1-.3113-.13l.0577-4.0022A.1818.1818,0,0,1,47.5039,9.1l.8249,1.302A1.8179,1.8179,0,0,1,48.0884,12.6506Z" fill="#1c1c1c" stroke="#1c1c1c" stroke-linecap="round" stroke-linejoin="round"/><path d="M44.7318,19.7159v-.6313a1.2954,1.2954,0,0,0-.5815-1.0809h0a1.2954,1.2954,0,0,1-.5815-1.0809v-.0375" fill="none" stroke="#1c1c1c" stroke-linecap="round" stroke-linejoin="round"/><path d="M44.0133,15.6948,43.722,14.262c-.0177-.14-.0627-.2334-.137-.2612-.2464-.0923-.7193.5621-1.0561,1.4616s-.41,1.7035-.1638,1.7958a.2286.2286,0,0,0,.2046-.0513l.9732-.5161A.92.92,0,0,0,44.0133,15.6948Z" fill="#1c1c1c" stroke="#1c1c1c" stroke-linecap="round" stroke-linejoin="round"/><path d="M50.2834,19.8526a2.9476,2.9476,0,0,1,.0363-.36,1.085,1.085,0,0,1-.212-1.5307l.4609-.5914a1.0634,1.0634,0,0,0-1.59-1.4065,8.3674,8.3674,0,0,0-2.4141,5.074l-.0835.8176.211.3467a5.1359,5.1359,0,0,1,.7,1.9628,5.1375,5.1375,0,0,0,.6185,1.8242l.8936,1.577,3.703-3.5814L52.0859,22.6A2.9971,2.9971,0,0,1,50.2834,19.8526Z" fill="#323232" stroke="#1c1c1c" stroke-linecap="round" stroke-linejoin="round"/><path d="M52.8142,16.854H54.45a0,0,0,0,1,0,0v5.9971a0,0,0,0,1,0,0H52.8142A2.5307,2.5307,0,0,1,50.2835,20.32v-.9357A2.5307,2.5307,0,0,1,52.8142,16.854Z" fill="#595959" stroke="#1c1c1c" stroke-linecap="round" stroke-linejoin="round"/><rect x="43.6812" y="19.6882" width="4.8721" height="2.1916" rx="0.9248" ry="0.9248" transform="translate(-4.4361 19.0127) rotate(-22.2533)" fill="#595959" stroke="#1c1c1c" stroke-linecap="round" stroke-linejoin="round"/><path d="M47.0455,21.8207h0a1.4884,1.4884,0,0,1,1.0715.0184l.9764.3962" fill="none" stroke="#1c1c1c" stroke-linecap="round" stroke-linejoin="round"/><circle cx="49.2606" cy="22.3213" r="0.1881" transform="translate(6.8755 55.9122) rotate(-62.7739)" fill="none" stroke="#1c1c1c" stroke-linecap="round" stroke-linejoin="round"/><path d="M26.26,45.0075l.5508-.4848a4.069,4.069,0,0,1,2.9052-1.0086l3.8611.2063a17.4526,17.4526,0,0,0,5.709-.6616,14.35,14.35,0,0,1,.1673-3.7141l.1133-.6342a1.3558,1.3558,0,0,1-.6252-.0589l-6.3366-2.1662a22.2608,22.2608,0,0,0-8.0313-1.1815,19.146,19.146,0,0,1-5.195-.5185,1.3332,1.3332,0,0,1-.3089-.1164,1.3076,1.3076,0,0,1-.5865-.6334h0L16.52,35.6175a28.0421,28.0421,0,0,0-5.5245,5.9678h0a.38.38,0,0,0,.2878.5943l7.3146.4962a17.73,17.73,0,0,1,7.6686,2.353Z" fill="none" stroke="#1c1c1c" stroke-linecap="round" stroke-linejoin="round"/><line x1="5.7403" y1="59" x2="35.9165" y2="59" fill="#595959" stroke="#1c1c1c" stroke-linecap="round" stroke-linejoin="round"/><line x1="55.3556" y1="59" x2="78.4168" y2="59" fill="#595959" stroke="#1c1c1c" stroke-linecap="round" stroke-linejoin="round"/></g></g></svg>