<?xml version="1.0" encoding="utf-8"?>
<!-- Generator: Adobe Illustrator 22.0.1, SVG Export Plug-In . SVG Version: 6.00 Build 0)  -->
<svg version="1.1" id="Layer_1" xmlns="http://www.w3.org/2000/svg" xmlns:xlink="http://www.w3.org/1999/xlink" x="0px" y="0px"
	 viewBox="0 0 80 60" style="enable-background:new 0 0 80 60;" xml:space="preserve">
<style type="text/css">
	.st0{fill:#FF1D23;}
	.st1{fill:#D40D12;}
	.st2{fill:#FFFFFF;stroke:#1C1C1C;stroke-width:1.0826;stroke-linecap:round;stroke-linejoin:round;stroke-miterlimit:10;}
	.st3{fill:#323232;stroke:#1C1C1C;stroke-width:1.0826;stroke-linecap:round;stroke-linejoin:round;stroke-miterlimit:10;}
	.st4{fill:#AAB3B6;stroke:#1C1C1C;stroke-width:1.0826;stroke-linecap:round;stroke-linejoin:round;stroke-miterlimit:10;}
	.st5{fill:#595959;stroke:#1C1C1C;stroke-width:1.0826;stroke-linecap:round;stroke-linejoin:round;stroke-miterlimit:10;}
	.st6{fill:#4B4B4B;stroke:#1C1C1C;stroke-width:1.0826;stroke-linecap:round;stroke-linejoin:round;stroke-miterlimit:10;}
	.st7{fill:none;stroke:#1C1C1C;stroke-width:1.0826;stroke-linecap:round;stroke-linejoin:round;stroke-miterlimit:10;}
	.st8{fill:#1C1C1C;stroke:#1C1C1C;stroke-width:1.0826;stroke-linecap:round;stroke-linejoin:round;stroke-miterlimit:10;}
	.st9{fill:#FFFFFF;}
</style>
<title>scoot-t</title>
<path class="st0" d="M60,21.9c-0.5-0.7-1.1-1.2-1.8-1.7l-6.8-4.4c-2.7-1.8-5.7-3.2-8.7-4.4c-3.5-1.3-7.1-2.1-10.8-2.4l-0.4,0
	c-2.1-0.2-4.2-0.2-6.3-0.1L14.6,9.4c-1.3,0.1-2.4,1-2.7,2.2l-0.4,1.6c-0.2,0.9-0.7,1.7-1.3,2.4c-0.9,1-1.5,2.3-1.5,3.7v0.6
	c0,0.7,0.2,1.4,0.5,2c0.3,0.6,0.5,1.3,0.5,2v6.1c0.6-0.3,1.2-0.5,1.9-0.5H14c1.4,0,2.7,0.5,3.7,1.5l9.1,9c1.6,1.6,3.7,2.4,5.9,2.5
	l11.9,0.1c1.5,0,3-0.4,4.4-1.2c1-0.6,1.9-1.4,2.6-2.3l6.3-8.8c0.5-0.8,1.4-1.2,2.4-1.2c0.4,0,0.8,0.1,1.1,0.2l0.2-1.8
	C61.8,25.4,61.2,23.4,60,21.9z M56.6,26l-0.7,0c0.3,0.7,0.3,1.5-0.1,2.2c-0.1,0.1-0.1,0.1-0.2,0.2c-1.6,3.5-3.7,6.8-6.3,9.6
	l-0.2,0.2c-0.9,0.9-2,1.6-3.2,2c-0.7,0.2-1.5,0.3-2.2,0.3L36,40.4c-1,0-2.1-0.2-3.1-0.5c-1.8-0.6-3.4-1.6-4.6-3L24,32.1
	c-1-0.3-2-0.9-2.6-1.8l-2-2.8c-0.5-0.7-0.6-2-0.6-1.9l0,0l-1.3-2.5c-1.1-2-0.8-4.5,0.6-6.2c0.9-1.1,1.9-2.1,3.1-2.9
	c1.6-1.1,3.4-1.9,5.4-2.3c0.9-0.2,1.8-0.3,2.8-0.3h2.2c2.3,0,4.5,0.3,6.7,0.9c1.8,0.5,3.6,1.2,5.4,2c1.7,0.8,3.3,1.6,4.8,2.6
	l0.6,0.4c1.7,1.1,3.4,2.3,5,3.6c1.3,1.1,2.5,2.4,3.4,3.9C57.6,25.3,57.2,26,56.6,26z"/>
<g>
	<path class="st1" d="M52.2,37.5c-2.4,2-5.5,3.1-8.6,3.1h0L36,40.4c-1,0-2.1-0.2-3.1-0.5c-1.8-0.6-3.4-1.6-4.6-3L24,32.1
		c-1-0.3-2-0.9-2.6-1.8l-2-2.8c0,0-0.1-0.1-0.1-0.1c0,0,0,0-0.1,0c-3-0.2-5.3-2.6-5.3-5.6l0-0.1c0-0.7-0.2-1.3-0.5-2
		c-0.3-0.6-0.5-1.3-0.5-2l0-0.5c0-1.4,0.4-2.7,1.4-3.7c0.7-0.7,1.1-1.5,1.4-2.4l0.4-1.6c0-0.1,0-0.1,0-0.1l-1.7,0.1
		c-1.3,0.1-2.4,1-2.7,2.2l-0.5,1.9c-0.2,0.8-0.7,1.5-1.3,2.1c-0.9,1-1.5,2.3-1.5,3.7l0,0.6c0,0.7,0.2,1.3,0.5,2
		c0.3,0.6,0.5,1.3,0.5,2l0,6.1c0.6-0.3,1.2-0.5,1.9-0.5H14c1.4,0,2.7,0.5,3.7,1.5l9.1,9c1.6,1.6,3.7,2.4,5.9,2.5l11.9,0.1
		c5.9-0.2,8.5-5.7,8.5-5.7L52.2,37.5z"/>
	<polygon class="st1" points="61.3,29.2 61.3,29.2 61.3,29.2 	"/>
</g>
<path class="st0" d="M54.8,25c-0.8-0.3-1.6-0.5-2.5-0.6c0.1,0.4-0.2,0.9-0.7,0.9l-2.8-0.2c-0.3,0-0.5-0.2-0.6-0.4L48,24.1l-24.6-2
	c-0.8-0.1-1.5,0-2.2,0.2c-1.3,0.4-2.2,1.5-2.4,2.8c-0.1,0.8,0.1,1.7,0.6,2.4l2,2.8c1,1.4,2.6,2.1,4.3,1.9l6.2-0.7
	c6.7-0.7,13.4-1.2,20.1-1.4c1.5,0,2.9-0.8,3.8-2.1C56.5,27,56.1,25.5,54.8,25z"/>
<path class="st1" d="M53.1,27c-6.7,0.2-13.4,0.7-20.1,1.4L26.8,29c-1.7,0.2-3.3-0.6-4.3-1.9l-2-2.8c-0.3-0.4-0.5-0.8-0.6-1.3
	c-0.6,0.5-1,1.3-1.1,2.1c-0.1,0.8,0.1,1.7,0.6,2.4l2,2.8c1,1.4,2.6,2.1,4.3,1.9l6.2-0.7c6.7-0.7,13.4-1.2,20.1-1.4
	c1.5,0,2.9-0.8,3.8-2.1c0.5-0.7,0.5-1.5,0.1-2.2C55.1,26.6,54.1,27,53.1,27z"/>
<path class="st2" d="M57.3,24.8c-0.9-1.5-2.1-2.8-3.4-3.9c-1.6-1.3-3.2-2.5-5-3.6L48.4,17c-1.5-1-3.1-1.9-4.8-2.6
	c-1.7-0.8-3.5-1.5-5.4-2c-2.2-0.6-4.4-0.9-6.7-0.9h-2.2c-0.9,0-1.9,0.1-2.8,0.3c-1.9,0.4-3.8,1.2-5.4,2.3c-1.2,0.8-2.2,1.8-3.1,2.9
	c-1.5,1.8-1.7,4.2-0.6,6.2l1.3,2.5l0,0c0-0.2,0-0.4,0-0.5c0.2-1.3,1.1-2.4,2.4-2.8c0.7-0.2,1.5-0.3,2.2-0.2l24.6,2l-0.5-1.4l0,0
	l-0.5,0c-0.9-0.1-1.6-0.9-1.5-1.8c0.1-0.9,0.9-1.6,1.8-1.5l1.2,0.1c0.9,0.1,1.6,0.9,1.5,1.8c0,0.2-0.1,0.3-0.1,0.5h0l2.4,2.4
	c0.1,0.1,0.1,0.2,0.2,0.3c0.8,0.1,1.7,0.3,2.5,0.6c0.5,0.2,0.9,0.6,1.1,1l0.7,0C57.2,26,57.6,25.3,57.3,24.8z"/>
<circle class="st3" cx="64.7" cy="43.4" r="8.1"/>
<circle class="st3" cx="12.7" cy="43.4" r="8.1"/>
<circle class="st4" cx="12.7" cy="43.4" r="5.4"/>
<path class="st5" d="M14.1,33.2c-3-0.4-5.7,0.5-7.8,2.1C5.5,36,6,37.3,7,37.3h0c0.2,0,0.5-0.1,0.7-0.2c1.6-1.3,3.8-2,6.1-1.7
	c3.2,0.4,5.9,2.7,6.7,5.8c0.4,1.3,0.4,2.5,0.2,3.7c-0.1,0.7,0.4,1.3,1.1,1.3h0c0.5,0,1-0.4,1.1-0.9c0.3-1.8,0.2-3.7-0.6-5.7
	C20.9,36.3,17.8,33.7,14.1,33.2z"/>
<circle class="st4" cx="64.7" cy="43.4" r="5.4"/>
<path class="st5" d="M57.7,39.4c1.3-2.3,3.7-3.9,6.3-4.1c2.6-0.2,5,0.8,6.6,2.5c0.2,0.2,0.5,0.4,0.8,0.4l0,0c0.9,0,1.4-1.1,0.8-1.8
	c-1.9-2-4.6-3.3-7.5-3.3c-5.7,0-10.3,4.6-10.3,10.3c0,0.2,0,0.3,0,0.5c0,0.6,0.5,1,1.1,1h0c0.6,0,1.1-0.5,1.1-1.2
	C56.5,42.4,56.8,41,57.7,39.4z"/>
<path class="st6" d="M64.7,33.1c0.6,0,1.2,0.1,1.7,0.2c-1-1.1-2.1-2.1-3.4-3l-1.2-0.8c-0.5-0.3-1.1-0.5-1.7-0.5
	c-0.9,0-1.8,0.5-2.4,1.2L51.5,39c-0.7,1-1.6,1.7-2.6,2.3c-1.3,0.8-2.8,1.2-4.4,1.2l-11.9-0.1c-2.2,0-4.3-0.9-5.9-2.5l-9.1-9
	c-1-1-2.3-1.5-3.7-1.5h-2.5c-1.2,0-2.3,0.5-3,1.4c-0.6,0.7-0.9,1.5-0.9,2.4v1.2c1.5-0.9,3.2-1.4,5.1-1.4c5.7,0,10.3,4.6,10.3,10.3
	c0,0.5,0,1-0.1,1.5h20.7c2,0,4-0.4,5.8-1.2h0c1.2-0.5,2.6-0.8,3.9-0.8h1.2C54.7,37.5,59.2,33.1,64.7,33.1z"/>
<path class="st5" d="M52.1,24.1l-2.4-2.4h0c0.1-0.2,0.1-0.3,0.1-0.5c0.1-0.9-0.6-1.7-1.5-1.8l-1.2-0.1c-0.9-0.1-1.7,0.6-1.8,1.5
	c-0.1,0.9,0.6,1.7,1.5,1.8l0.5,0l0,0l0.8,2c0.1,0.3,0.3,0.4,0.6,0.4l2.8,0.2C52.2,25.4,52.6,24.6,52.1,24.1z"/>
<line class="st5" x1="49.1" y1="51.5" x2="74.5" y2="51.5"/>
<line class="st5" x1="3.7" y1="51.5" x2="35.2" y2="51.5"/>
<path class="st7" d="M60,21.9c-0.5-0.7-1.1-1.2-1.8-1.7l-6.8-4.4c-2.7-1.8-5.7-3.2-8.7-4.4c-3.5-1.3-7.1-2.1-10.8-2.4l-0.4,0
	c-2.1-0.2-4.2-0.2-6.3-0.1L14.6,9.4c-1.3,0.1-2.4,1-2.7,2.2l-0.4,1.6c-0.2,0.9-0.7,1.7-1.3,2.4c-0.9,1-1.5,2.3-1.5,3.7v0.6
	c0,0.7,0.2,1.4,0.5,2c0.3,0.6,0.5,1.3,0.5,2v6.1c0.6-0.3,1.2-0.5,1.9-0.5H14c1.4,0,2.7,0.5,3.7,1.5l9.1,9c1.6,1.6,3.7,2.4,5.9,2.5
	l11.9,0.1c1.5,0,3-0.4,4.4-1.2c1-0.6,1.9-1.4,2.6-2.3l6.3-8.8c0.5-0.8,1.4-1.2,2.4-1.2c0.4,0,0.8,0.1,1.1,0.2l0.2-1.8
	C61.8,25.4,61.2,23.4,60,21.9z M56.6,26l-0.7,0c0.3,0.7,0.3,1.5-0.1,2.2c-0.1,0.1-0.1,0.1-0.2,0.2c-1.6,3.5-3.7,6.8-6.3,9.6
	l-0.2,0.2c-0.9,0.9-2,1.6-3.2,2c-0.7,0.2-1.5,0.3-2.2,0.3L36,40.4c-1,0-2.1-0.2-3.1-0.5c-1.8-0.6-3.4-1.6-4.6-3L24,32.1
	c-1-0.3-2-0.9-2.6-1.8l-2-2.8c-0.5-0.7-0.6-2-0.6-1.9l0,0l-1.3-2.5c-1.1-2-0.8-4.5,0.6-6.2c0.9-1.1,1.9-2.1,3.1-2.9
	c1.6-1.1,3.4-1.9,5.4-2.3c0.9-0.2,1.8-0.3,2.8-0.3h2.2c2.3,0,4.5,0.3,6.7,0.9c1.8,0.5,3.6,1.2,5.4,2c1.7,0.8,3.3,1.6,4.8,2.6
	l0.6,0.4c1.7,1.1,3.4,2.3,5,3.6c1.3,1.1,2.5,2.4,3.4,3.9C57.6,25.3,57.2,26,56.6,26z"/>
<path class="st7" d="M54.8,25c-0.8-0.3-1.6-0.5-2.5-0.6c0.1,0.4-0.2,0.9-0.7,0.9l-2.8-0.2c-0.3,0-0.5-0.2-0.6-0.4L48,24.1l-24.6-2
	c-0.8-0.1-1.5,0-2.2,0.2c-1.3,0.4-2.2,1.5-2.4,2.8c-0.1,0.8,0.1,1.7,0.6,2.4l2,2.8c1,1.4,2.6,2.1,4.3,1.9l6.2-0.7
	c6.7-0.7,13.4-1.2,20.1-1.4c1.5,0,2.9-0.8,3.8-2.1C56.5,27,56.1,25.5,54.8,25z"/>
<g>
	<path class="st3" d="M23.4,16.9c0.9-1.1,1.9-2.1,3.1-2.9c1.6-1.1,3.4-1.9,5.4-2.3c0.5-0.1,0.9-0.2,1.4-0.2c-0.6,0-1.2-0.1-1.8-0.1
		h-2.2c-0.9,0-1.9,0.1-2.8,0.3c-1.9,0.4-3.8,1.2-5.4,2.3c-1.2,0.8-2.2,1.8-3.1,2.9c-1.5,1.8-1.7,4.2-0.6,6.2l1.3,2.5l0,0
		c0-0.2,0-0.4,0-0.5c0.2-1.3,1.1-2.4,2.4-2.8c0.4-0.1,0.8-0.2,1.2-0.2C21.9,20.3,22.2,18.3,23.4,16.9z"/>
</g>
<path class="st3" d="M52,30.2c-6.7,0.2-13.4,0.7-20.1,1.4l-6.2,0.7c-0.6,0.1-1.1,0-1.7-0.1l4.3,4.8c1.2,1.4,2.8,2.4,4.6,3
	c1,0.3,2,0.5,3.1,0.5l7.6,0.1c0.8,0,1.5-0.1,2.2-0.3c1.2-0.4,2.3-1.1,3.2-2l0.2-0.2c2.6-2.8,4.7-6.1,6.3-9.6
	C54.7,29.5,53.4,30.2,52,30.2z"/>
<circle class="st8" cx="64.7" cy="43.4" r="1.3"/>
<path class="st9" d="M35,26.9h-8c-0.5,0-0.9-0.4-0.9-0.9v0c0-0.5,0.4-0.9,0.9-0.9h8c0.5,0,0.9,0.4,0.9,0.9v0
	C35.9,26.5,35.5,26.9,35,26.9z"/>
</svg>
