<svg xmlns="http://www.w3.org/2000/svg" viewBox="0 0 80 60"><title>scoot-t</title><g style="isolation:isolate"><g id="icons"><path d="M60.6156,35.289,55.4921,29.42l-1.2767,5.9063a78.4924,78.4924,0,0,1-3.4016,11.4409l-1.22,1.22a5.5268,5.5268,0,0,1-3.0795,1.5563h0a48.6987,48.6987,0,0,1-5.2025.5051l-2.014.0869a11.0276,11.0276,0,0,1-4.466-.7372h0a.6047.6047,0,0,1-.2717-.9172l.8489-1.178A34.0783,34.0783,0,0,0,39.5261,38.44l.3093-1.0327a2.8679,2.8679,0,0,0,.1205-.8227v-.242a2.8678,2.8678,0,0,0-2.0787-2.7571L31.56,31.7775q-4.4165-1.2641-8.9117-2.2231c-.1222,0-.2445-.0029-.3668-.0105h0a60.5361,60.5361,0,0,1-7.9373-1.0233l-4.4888-.8836a32.2562,32.2562,0,0,1-4.3968-1.4505,1.0025,1.0025,0,0,0-1.3458.73h0a1.0051,1.0051,0,0,0,.58,1.1278h0A44.5413,44.5413,0,0,0,12.64,30.6657l6.9888,1.5959a11.2984,11.2984,0,0,1,8.7626,10.3333l.2674,4.425.0005.0009a3.71,3.71,0,1,0,4.7413,5.5368H45.4983a29.8593,29.8593,0,0,0,4.079-.28h0a7.4977,7.4977,0,0,0,5.9678-4.7207l3.9168-10.118a2.2294,2.2294,0,0,1,.6334-.8923l.456-.3885A.6125.6125,0,0,0,60.6156,35.289Z" fill="#ff1d23"/><path d="M60.7387,35.2407l-1.4933-1.6484h0L56.0417,30.056l-.9355.677-.7787,3.4714-.0059.0862a1.6889,1.6889,0,0,1,2.617-.3154h0a3.48,3.48,0,0,1,.8442,3.6664L54.887,45.6584a8.9309,8.9309,0,0,1-7.43,5.7569l-7.5759.87v.2518h5.1449a32.1859,32.1859,0,0,0,4.24-.28h0a7.9152,7.9152,0,0,0,4.3092-2.0007,7.4985,7.4985,0,0,0,1.8935-2.7276L59.54,37.394a2.2362,2.2362,0,0,1,.6583-.8937l.474-.3891A.5983.5983,0,0,0,60.7387,35.2407Z" fill="#d40d12" style="mix-blend-mode:multiply"/><path d="M38.728,34.3754l-.073.7167a25.7959,25.7959,0,0,1-4.37,11.416,2.1163,2.1163,0,0,1-2.5132.7367l-.0152-.0059c-.0272-.01-.0576-.02-.0907-.03a2.0161,2.0161,0,0,1-1.4449-1.8133q-.0233-.4056-.0545-.8109l-.1393-1.8028c-.0328-.1777-.0676-.4033-.1047-.6633a15.455,15.455,0,0,0-4.9437-9.2526h0a6.0611,6.0611,0,0,0-.7778-.5559c-.634-.397-1.248-.8241-1.8547-1.2618A13.5357,13.5357,0,0,0,19.5295,29.31c-.6242-.09-1.5164-.1659-2.3106-.2949-4.4286-.7191-8.7711-1.0743-12.8783-2.88L4.3,26.117l.0864,1.6773,6.4071,2.4062,6.3887,1.4443c6.5758,1.2131,10.9484,6.0576,11.3521,12.5775l.1868,3.0176.0005.0009a3.5181,3.5181,0,0,0-1.8113,3.2583,3.5789,3.5789,0,0,0,2.9522,3.2819c.0117-.0813.0222-.1628.0334-.2441a3.4552,3.4552,0,0,0,.6325.0589,3.4026,3.4026,0,0,0,2.4069-.9891v.3373a3.6123,3.6123,0,0,0,.416-.4264h.0458a5.4,5.4,0,0,0,1.28-3.0441.5686.5686,0,0,1-.1933-.8409l.8289-1.1227a32.1251,32.1251,0,0,0,4.02-8.4468l.302-.9842a2.6725,2.6725,0,0,0,.1177-.7841v-.2306A3.8271,3.8271,0,0,0,38.728,34.3754Z" fill="#d40d12" style="mix-blend-mode:multiply"/><path d="M19.6291,32.2615,12.64,30.6657A44.536,44.536,0,0,1,6.2679,28.69l.6778,5.2659a1.8358,1.8358,0,0,0,1.6166,1.59L26.6581,37.572a14.9717,14.9717,0,0,0-1.5872-2.3132A11.274,11.274,0,0,0,19.6291,32.2615Z" fill="#323232" stroke="#1c1c1c" stroke-linecap="round" stroke-linejoin="round"/><path d="M60.5728,40.6644h1.7651a0,0,0,0,1,0,0v8.2522a.7865.7865,0,0,1-.7865.7865h-.1921a.7865.7865,0,0,1-.7865-.7865V40.6644A0,0,0,0,1,60.5728,40.6644Z" transform="translate(-11.4676 22.8103) rotate(-19.2679)" fill="#aab3b6" stroke="#1c1c1c" stroke-linecap="round" stroke-linejoin="round"/><path d="M22.3447,52.5575H14.791a2.8632,2.8632,0,0,1-2.7953-3.5009l-3.1313-2.983a8.8089,8.8089,0,1,0,16.2723,6.4839Z" fill="#323232" stroke="#1c1c1c" stroke-linecap="round" stroke-linejoin="round"/><polygon points="58.835 39.059 59.537 41.067 60.391 40.768 59.339 37.757 58.835 39.059" fill="#f2f2f2" stroke="#1c1c1c" stroke-linecap="round" stroke-linejoin="round"/><path d="M34.56,48.4812a.6047.6047,0,0,0,.2717.9172h0a11.0277,11.0277,0,0,0,3.3253.7274q.2843.0172.57.02t.571-.01l2.014-.0869q.98-.0423,1.9571-.1239t1.95-.2026q.6487-.0806,1.2952-.1786l1.0507-.1593q.0668-.01.1328-.0224l.0448-.009c.0289-.0057.0578-.0113.0865-.0176l.0541-.0126c.0252-.0059.05-.0117.0755-.018l.0586-.0156c.0231-.0062.0463-.0124.0693-.019l.0614-.0184.0645-.02.0637-.0212.06-.0209.0657-.0241.0561-.0216.0677-.0272.0517-.0219c.0234-.01.0468-.02.07-.0307l.0466-.0215c.0243-.0113.0486-.0228.0727-.0346l.0408-.0205c.0255-.0129.051-.0258.0762-.0391l.0323-.0176c.0277-.015.0553-.03.0826-.0456l.0148-.0087a4.1506,4.1506,0,0,0,.4062-.2671l.0006,0,.6757-9.8662-.419,2.5043a7.8192,7.8192,0,0,1-7.6,6.528l-7.0813.1014Z" fill="#323232" stroke="#1c1c1c" stroke-linecap="round" stroke-linejoin="round"/><path d="M44.806,21.58H46.76a0,0,0,0,1,0,0v.9776a0,0,0,0,1,0,0H44.806a.4356.4356,0,0,1-.4356-.4356v-.1064a.4356.4356,0,0,1,.4356-.4356Z" transform="translate(-5.0521 21.0178) rotate(-24.6529)" fill="#4b4e50" stroke="#1c1c1c" stroke-linecap="round" stroke-linejoin="round"/><path d="M14.7909,46.8231H25.36a9.3455,9.3455,0,0,0-12.0523-5.3507,6.57,6.57,0,0,1-2.3549.44H9.165a.5212.5212,0,0,0-.52.52v1.0767a.5212.5212,0,0,0,.52.52h.4738c-.1462.1662-4.244,2.0454-4.244,2.0454H7.24a4.06,4.06,0,0,1,2.8005,1.12l1.9553,1.8627A2.8779,2.8779,0,0,1,14.7909,46.8231Z" fill="#4b4b4b" stroke="#1c1c1c" stroke-linecap="round" stroke-linejoin="round"/><path d="M39.1626,31.4529l-14.1921-2.28a.7756.7756,0,0,0-.8951.6945q3.7685.848,7.4843,1.91l6.3175,1.8082a2.8678,2.8678,0,0,1,2.0787,2.7571v.242a2.8677,2.8677,0,0,1-.1205.8227l-.03.1a.9389.9389,0,0,0,.764-.6542l.6452-2.1076A2.5727,2.5727,0,0,0,39.1626,31.4529Z" fill="#595959" stroke="#1c1c1c" stroke-linecap="round" stroke-linejoin="round"/><path d="M28.56,45.3765H24.6489a9.2987,9.2987,0,0,1,.7116,1.4466h3.2868Z" fill="#1c1c1c" stroke="#1c1c1c" stroke-linecap="round" stroke-linejoin="round"/><path d="M23.1,22.7209a5.387,5.387,0,0,0-4.3652-3.81c-2.5752-.3914-5.8061-.8163-7.6641-1.03a5.0316,5.0316,0,0,0-4.6748,2.09,8.5966,8.5966,0,0,0-.9293,1.5116h0a17.1556,17.1556,0,0,0-.8938,3.6222h0a.8781.8781,0,0,0,.4722.9035,19.2622,19.2622,0,0,0,4.81,1.6289l4.4888.8836a60.544,60.544,0,0,0,7.9373,1.0233,5.7166,5.7166,0,0,0,2.37-.3561S23.523,24.1649,23.1,22.7209Z" fill="#595959" stroke="#1c1c1c" stroke-linecap="round" stroke-linejoin="round"/><path d="M50.9292,30a19.923,19.923,0,0,1,.7013-2.52h0a.7326.7326,0,0,1,1.1805-.303h0a7.9785,7.9785,0,0,1,1.5317,1.864l.903,1.52.2465-1.14-3.7781-6.055-3.0777,1.86L50.9291,30Z" fill="#323232" stroke="#1c1c1c" stroke-linecap="round" stroke-linejoin="round"/><path d="M50.8138,46.7676h0a78.4924,78.4924,0,0,0,3.4016-11.4409l1.03-4.7659-.903-1.52a7.9785,7.9785,0,0,0-1.5317-1.864h0a.7326.7326,0,0,0-1.1805.303h0a19.9234,19.9234,0,0,0-1.0643,5.0814l-.47,6.1816-.6754,9.866A4.14,4.14,0,0,0,50.8138,46.7676Z" fill="#595959" stroke="#1c1c1c" stroke-linecap="round" stroke-linejoin="round"/><path d="M56.2578,26.4343l-.0281-.0151a11.2513,11.2513,0,0,1-2.9206-2.1237l-1.1369-1.2006-.4581.2705,3.7781,6.055,4.0731,4.6655a32.3971,32.3971,0,0,0-1.2345-5.032A4.414,4.414,0,0,0,56.2578,26.4343Z" fill="#aab3b6" stroke="#1c1c1c" stroke-linecap="round" stroke-linejoin="round"/><path d="M66.2373,37.89a11.6878,11.6878,0,0,0-6.8488.01l1.0028,2.8687.2455-.0858.16-.056,1.11,3.1765,1.1643-.3892a2.68,2.68,0,0,1,1.5889-2.7843,2.3443,2.3443,0,0,0,.9159-.7124l.1729-.2229A2.4253,2.4253,0,0,0,66.2373,37.89Z" fill="#4b4b4b" stroke="#1c1c1c" stroke-linecap="round" stroke-linejoin="round"/><polygon points="59.131 41.209 59.131 41.209 59.131 41.209 59.377 41.123 59.537 41.067 58.835 39.059 57.419 42.716 59.326 41.766 59.168 41.316 59.131 41.209" fill="#1c1c1c" stroke="#1c1c1c" stroke-miterlimit="10"/><path d="M63.0729,47.1366l.5,1.43a.627.627,0,0,1-.385.7987l-.4825.1687a.627.627,0,0,1-.7987-.385l-.4944-1.4144a1.938,1.938,0,1,0,1.6607-.5982Z" fill="#aab3b6" stroke="#1c1c1c" stroke-linecap="round" stroke-linejoin="round"/><path d="M26.7992,50.2352a3.7121,3.7121,0,0,1,1.86-3.2145l-.0005-.0009-.0119-.1968H14.7909A2.8756,2.8756,0,0,0,11.9237,49.69h0a2.8757,2.8757,0,0,0,2.8672,2.8672H27.6188A3.6922,3.6922,0,0,1,26.7992,50.2352Z" fill="#595959" stroke="#1c1c1c" stroke-linecap="round" stroke-linejoin="round"/><path d="M54.4205,18.8365l-1.8613.3491a2.1288,2.1288,0,0,1-.4449,2.6911l2.3063.4325a.9048.9048,0,0,0,1.0716-.8893v-1.694A.9048.9048,0,0,0,54.4205,18.8365Z" fill="#6e7476" stroke="#1c1c1c" stroke-linecap="round" stroke-linejoin="round"/><path d="M51.7616,14.4338l1.0689-3.31a7.2784,7.2784,0,0,0,.3522-2.2366h0" fill="none" stroke="#1c1c1c" stroke-linecap="round" stroke-linejoin="round"/><path d="M53.11,8.8886l-.7111.5505a.1722.1722,0,0,1-.2757-.1616l.5614-3.7488a.1722.1722,0,0,1,.3267-.0464l.6092,1.3265A1.7216,1.7216,0,0,1,53.11,8.8886Z" fill="#1c1c1c" stroke="#1c1c1c" stroke-linecap="round" stroke-linejoin="round"/><path d="M53.0833,16.5712h0a1.41,1.41,0,0,1,.8921-.4838l.99-.1281" fill="none" stroke="#1c1c1c" stroke-linecap="round" stroke-linejoin="round"/><circle cx="55.1431" cy="15.9524" r="0.1781" transform="translate(-0.579 2.158) rotate(-2.2303)" fill="none" stroke="#1c1c1c" stroke-linecap="round" stroke-linejoin="round"/><path d="M52.3835,16.262V15.1032a.6694.6694,0,1,0-1.3389,0v1.14a1.0938,1.0938,0,0,0-.649,1.058,1.1131,1.1131,0,0,0,1.1213,1.0361h.3537a1.1141,1.1141,0,0,0,1.1246-1.0843A1.0932,1.0932,0,0,0,52.3835,16.262Z" fill="#1c1c1c" stroke="#1c1c1c" stroke-linecap="round" stroke-linejoin="round"/><path d="M47.75,19.9711v-.5978a1.2268,1.2268,0,0,0-.5507-1.0237h0a1.2268,1.2268,0,0,1-.5507-1.0237V17.29" fill="none" stroke="#1c1c1c" stroke-linecap="round" stroke-linejoin="round"/><path d="M47.0692,16.163l-.2759-1.3569c-.0168-.133-.0594-.221-.13-.2474-.2333-.0874-.6812.5324-1,1.3842s-.3885,1.6133-.1551,1.7007a.2165.2165,0,0,0,.1938-.0486l.9217-.4888A.8714.8714,0,0,0,47.0692,16.163Z" fill="#1c1c1c" stroke="#1c1c1c" stroke-linecap="round" stroke-linejoin="round"/><path d="M47.2913,22.301l.0362-.0219-.903-.7865,1.0185-1.1694h-.16a1.19,1.19,0,0,0-1.1816,1.3336h0a1.19,1.19,0,0,0,1.1816,1.0469h.2518Z" fill="none" stroke="#1c1c1c" stroke-linecap="round" stroke-linejoin="round"/><path d="M51.7748,18.4125l.0653-.0751h-.3243a1.1125,1.1125,0,0,1-1.1194-1.0209,1.0958,1.0958,0,0,1,.0429-.3831l-.025-.0218L46.7665,21.1a.5208.5208,0,0,0,.0507.7348l.21.1827a1.6139,1.6139,0,0,1,.2644.2836l1.6552,2.7375L50.8628,23.88l-.9695-1.6034a4.39,4.39,0,0,0,1.029.1092,2.13,2.13,0,0,0,.8525-3.9731Z" fill="#323232" stroke="#1c1c1c" stroke-linecap="round" stroke-linejoin="round"/><path d="M57.4191,42.7158,57.22,43.23a8.1134,8.1134,0,0,1,1.9637-1.3938Z" fill="#323232" stroke="#1c1c1c" stroke-linecap="round" stroke-linejoin="round"/><path d="M65.8321,39.58c-.0264.0386-.0538.0767-.0826.1139l-.1729.2229a2.3446,2.3446,0,0,1-.9159.7124,2.68,2.68,0,0,0-1.3264,1.26,7.1874,7.1874,0,1,1-3.709.7344l-.2994-.8565-.0551.0261-.0872.0434A8.112,8.112,0,0,0,57.22,43.23h0l-1.6749,4.3267a7.4955,7.4955,0,0,1-2.4976,3.2945A9.9421,9.9421,0,1,0,65.8321,39.58Z" fill="#323232" stroke="#1c1c1c" stroke-linecap="round" stroke-linejoin="round"/><path d="M20.7663,41.5824h1.6044a0,0,0,0,1,0,0V48.547a.7149.7149,0,0,1-.7149.7149h-.1746a.7149.7149,0,0,1-.7149-.7149V41.5824A0,0,0,0,1,20.7663,41.5824Z" transform="translate(39.7451 -1.4605) rotate(46.592)" fill="#aab3b6" stroke="#1c1c1c" stroke-linecap="round" stroke-linejoin="round"/><rect x="14.7003" y="49.8516" width="7.0295" height="1.2759" rx="0.5685" ry="0.5685" fill="#aab3b6"/><path d="M27.1235,38.5248,23.7288,41.736a.2628.2628,0,0,0-.01.3716l1.2789,1.352a.2628.2628,0,0,0,.3715.01L28.0006,40.98A14.8852,14.8852,0,0,0,27.1235,38.5248Z" fill="#aab3b6" stroke="#1c1c1c" stroke-linecap="round" stroke-linejoin="round"/><circle cx="30.51" cy="50.2352" r="1.1127" fill="#aab3b6" stroke="#1c1c1c" stroke-linecap="round" stroke-linejoin="round"/><path d="M29.447,33.791h0a23.8252,23.8252,0,0,1,2.1757,9.9468V44.74a.38.38,0,0,0,.702.2009l.9653-1.548a29.1729,29.1729,0,0,0,3.1722-7l.0427-.1414a.9368.9368,0,0,0-.6077-1.162l-5.9018-1.9147A.4505.4505,0,0,0,29.447,33.791Z" fill="#323232" stroke="#1c1c1c" stroke-linecap="round" stroke-linejoin="round"/><path d="M14.7909,52.5575A2.8757,2.8757,0,0,1,11.9237,49.69h0a2.8474,2.8474,0,0,1,.0719-.6336l-.0862-.0821a4.8949,4.8949,0,0,0,9.0263,3.583Z" fill="#aab3b6" stroke="#1c1c1c" stroke-linecap="round" stroke-linejoin="round"/><path d="M60.6156,35.289,55.4921,29.42l-1.2767,5.9063a78.4924,78.4924,0,0,1-3.4016,11.4409l-1.22,1.22a5.5268,5.5268,0,0,1-3.0795,1.5563h0a48.6987,48.6987,0,0,1-5.2025.5051l-2.014.0869a11.0276,11.0276,0,0,1-4.466-.7372h0a.6047.6047,0,0,1-.2717-.9172l.8489-1.178A34.0783,34.0783,0,0,0,39.5261,38.44l.3093-1.0327a2.8679,2.8679,0,0,0,.1205-.8227v-.242a2.8678,2.8678,0,0,0-2.0787-2.7571L31.56,31.7775q-4.4165-1.2641-8.9117-2.2231c-.1222,0-.2445-.0029-.3668-.0105h0a60.5361,60.5361,0,0,1-7.9373-1.0233l-4.4888-.8836a32.2562,32.2562,0,0,1-4.3968-1.4505,1.0025,1.0025,0,0,0-1.3458.73h0a1.0051,1.0051,0,0,0,.58,1.1278h0A44.5413,44.5413,0,0,0,12.64,30.6657l6.9888,1.5959a11.2984,11.2984,0,0,1,8.7626,10.3333l.2674,4.425.0005.0009a3.71,3.71,0,1,0,4.7413,5.5368H45.4983a29.8593,29.8593,0,0,0,4.079-.28h0a7.4977,7.4977,0,0,0,5.9678-4.7207l3.9168-10.118a2.2294,2.2294,0,0,1,.6334-.8923l.456-.3885A.6125.6125,0,0,0,60.6156,35.289Z" fill="none" stroke="#1c1c1c" stroke-linecap="round" stroke-linejoin="round"/><line x1="3.9261" y1="59" x2="32.5041" y2="59" fill="#595959" stroke="#1c1c1c" stroke-linecap="round" stroke-linejoin="round"/><line x1="47.4959" y1="59" x2="76.0739" y2="59" fill="#595959" stroke="#1c1c1c" stroke-linecap="round" stroke-linejoin="round"/><path d="M5.1835,22.3249l.9416.3633A26.6268,26.6268,0,0,0,11.53,24.1431l12.416,1.9739" fill="none" stroke="#1c1c1c" stroke-linecap="round" stroke-linejoin="round"/><rect x="10.3681" y="21.4157" width="10.019" height="1.8185" rx="0.8103" ry="0.8103" transform="matrix(0.9905, 0.1374, -0.1374, 0.9905, 3.2137, -1.9014)" fill="#fff"/></g></g></svg>