<svg id="Layer_1" data-name="Layer 1" xmlns="http://www.w3.org/2000/svg" xmlns:xlink="http://www.w3.org/1999/xlink" width="70" height="90" viewBox="0 0 70 90"><defs><radialGradient id="radial-gradient" cx="23.0674" cy="26.5795" r="29.9289" gradientTransform="translate(9.9055 3.6438) scale(1.0879 1.0879)" gradientUnits="userSpaceOnUse"><stop offset="0.3334"/><stop offset="0.9484" stop-opacity="0"/></radialGradient></defs><title>destination-pin</title><g id="Oval_6_Copy_9" data-name="Oval 6 Copy 9"><path id="path0_fill" data-name="path0 fill" d="M35,86.4375a16,16,0,1,0-16-16A16,16,0,0,0,35,86.4375Z" fill="#505866" fill-opacity="0.2"/></g><circle cx="35" cy="32.559" r="32.559" fill="url(#radial-gradient)"/><g id="Union"><path id="path1_fill" data-name="path1 fill" d="M35,3.4375a28.0039,28.0039,0,0,0-6.8418,55.1581L35,65.4375l6.8418-6.8419A28.0039,28.0039,0,0,0,35,3.4375Z" fill="#fff"/></g><g id="Ellipse"><path id="path2_fill" data-name="path2 fill" d="M59,31.4375a24,24,0,1,1-24-24A24,24,0,0,1,59,31.4375Z" fill="#505866"/></g><g id="Oval_6_Copy_4" data-name="Oval 6 Copy 4"><path id="path3_fill" data-name="path3 fill" d="M35,73.4375a3,3,0,1,0-3-3A3,3,0,0,0,35,73.4375Z" fill="#fd4452"/></g><g id="_Group_" data-name="&lt;Group&gt;"><rect x="45.4245" y="26.2207" width="2.787" height="2.787" fill="none"/><rect x="45.4245" y="34.5817" width="2.787" height="2.787" fill="#fff"/><rect x="45.4245" y="29.0077" width="2.787" height="2.787" fill="#fff"/><rect x="45.4245" y="23.4337" width="2.787" height="2.787" fill="#fff"/><rect x="42.6375" y="31.7947" width="2.787" height="2.787" fill="#fff"/><rect x="42.6375" y="26.2207" width="2.787" height="2.787" fill="#fff"/><rect x="39.8505" y="34.5817" width="2.787" height="2.787" fill="#fff"/><rect x="39.8505" y="29.0077" width="2.787" height="2.787" fill="#fff"/><rect x="39.8505" y="23.4337" width="2.787" height="2.787" fill="#fff"/><rect x="37.0635" y="31.7947" width="2.787" height="2.787" fill="#fff"/><rect x="37.0635" y="26.2207" width="2.787" height="2.787" fill="#fff"/><rect x="37.0635" y="20.6467" width="2.787" height="2.787" fill="#fff"/><rect x="34.2765" y="29.0077" width="2.787" height="2.787" fill="#fff"/><rect x="34.2765" y="23.4337" width="2.787" height="2.787" fill="#fff"/><rect x="31.4895" y="31.7947" width="2.787" height="2.787" fill="#fff"/><rect x="31.4895" y="26.2207" width="2.787" height="2.787" fill="#fff"/><rect x="31.4895" y="20.6467" width="2.787" height="2.787" fill="#fff"/><polygon points="31.49 29.008 31.49 31.795 28.703 31.795 28.703 34.582 28.703 44.336 25.916 44.336 25.916 20.647 28.703 20.647 28.703 23.434 31.49 23.434 31.49 26.221 28.703 26.221 28.703 29.008 31.49 29.008" fill="#fff"/></g></svg>