<?xml version="1.0" encoding="utf-8"?>
<!-- Generator: Adobe Illustrator 22.0.1, SVG Export Plug-In . SVG Version: 6.00 Build 0)  -->
<svg version="1.1" id="Layer_1" xmlns="http://www.w3.org/2000/svg" xmlns:xlink="http://www.w3.org/1999/xlink" x="0px" y="0px"
	 width="70px" height="105px" viewBox="0 0 70 105" style="enable-background:new 0 0 70 105;" xml:space="preserve">
<style type="text/css">
	.st0{fill:#505866;fill-opacity:0.2;}
	.st1{fill:url(#SVGID_1_);}
	.st2{fill:#FFFFFF;}
	.st3{fill:#505866;}
	.st4{fill:#FD4452;}
	.st5{fill:none;}
</style>
<title>destination-pin</title>
<g id="Oval_6_Copy_9">
	<path id="path0_fill" class="st0" d="M35,86.4c8.8,0,16-7.2,16-16s-7.2-16-16-16s-16,7.2-16,16S26.2,86.4,35,86.4z"/>
</g>
<radialGradient id="SVGID_1_" cx="15.8759" cy="71.8041" r="29.9283" gradientTransform="matrix(1.0879 0 0 -1.0879 17.7286 110.6747)" gradientUnits="userSpaceOnUse">
	<stop  offset="0.3334" style="stop-color:#000000"/>
	<stop  offset="0.9484" style="stop-color:#000000;stop-opacity:0"/>
</radialGradient>
<circle class="st1" cx="35" cy="32.6" r="32.6"/>
<g id="Union">
	<path id="path1_fill" class="st2" d="M35,3.4C19.5,3.4,7,16,7,31.4c0,12.8,8.7,24,21.2,27.1l6.8,6.8l6.8-6.8
		c15-3.8,24.1-19,20.3-34C59,12.2,47.8,3.4,35,3.4z"/>
</g>
<g id="Ellipse">
	<path id="path2_fill" class="st3" d="M59,31.4c0,13.3-10.7,24-24,24s-24-10.7-24-24s10.7-24,24-24S59,18.2,59,31.4z"/>
</g>
<g id="Oval_6_Copy_4">
	<path id="path3_fill" class="st4" d="M35,73.4c1.7,0,3-1.3,3-3s-1.3-3-3-3s-3,1.3-3,3S33.3,73.4,35,73.4z"/>
</g>
<g id="_Group_">
	<rect x="45.4" y="26.2" class="st5" width="2.8" height="2.8"/>
	<rect x="45.4" y="34.6" class="st2" width="2.8" height="2.8"/>
	<rect x="45.4" y="29" class="st2" width="2.8" height="2.8"/>
	<rect x="45.4" y="23.4" class="st2" width="2.8" height="2.8"/>
	<rect x="42.6" y="31.8" class="st2" width="2.8" height="2.8"/>
	<rect x="42.6" y="26.2" class="st2" width="2.8" height="2.8"/>
	<rect x="39.9" y="34.6" class="st2" width="2.8" height="2.8"/>
	<rect x="39.9" y="29" class="st2" width="2.8" height="2.8"/>
	<rect x="39.9" y="23.4" class="st2" width="2.8" height="2.8"/>
	<rect x="37.1" y="31.8" class="st2" width="2.8" height="2.8"/>
	<rect x="37.1" y="26.2" class="st2" width="2.8" height="2.8"/>
	<rect x="37.1" y="20.6" class="st2" width="2.8" height="2.8"/>
	<rect x="34.3" y="29" class="st2" width="2.8" height="2.8"/>
	<rect x="34.3" y="23.4" class="st2" width="2.8" height="2.8"/>
	<rect x="31.5" y="31.8" class="st2" width="2.8" height="2.8"/>
	<rect x="31.5" y="26.2" class="st2" width="2.8" height="2.8"/>
	<rect x="31.5" y="20.6" class="st2" width="2.8" height="2.8"/>
	<polygon class="st2" points="31.5,29 31.5,31.8 28.7,31.8 28.7,34.6 28.7,44.3 25.9,44.3 25.9,20.6 28.7,20.6 28.7,23.4 31.5,23.4 
		31.5,26.2 28.7,26.2 28.7,29 	"/>
</g>
<g>
	<path class="st3" d="M6.1,98.9v-9.7h3.1c2.6,0,4.5,2,4.5,4.8c0,3.2-1.9,4.9-4.5,4.9H6.1z M7.9,90.7v6.5h1.1c1.6,0,2.8-1,2.8-3.3
		c0-2-1.1-3.2-2.7-3.2H7.9z"/>
	<path class="st3" d="M18.8,93.2c-0.1,0-0.3,0-0.5,0c-1,0-1.6,0.7-1.6,1.5v4.2h-1.8v-7.3h1.8v1h0.1c0.2-0.7,0.9-1.1,1.6-1.1
		c0.1,0,0.3,0,0.4,0V93.2z"/>
	<path class="st3" d="M23.9,98.1L23.9,98.1C23.6,98.5,23,99,22,99c-1.3,0-2.4-0.8-2.4-2.2c0-1.4,1.1-2.1,2.9-2.3
		c0.7-0.1,1.3-0.1,1.3-0.5v-0.1c0-0.7-0.5-1-1.1-1c-0.7,0-1.2,0.4-1.3,0.9l-1.7-0.3c0.3-1.3,1.6-2.1,3.1-2.1c1.4,0,2.9,0.6,2.9,2.5
		v4.9h-1.7V98.1z M23.8,95.5c-0.1,0.2-0.8,0.2-1.2,0.3c-0.9,0.1-1.3,0.4-1.3,1c0,0.5,0.4,0.8,1,0.8c0.8,0,1.5-0.6,1.5-1.2V95.5z"/>
	<path class="st3" d="M33.4,91.6v7.1c0,1.9-1.4,2.9-3.4,2.9c-1.4,0-2.4-0.6-2.8-1.1l0.9-1.2c0.4,0.3,1,0.7,1.9,0.7
		c1,0,1.7-0.5,1.7-1.6V98h-0.1c-0.2,0.5-0.9,0.9-1.8,0.9c-1.7,0-3-1.3-3-3.7c0-2.4,1.3-3.7,3-3.7c0.9,0,1.5,0.4,1.8,0.9h0.1v-0.8
		H33.4z M30.2,97.4c1.1,0,1.6-1,1.6-2.3c0-1.3-0.5-2.2-1.6-2.2c-1.1,0-1.7,0.9-1.7,2.2C28.5,96.5,29.1,97.4,30.2,97.4z"/>
	<path class="st3" d="M41,89.1l2.4,7h0.1l2.5-7h2.4v9.7h-1.8v-6.7h-0.1l-2.3,6.6h-1.3l-2.3-6.7h-0.1v6.7h-1.8v-9.7H41z"/>
	<path class="st3" d="M54,98.1L54,98.1c-0.3,0.4-0.9,0.9-1.9,0.9c-1.3,0-2.4-0.8-2.4-2.2c0-1.4,1.1-2.1,2.9-2.3
		c0.7-0.1,1.3-0.1,1.3-0.5v-0.1c0-0.7-0.5-1-1.1-1c-0.7,0-1.2,0.4-1.3,0.9l-1.7-0.3c0.3-1.3,1.6-2.1,3.1-2.1c1.4,0,2.9,0.6,2.9,2.5
		v4.9H54V98.1z M54,95.5c-0.1,0.2-0.8,0.2-1.2,0.3c-0.9,0.1-1.3,0.4-1.3,1c0,0.5,0.4,0.8,1,0.8c0.8,0,1.5-0.6,1.5-1.2V95.5z"/>
	<g>
		<path class="st3" d="M57.3,91.6h1.8l0,0.8h0.1c0.2-0.5,0.9-0.9,1.8-0.9c1.6,0,3,1.3,3,3.7c0,2.4-1.3,3.8-3,3.8
			c-0.9,0-1.5-0.4-1.8-0.9h-0.1v3.5h-1.8V91.6z M60.5,92.9c-1.1,0-1.6,1-1.6,2.3c0,1.3,0.5,2.3,1.6,2.3c1.1,0,1.7-0.9,1.7-2.3
			C62.2,93.8,61.6,92.9,60.5,92.9z"/>
		<g>
			<g id="XMLID_1_">
				<path class="st2" d="M9.1,91.8c1.4,0,1.6,1.3,1.6,2.1c0,2.2-1.1,2.2-1.7,2.2h0L9.1,91.8L9.1,91.8z"/>
				<path class="st2" d="M65,95.2c0,2.9-1.7,4.9-4.1,4.9c-0.3,0-0.5,0-0.8-0.1v1.6v1.1h-1.1h-1.8h-1.1v-1.1V100h-0.4H54h-0.8
					c-0.3,0.1-0.7,0.1-1.1,0.1c-1.1,0-2-0.4-2.6-1v0.9h-1.1h-1.8h-1.1v-1.1v-0.3l-0.2,0.7L45,99.9h-0.8h-1.3H42l-0.3-0.8l-0.2-0.6
					v0.2v1.1h-1.1h-1.8h-1.1v-1.1v-9.7V88h1.1H41h0.8l0.3,0.7l1.5,4.2l1.5-4.2l0.3-0.7H46h2.4h1.1v1.1v2.7c0.8-0.9,2-1.5,3.4-1.5
					c1.4,0,2.5,0.5,3.2,1.4v-0.2v-1.1h1.1h1.8h1c0.3-0.1,0.6-0.1,0.9-0.1C62.9,90.3,65,91.9,65,95.2z M61,99c1.7,0,3-1.3,3-3.8
					c0-2.5-1.3-3.8-3-3.8c-0.9,0-1.5,0.4-1.8,0.9h-0.1v-0.8h-1.8v10h1.8v-3.5h0.1C59.4,98.6,60,99,61,99z M55.8,98.9V94
					c0-1.9-1.4-2.5-2.9-2.5c-1.5,0-2.7,0.7-3.1,2.1l1.7,0.3c0.2-0.5,0.6-0.9,1.3-0.9c0.6,0,1.1,0.3,1.1,1V94c0,0.4-0.7,0.4-1.3,0.5
					c-1.8,0.2-2.9,0.9-2.9,2.3c0,1.4,1.1,2.2,2.4,2.2c1,0,1.6-0.5,1.9-0.9h0v0.8H55.8z M48.4,98.9v-9.7H46l-2.5,7h-0.1l-2.4-7h-2.4
					v9.7h1.8v-6.7h0.1l2.3,6.7h1.3l2.3-6.6h0.1v6.7H48.4z"/>
				<path class="st2" d="M60.5,92.9c1.1,0,1.7,0.9,1.7,2.3c0,1.4-0.6,2.3-1.7,2.3c-1.1,0-1.6-1-1.6-2.3S59.4,92.9,60.5,92.9z
					 M61.1,95.2c0-1.2-0.4-1.2-0.6-1.2c-0.4,0-0.5,0.6-0.5,1.2s0.1,1.2,0.5,1.2C61,96.4,61.1,95.8,61.1,95.2z"/>
				<path class="st2" d="M54,95.4v1c0,0.7-0.6,1.2-1.5,1.2c-0.6,0-1-0.3-1-0.8c0-0.6,0.5-0.9,1.3-1C53.1,95.7,53.8,95.6,54,95.4z"/>
				<path class="st2" d="M13.8,90.4h1.1h1.8h0.9c0.2-0.1,0.5-0.1,0.8-0.1c0.3,0,0.5,0,0.7,0.1l0.8,0.2v0.6c0.7-0.6,1.7-0.9,2.8-0.9
					c1.7,0,3,0.8,3.6,2c0.8-1.3,2.1-2,3.4-2c0.3,0,0.7,0,1,0.1h0.9h1.8h1.1v1.1v7.1c0,2.4-1.8,4.1-4.5,4.1c-1.8,0-3.1-0.8-3.7-1.4
					l-0.6-0.7l0.5-0.6h-0.6h-1.8H23c-0.3,0.1-0.7,0.1-1.1,0.1c-2,0-3.5-1.4-3.5-3.3c0-0.6,0.1-1.5,0.9-2.2l-1-0.2l0-0.1
					c-0.3,0-0.4,0.2-0.4,0.3v4.2v1.1h-1.1h-1.8h-1.1v-1.1v-1.3c-1,1.5-2.6,2.4-4.7,2.4H6.1H5v-1.1v-9.7V88h1.1h3.1
					C11.2,88,12.8,88.9,13.8,90.4z M33.4,98.7v-7.1h-1.8v0.8h-0.1c-0.2-0.5-0.9-0.9-1.8-0.9c-1.6,0-3,1.3-3,3.7c0,2.4,1.3,3.7,3,3.7
					c0.9,0,1.5-0.4,1.8-0.9h0.1v0.6c0,1.1-0.7,1.6-1.7,1.6c-0.9,0-1.5-0.4-1.9-0.7l-0.9,1.2c0.4,0.5,1.4,1,2.8,1
					C32,101.6,33.4,100.6,33.4,98.7z M26.7,99.3l0.3-0.4c-0.1-0.1-0.2-0.3-0.3-0.4v0.4V99.3z M25.6,98.9V94c0-1.9-1.4-2.5-2.9-2.5
					c-1.3,0-2.3,0.5-2.8,1.4v0.4l0,0.3l1.4,0.3c0.2-0.5,0.6-0.9,1.3-0.9c0.6,0,1.1,0.3,1.1,1V94c0,0.4-0.7,0.4-1.3,0.5
					c-1.8,0.2-2.9,0.9-2.9,2.3c0,1.4,1.1,2.2,2.4,2.2c1.1,0,1.6-0.5,1.9-0.9h0.1v0.8H25.6z M18.8,92.6v-1.1c-0.1,0-0.3,0-0.4,0
					c-0.7,0-1.4,0.4-1.6,1.2h-0.1v-1h-1.8v7.3h1.8v-4.2c0-0.8,0.6-1.5,1.6-1.5c0.1,0,0.2,0,0.3,0C18.7,93,18.7,92.8,18.8,92.6z
					 M13.7,93.9c0-2.8-1.9-4.8-4.5-4.8H6.1v9.7h3.1C11.8,98.9,13.7,97.1,13.7,93.9z"/>
				<path class="st2" d="M31.8,95.2c0,1.3-0.5,2.2-1.6,2.2c-1.1,0-1.7-0.9-1.7-2.3s0.6-2.2,1.7-2.2C31.3,92.9,31.8,93.9,31.8,95.2z
					 M30.7,95.2c0-0.8-0.2-1.1-0.5-1.1c-0.1,0-0.6,0-0.6,1.1c0,0.5,0.1,1.1,0.6,1.1C30.5,96.3,30.7,95.9,30.7,95.2z"/>
				<path class="st2" d="M30.2,94c0.3,0,0.5,0.4,0.5,1.1s-0.2,1.1-0.5,1.1c-0.5,0-0.6-0.6-0.6-1.1C29.6,94,30,94,30.2,94z"/>
				<path class="st2" d="M23.8,95.4v1c0,0.7-0.6,1.2-1.5,1.2c-0.6,0-1-0.3-1-0.8c0-0.6,0.5-0.9,1.3-1C23,95.7,23.7,95.6,23.8,95.4z"
					/>
				<path class="st2" d="M9.1,90.7c1.6,0,2.7,1.2,2.7,3.2c0,2.4-1.1,3.3-2.8,3.3H7.9v-6.5H9.1z M10.7,93.9c0-0.8-0.2-2.1-1.6-2.1H9
					v4.3h0C9.6,96.1,10.7,96.1,10.7,93.9z"/>
			</g>
		</g>
	</g>
</g>
</svg>
