<svg id="Layer_1" data-name="Layer 1" xmlns="http://www.w3.org/2000/svg" xmlns:xlink="http://www.w3.org/1999/xlink" width="60" height="69.625" viewBox="0 0 60 69.625"><defs><linearGradient id="linear-gradient" x1="26" y1="46.5" x2="34" y2="46.5" gradientUnits="userSpaceOnUse"><stop offset="0" stop-opacity="0"/><stop offset="0.4831" stop-opacity="0.3"/><stop offset="1" stop-opacity="0"/></linearGradient><radialGradient id="radial-gradient" cx="30" cy="24" r="23" gradientUnits="userSpaceOnUse"><stop offset="0.3334"/><stop offset="0.9484" stop-opacity="0"/></radialGradient></defs><title>dropoff-pin</title><path d="M26,35V54a4,4,0,0,0,8,0V35Z" fill="url(#linear-gradient)"/><ellipse cx="30" cy="57" rx="10" ry="5" fill="#fff" fill-opacity="0.5"/><circle cx="30" cy="24" r="23" fill="url(#radial-gradient)"/><circle cx="30" cy="56" r="2"/><path d="M50,22.5A20,20,0,1,0,28.5,42.4243V56a1.5,1.5,0,0,0,3,0V42.4243A19.9876,19.9876,0,0,0,50,22.5Z" fill="#fff"/><path d="M38.2346,19.3575c0,1.4995-1.96,3.9791-4.7889,3.9791-.2553,0-1.2963-.04-2.617-.0229-2.7757.0339-6.79.315-7.3105,1.726l-.0066-.0285a3.7368,3.7368,0,1,1-.7924-4.0087c.7225.6825,2.2252.52,2.2907-1.423.0654-1.8091-7.346-2.2937-7.7911-2.4851-.7979-.3445-2.3373-1.5816.3563-1.3945,1.8523.1334,10.27.7525,11.0217.8575,1.2908.175,1.4029.8925,1.1665,1.47a18.797,18.797,0,0,0-1.2553,3.1042c-.1176.8805,1.1432,1.0785,2.3152,1.0785a16.7968,16.7968,0,0,0,1.8356-.1215c2.2552-.222,2.3373-2.6666,2.2019-5.0412A11.4125,11.4125,0,0,0,32.7765,11.54a5.6675,5.6675,0,0,0-1.22-.2745c-.94-.2046,1.2485-1.3126,1.9366-1.5106a1.8212,1.8212,0,0,1,1.1487,0,1.0145,1.0145,0,0,1,.2652,1.5576c-.1642.105-.6858-.023-.8157.303C34.0439,11.8027,38.2346,16.16,38.2346,19.3575Zm1.5032-.3263a4.1513,4.1513,0,1,1,0,8.3018,4.2322,4.2322,0,0,1-4.12-3.5176c1.5992-.6311,3.5925-2.5091,3.5037-4.6967A2.9529,2.9529,0,0,1,39.7378,19.0312Z" fill-rule="evenodd"/><circle cx="38.1462" cy="33" r="2"/><polyline points="19.531 33 33.156 33 30.752 30.596" fill="none" stroke="#000" stroke-linecap="round" stroke-linejoin="round" stroke-width="2" fill-rule="evenodd"/><polyline points="19.531 33 33.146 33 30.742 35.404" fill="none" stroke="#000" stroke-linecap="round" stroke-linejoin="round" stroke-width="2" fill-rule="evenodd"/></svg>