<svg id="Layer_1" data-name="Layer 1" xmlns="http://www.w3.org/2000/svg" width="58.125" height="85.2182" viewBox="0 0 58.125 85.2182"><title>p_dropoff_selected</title><g id="Canvas"><g id="Group_2" data-name="Group 2"><g id="Selected_Scooter" data-name="Selected Scooter"><g id="Oval_6_Copy_9" data-name="Oval 6 Copy 9"><path id="path0_fill" data-name="path0 fill" d="M29.0625,84.0466a16,16,0,1,0-16-16A16,16,0,0,0,29.0625,84.0466Z" fill="#505866" fill-opacity="0.2"/></g><g id="Union"><path id="path1_fill" data-name="path1 fill" d="M29.0625,1.0466a28.0039,28.0039,0,0,0-6.8418,55.1581l6.8418,6.8419,6.8418-6.8419A28.0039,28.0039,0,0,0,29.0625,1.0466Z" fill="#fff"/></g><g id="Ellipse"><path id="path2_fill" data-name="path2 fill" d="M53.0625,29.0466a24,24,0,1,1-24-24A24,24,0,0,1,53.0625,29.0466Z" fill="#4392f1"/></g><g id="ic_flag_white_24px" data-name="ic flag white 24px"><g id="Vector"><path id="path3_fill" data-name="path3 fill" d="M30.4625,23.0466l-.4-2h-9v17h2v-7h5.6l.4,2h7v-10Z" fill="#fff"/></g></g><g id="Oval_6_Copy_4" data-name="Oval 6 Copy 4"><path id="path4_fill" data-name="path4 fill" d="M29.0625,71.0466a3,3,0,1,0-3-3A3,3,0,0,0,29.0625,71.0466Z" fill="#fd4452"/></g></g></g></g></svg>