<svg id="Layer_1" data-name="Layer 1" xmlns="http://www.w3.org/2000/svg" width="58.125" height="85.2182" viewBox="0 0 58.125 85.2182"><title>p_parking_selected</title><g id="Canvas"><g id="Group_4" data-name="Group 4"><g id="Oval_6_Copy_9" data-name="Oval 6 Copy 9"><path id="path0_fill" data-name="path0 fill" d="M29.0625,84.0466a16,16,0,1,0-16-16A16,16,0,0,0,29.0625,84.0466Z" fill="#505866" fill-opacity="0.2"/></g><g id="Union"><path id="path1_fill" data-name="path1 fill" d="M29.0625,1.0466a28.0039,28.0039,0,0,0-6.842,55.1581l6.842,6.8419,6.842-6.8419a28.0039,28.0039,0,0,0-6.842-55.1581Z" fill="#fff"/></g><g id="Rectangle_12" data-name="Rectangle 12"><path id="path2_fill" data-name="path2 fill" d="M5.0625,29.0466a24,24,0,0,1,24-24h0a24,24,0,0,1,24,24h0a24,24,0,0,1-24,24h0a24,24,0,0,1-24-24Z" fill="#505866"/></g><g id="ic_local_parking_black_24px" data-name="ic local parking black 24px"><g id="Shape"><path id="path3_fill" data-name="path3 fill" d="M23.0625,20.0466h7a6,6,0,0,1,0,12h-3v6h-4Zm4,8h3.2a2,2,0,1,0,0-4h-3.2Z" fill="#fff"/></g></g><g id="Oval_6_Copy_4" data-name="Oval 6 Copy 4"><path id="path4_fill" data-name="path4 fill" d="M29.0625,71.0466a3,3,0,1,0-3-3A3,3,0,0,0,29.0625,71.0466Z" fill="#fd4452"/></g></g></g></svg>