<?xml version="1.0" encoding="utf-8"?>
<!-- Generator: Adobe Illustrator 22.0.1, SVG Export Plug-In . SVG Version: 6.00 Build 0)  -->
<svg version="1.1" id="Layer_1" xmlns="http://www.w3.org/2000/svg" xmlns:xlink="http://www.w3.org/1999/xlink" x="0px" y="0px"
	 width="70px" height="105px" viewBox="0 0 70 105" style="enable-background:new 0 0 70 105;" xml:space="preserve">
<style type="text/css">
	.st0{fill:#505866;fill-opacity:0.2;}
	.st1{fill:url(#SVGID_1_);}
	.st2{fill:#FFFFFF;}
	.st3{fill:#505866;}
	.st4{fill:#FD4452;}
</style>
<title>parking-pin-avl</title>
<g id="Oval_6_Copy_9">
	<path id="path0_fill" class="st0" d="M35,86.4c8.8,0,16-7.2,16-16s-7.2-16-16-16s-16,7.2-16,16S26.2,86.4,35,86.4z"/>
</g>
<radialGradient id="SVGID_1_" cx="40.2303" cy="71.8041" r="29.9283" gradientTransform="matrix(1.0879 0 0 -1.0879 -8.7665 110.6747)" gradientUnits="userSpaceOnUse">
	<stop  offset="0.3334" style="stop-color:#000000"/>
	<stop  offset="0.9484" style="stop-color:#000000;stop-opacity:0"/>
</radialGradient>
<circle class="st1" cx="35" cy="32.6" r="32.6"/>
<g id="Union">
	<path id="path1_fill" class="st2" d="M35,3.4C19.5,3.4,7,16,7,31.4c0,12.8,8.7,24,21.2,27.1l6.8,6.8l6.8-6.8
		c15-3.8,24.1-19,20.3-34C59,12.2,47.8,3.4,35,3.4z"/>
</g>
<g id="Ellipse">
	<path id="path2_fill" class="st3" d="M59,31.4c0,13.3-10.7,24-24,24s-24-10.7-24-24s10.7-24,24-24S59,18.2,59,31.4z"/>
</g>
<g id="Oval_6_Copy_4">
	<path id="path3_fill" class="st4" d="M35,73.4c1.7,0,3-1.3,3-3s-1.3-3-3-3s-3,1.3-3,3S33.3,73.4,35,73.4z"/>
</g>
<g id="ic_local_parking_black_24px">
	<g id="Shape">
		<path id="path3_fill-2" class="st2" d="M29.6,22.1h7.5c3.6,0,6.4,2.9,6.4,6.5c0,3.6-2.9,6.4-6.4,6.4h-3.2v6.4h-4.3V22.1z
			 M33.9,30.7h3.4c1.2,0,2.1-1,2.1-2.2c0-1.2-1-2.1-2.1-2.1h-3.4V30.7z"/>
	</g>
</g>
</svg>
