<svg id="Layer_1" data-name="Layer 1" xmlns="http://www.w3.org/2000/svg" xmlns:xlink="http://www.w3.org/1999/xlink" width="70" height="90" viewBox="0 0 70 90"><defs><radialGradient id="radial-gradient" cx="47.4223" cy="26.5795" r="29.9289" gradientTransform="translate(-16.5896 3.6438) scale(1.0879 1.0879)" gradientUnits="userSpaceOnUse"><stop offset="0.3334"/><stop offset="0.9484" stop-opacity="0"/></radialGradient></defs><title>parking-pin-avl</title><g id="Oval_6_Copy_9" data-name="Oval 6 Copy 9"><path id="path0_fill" data-name="path0 fill" d="M35,86.4375a16,16,0,1,0-16-16A16,16,0,0,0,35,86.4375Z" fill="#505866" fill-opacity="0.2"/></g><circle cx="35" cy="32.559" r="32.559" fill="url(#radial-gradient)"/><g id="Union"><path id="path1_fill" data-name="path1 fill" d="M35,3.4375a28.0039,28.0039,0,0,0-6.8418,55.1581L35,65.4375l6.8418-6.8419A28.0039,28.0039,0,0,0,35,3.4375Z" fill="#fff"/></g><g id="Ellipse"><path id="path2_fill" data-name="path2 fill" d="M59,31.4375a24,24,0,1,1-24-24A24,24,0,0,1,59,31.4375Z" fill="#505866"/></g><g id="Oval_6_Copy_4" data-name="Oval 6 Copy 4"><path id="path3_fill" data-name="path3 fill" d="M35,73.4375a3,3,0,1,0-3-3A3,3,0,0,0,35,73.4375Z" fill="#fd4452"/></g><g id="ic_local_parking_black_24px" data-name="ic local parking black 24px"><g id="Shape"><path id="path3_fill-2" data-name="path3 fill" d="M29.6279,22.06h7.5213a6.4468,6.4468,0,0,1,0,12.8936H33.9258v6.4468H29.6279Zm4.2979,8.5957H37.364a2.149,2.149,0,0,0,0-4.2979H33.9258Z" fill="#fff"/></g></g></svg>