<svg id="Layer_1" data-name="Layer 1" xmlns="http://www.w3.org/2000/svg" width="12" height="12" viewBox="0 0 12 12"><title>parking-inactive copy</title><g id="_Group_" data-name="&lt;Group&gt;"><g id="_Group_2" data-name="&lt;Group&gt;"><path d="M1.8023,10.3168H10.2a.4641.4641,0,0,0,.4664-.4664V2.1522A.4658.4658,0,0,0,10.2,1.6858H1.8023a.4658.4658,0,0,0-.4664.4664V9.85A.4641.4641,0,0,0,1.8023,10.3168Zm-.2987.8332A1.0031,1.0031,0,0,1,.5,10.1491V1.8561A1.0059,1.0059,0,0,1,1.5036.85H10.499A1.0036,1.0036,0,0,1,11.5,1.8561v8.293A1.0008,1.0008,0,0,1,10.499,11.15Z" fill="#2672b5"/><path d="M10.6667,2.1522V9.85a.4641.4641,0,0,1-.4664.4664H1.8023A.4641.4641,0,0,1,1.3359,9.85V2.1522a.4658.4658,0,0,1,.4664-.4664H10.2A.4658.4658,0,0,1,10.6667,2.1522Z" fill="#228deb"/></g></g><path d="M4.0885,2.71H6.7914A2.0472,2.0472,0,0,1,8.96,4.8681a2.0353,2.0353,0,0,1-2.1683,2.149H5.4923V9.29H4.0885Zm1.4039,1.232V5.7946H6.7245a.8751.8751,0,0,0,.8311-.9265.8688.8688,0,0,0-.7928-.9265Z" fill="#fff"/></svg>