<svg id="bike" xmlns="http://www.w3.org/2000/svg" width="500" height="365" viewBox="0 0 500 365"><title>scoot-fmas</title><path d="M55.62,244.3251h3.9178a0,0,0,0,1,0,0v7.8285a0,0,0,0,1,0,0H55.62A2.3532,2.3532,0,0,1,53.2672,249.8v-3.1221A2.3532,2.3532,0,0,1,55.62,244.3251Z" fill="#ffd460" stroke="#1c1c1c" stroke-linecap="round" stroke-linejoin="round" stroke-width="3.9924"/><path d="M220.479,282.27a3.7551,3.7551,0,0,0,1.6876,5.6958h0a68.4858,68.4858,0,0,0,20.6515,4.5173q1.7655.1068,3.5376.1223t3.5463-.0611l12.5075-.5394q6.0852-.2623,12.154-.7695t12.1115-1.2581q4.0284-.5005,8.0434-1.1094l6.5254-.9894q.4144-.0629.825-.1393c.0931-.0172.1854-.0374.2782-.0556.18-.0353.3591-.07.5373-.1094.1126-.0246.2242-.0521.3363-.0782.1566-.0364.3133-.0726.4688-.1118.1219-.0308.2428-.0641.3641-.0967.1437-.0385.2875-.077.43-.1179.1277-.0367.2545-.0755.3815-.114.1339-.0407.2677-.0815.4007-.1243s.2643-.0871.3959-.1318q.1876-.0638.3742-.13.2048-.0732.4078-.15.1749-.0659.3485-.134.2111-.083.42-.1692c.1073-.0444.2142-.09.3208-.1357.1454-.0625.2905-.1255.4345-.19.0969-.0438.1932-.0889.29-.1339.1511-.07.302-.1413.4515-.2146.0849-.0417.1689-.0848.2532-.1274.1585-.08.3169-.16.4734-.243.0673-.0357.1336-.0729.2-.1091.1719-.0931.3436-.1866.5132-.2835.0309-.0176.0612-.0363.0921-.0541a25.7652,25.7652,0,0,0,2.5224-1.6591l.0054-.0039,4.1945-61.2706-2.6023,15.5525a48.56,48.56,0,0,1-47.1986,40.5407l-43.9771.63Z" fill="#323232" stroke="#1c1c1c" stroke-linecap="round" stroke-linejoin="round" stroke-width="3.9924"/><path d="M284.438,115.205h11.8065a0,0,0,0,1,0,0v6.0714a0,0,0,0,1,0,0H284.438a3.0357,3.0357,0,0,1-3.0357-3.0357v0A3.0357,3.0357,0,0,1,284.438,115.205Z" transform="translate(-22.9947 131.2518) rotate(-24.6529)" fill="#4b4e50" stroke="#1c1c1c" stroke-linecap="round" stroke-linejoin="round" stroke-width="3.9924"/><path d="M414.6866,226.9922l0,0c-.1644.2394-.3339.476-.5129.7068L413.1,229.0838a14.5586,14.5586,0,0,1-5.688,4.4244,16.6411,16.6411,0,0,0-9.8675,17.2911l-5.3013,1.772-.1695,5.6792,8.5823,24.5515a3.8937,3.8937,0,0,1-2.3907,4.96l-2.9965,1.0475a3.8937,3.8937,0,0,1-4.96-2.3907l-3.503-10.0211a6.4952,6.4952,0,0,1-4.7363.5508l-22.9273-6.2275a4.0649,4.0649,0,0,1-2.5426-5.8156,44.8294,44.8294,0,0,1,19.54-19.0217l-2.8356-8.1116.9763,2.7929-11.84,5.9L350.8005,276.53a46.5475,46.5475,0,0,1-15.511,20.46,61.7438,61.7438,0,1,0,79.3971-69.9975ZM400.32,269.7566l-.7053-23.6208a4.07,4.07,0,0,1,4.8172-4.1265,44.6965,44.6965,0,0,1,30.9388,22.75,4.0641,4.0641,0,0,1-2.5365,5.8265l-22.896,6.219a6.5572,6.5572,0,0,1-5.8069-1.1321q-.4716-.3762-.9779-.7087A6.4342,6.4342,0,0,1,400.32,269.7566Zm-36.2581,47.258a44.49,44.49,0,0,1-12.6749-31.1578,44.977,44.977,0,0,1,.2641-4.872A4.071,4.071,0,0,1,357,277.5784l22.319,7.5184a6.5979,6.5979,0,0,1,4.2124,4.4234q.1822.6237.424,1.22a6.5447,6.5447,0,0,1-.5567,6.1034l-13.04,19.5747A4.0706,4.0706,0,0,1,364.0614,317.0146Zm50.3241,9.5387a44.7345,44.7345,0,0,1-36.5149.0925,4.0774,4.0774,0,0,1-1.6-6.1824l14.2762-18.8826a6.8158,6.8158,0,0,1,5.4454-2.7053h.0325q.144,0,.2873-.0032a6.5551,6.5551,0,0,1,5.3758,2.5983l14.2928,18.9046A4.08,4.08,0,0,1,414.3855,326.5533Zm13.774-9.7155a4.0693,4.0693,0,0,1-6.3092-.583l-13.07-19.62a6.6491,6.6491,0,0,1-.6076-6.0983q.2131-.553.3766-1.13a6.6376,6.6376,0,0,1,4.2411-4.524l22.239-7.4914a4.0734,4.0734,0,0,1,5.3485,3.3988,45.0313,45.0313,0,0,1,.2849,5.0661A44.4863,44.4863,0,0,1,428.16,316.8378Z" fill="#aab3b6" stroke="#1c1c1c" stroke-linecap="round" stroke-linejoin="round" stroke-width="3.9924"/><polygon points="379.34 234.915 373.07 237.106 373.07 237.106 379.34 234.915" fill="#aab3b6" stroke="#1c1c1c" stroke-linecap="round" stroke-linejoin="round" stroke-width="3.9924"/><path d="M349.6525,279.23c.0385-.0834.0789-.1657.1169-.2494C349.7314,279.0641,349.691,279.1464,349.6525,279.23Z" fill="#4b4e50" stroke="#1c1c1c" stroke-linecap="round" stroke-linejoin="round" stroke-width="3.9924"/><path d="M350.1862,278.03c.0388-.0906.08-.18.118-.2711C350.266,277.8494,350.225,277.939,350.1862,278.03Z" fill="#4b4e50" stroke="#1c1c1c" stroke-linecap="round" stroke-linejoin="round" stroke-width="3.9924"/><path d="M373.3981,241.0046l-10.9591,5.4609L350.8005,276.53l10.4018-26.87A50.3724,50.3724,0,0,1,373.3981,241.0046Z" fill="#4b4e50" stroke="#1c1c1c" stroke-linecap="round" stroke-linejoin="round" stroke-width="3.9924"/><path d="M402.6027,236.6977q.2993-.2843.6134-.5544Q402.9018,236.4133,402.6027,236.6977Z" fill="#4b4e50" stroke="#1c1c1c" stroke-linecap="round" stroke-linejoin="round" stroke-width="3.9924"/><path d="M414.6866,226.9922c-.1645.2395-.3341.4762-.5131.7071L413.1,229.0838a14.5586,14.5586,0,0,1-5.688,4.4244,16.6167,16.6167,0,0,0-4.1944,2.6339,50.2308,50.2308,0,1,1-57.42,49.878A46.4156,46.4156,0,0,1,335.29,296.99a61.7438,61.7438,0,1,0,79.3971-69.9975Z" fill="#4b4e50" stroke="#1c1c1c" stroke-linecap="round" stroke-linejoin="round" stroke-width="3.9924"/><path d="M347.9,282.6484l.0343-.06Z" fill="#4b4e50" stroke="#1c1c1c" stroke-linecap="round" stroke-linejoin="round" stroke-width="3.9924"/><path d="M347.2419,283.7748l.01-.016Z" fill="#4b4e50" stroke="#1c1c1c" stroke-linecap="round" stroke-linejoin="round" stroke-width="3.9924"/><path d="M348.52,281.5176c.0209-.04.0427-.0785.0635-.1181C348.5624,281.4391,348.5406,281.4781,348.52,281.5176Z" fill="#4b4e50" stroke="#1c1c1c" stroke-linecap="round" stroke-linejoin="round" stroke-width="3.9924"/><path d="M349.1025,280.38c.0306-.0617.0625-.1226.0927-.1844C349.165,280.2575,349.133,280.3184,349.1025,280.38Z" fill="#4b4e50" stroke="#1c1c1c" stroke-linecap="round" stroke-linejoin="round" stroke-width="3.9924"/><path d="M97.7043,307.5854A17.8588,17.8588,0,0,1,79.8979,289.779h0a17.6838,17.6838,0,0,1,.4467-3.9351L60.8981,267.3182a54.7059,54.7059,0,1,0,101.0566,40.2672Z" fill="#4b4e50" stroke="#1c1c1c" stroke-linecap="round" stroke-linejoin="round" stroke-width="3.9924"/><path d="M97.7043,307.5854A17.8588,17.8588,0,0,1,79.8979,289.779h0a17.6838,17.6838,0,0,1,.4467-3.9351l-6.88-6.5547a38.29,38.29,0,0,0,71.1516,28.2962Z" fill="#f2f2f2" stroke="#1c1c1c" stroke-linecap="round" stroke-linejoin="round" stroke-width="3.9924"/><path d="M97.7043,307.5854A17.8588,17.8588,0,0,1,79.8979,289.779h0a17.6838,17.6838,0,0,1,.4467-3.9351l-.5355-.51a30.3987,30.3987,0,0,0,56.0563,22.2516Z" fill="#aab3b6" stroke="#1c1c1c" stroke-linecap="round" stroke-linejoin="round" stroke-width="3.9924"/><path d="M97.7043,271.9726h65.64a58.04,58.04,0,0,0-74.6883-33.2911,41.6136,41.6136,0,0,1-14.7852,2.7924H62.7655a3.2367,3.2367,0,0,0-3.2273,3.2272v6.6866a3.2367,3.2367,0,0,0,3.2273,3.2272h2.9421q-1.3623,1.5484-2.6123,3.194H58.81c-1.5378,0-19.4591,9.5087-19.4591,9.5087H60.8974l19.4472,18.5263A17.8726,17.8726,0,0,1,97.7043,271.9726Z" fill="#323232" stroke="#1c1c1c" stroke-linecap="round" stroke-linejoin="round" stroke-width="3.9924"/><path d="M249.06,176.5192l-88.1372-14.1616a4.8168,4.8168,0,0,0-5.559,4.3128q23.4033,5.2665,46.48,11.8643l39.234,11.23a17.81,17.81,0,0,1,12.9092,17.1225v1.503a17.8108,17.8108,0,0,1-.7485,5.1093l-.1867.6232a5.8307,5.8307,0,0,0,4.7445-4.0625l4.0069-13.089A15.9773,15.9773,0,0,0,249.06,176.5192Z" fill="#595959" stroke="#1c1c1c" stroke-linecap="round" stroke-linejoin="round" stroke-width="3.9924"/><path d="M183.2134,262.989h-24.288a57.7433,57.7433,0,0,1,4.4191,8.9836h20.4118Z" fill="#1c1c1c" stroke="#1c1c1c" stroke-linecap="round" stroke-linejoin="round" stroke-width="3.9924"/><path d="M149.13,153.0988l-.0009.0032a4.7917,4.7917,0,0,0-2.68,1.0358l-1.7972,1.4377a4.6671,4.6671,0,0,1-3.7.9563L55.7866,142.0076a56.3465,56.3465,0,0,1-14.18-4.4027l-7.8714-3.6406-.7114-.6575a3.208,3.208,0,0,1-.9606-3.021l.4837-2.2809a1.7793,1.7793,0,0,1,1.7406-1.41h0a1.6039,1.6039,0,0,0,1.5061-1.0525L39.7991,114.6a82.2,82.2,0,0,1,8.0292-16.1693l3.3968-5.2888a6.255,6.255,0,0,1,5.7355-2.8568l4.886.37a567.7961,567.7961,0,0,1,68.41,9.3953h0a19.2109,19.2109,0,0,1,11.3883,8.3617l.5364.8539a44.6178,44.6178,0,0,1,6.36,17.23h0a19.2116,19.2116,0,0,0,2.7368,7.4162h0a23.408,23.408,0,0,1,3.0229,7.35l3.2,14.3376-8.372-2.4984" fill="#4b4b4b" stroke="#1c1c1c" stroke-linecap="round" stroke-linejoin="round" stroke-width="3.9924"/><path d="M33.7356,133.9644v6.9675h0A119.6126,119.6126,0,0,0,67.05,152.82l27.8768,5.4876a375.9659,375.9659,0,0,0,49.2933,6.3551h0a35.5064,35.5064,0,0,0,14.72-2.2113h0L157.5014,155.6l-6.4825-2.249a4.798,4.798,0,0,0-4.57.7864l-1.7972,1.4377a4.6671,4.6671,0,0,1-3.7.9563L55.7866,142.0076a56.3461,56.3461,0,0,1-14.18-4.4028Z" fill="#323232" stroke="#1c1c1c" stroke-linecap="round" stroke-linejoin="round" stroke-width="3.9924"/><path d="M107.1471,167.8322,44.3355,155.9605l4.6472,36.1052a11.4017,11.4017,0,0,0,10.04,9.8753l112.38,12.58A92.8979,92.8979,0,0,0,107.1471,167.8322Z" fill="#323232" stroke="#1c1c1c" stroke-linecap="round" stroke-linejoin="round" stroke-width="3.9924"/><path d="M32.9189,141.07h0a3.4809,3.4809,0,0,0-3.4618,3.8451l.8837,8.4007,13.8856-1.0579a1.4964,1.4964,0,0,0,.7468-2.7163Z" fill="#ffd460" stroke="#1c1c1c" stroke-linecap="round" stroke-linejoin="round" stroke-width="3.9924"/><path d="M33.8941,153.9871a4.7429,4.7429,0,0,0-.1585,1.1971v9.6578a4.8049,4.8049,0,0,0,4.7909,4.7909h7.5688l-1.76-13.6724Z" fill="#1c1c1c" stroke="#1c1c1c" stroke-linecap="round" stroke-linejoin="round" stroke-width="3.9924"/><path d="M322.1345,167.4965a123.7271,123.7271,0,0,1,4.3552-15.6517h0a4.55,4.55,0,0,1,7.3315-1.8817h0a49.5478,49.5478,0,0,1,9.512,11.5761l5.6078,9.4392,1.5308-7.0821-23.4632-37.6032-19.1135,11.5521,14.239,29.651Z" fill="#323232" stroke="#1c1c1c" stroke-linecap="round" stroke-linejoin="round" stroke-width="3.9924"/><path d="M321.4177,271.6282h0a487.4633,487.4633,0,0,0,21.125-71.0517l6.3982-29.5981-5.6078-9.4392a49.5478,49.5478,0,0,0-9.512-11.5761h0a4.55,4.55,0,0,0-7.3315,1.8817h0a123.73,123.73,0,0,0-6.61,31.557l-2.9161,38.39-4.1945,61.2707A25.7118,25.7118,0,0,0,321.4177,271.6282Z" fill="#4b4b4b" stroke="#1c1c1c" stroke-linecap="round" stroke-linejoin="round" stroke-width="3.9924"/><path d="M367.1357,157.0159l1.5363,4.0363a113.3577,113.3577,0,0,1,7.095,31.8185h0l-25.2952-28.9744Z" fill="#595959" stroke="#1c1c1c" stroke-linecap="round" stroke-linejoin="round" stroke-width="3.9924"/><path d="M353.28,155.6921l11.854-3.8057-.1323-.0894a52.3914,52.3914,0,0,0-20.9127-8.2983h0Z" fill="#595959" stroke="#1c1c1c" stroke-linecap="round" stroke-linejoin="round" stroke-width="3.9924"/><polygon points="327.009 126.293 329.854 124.613 353.28 155.692 365.134 151.886 367.136 157.016 350.472 163.896 327.009 126.293" fill="#404040" stroke="#1c1c1c" stroke-linecap="round" stroke-linejoin="round" stroke-width="3.9924"/><path d="M267.1628,277.8846l19.7494.842a106.39,106.39,0,0,1,25.8569,4.3355h0" fill="#323232" stroke="#1c1c1c" stroke-linecap="round" stroke-linejoin="round" stroke-width="3.9924"/><path d="M417.2031,216.4936a72.5866,72.5866,0,0,0-42.5333.0609l6.2276,17.8155,1.525-.5331.9952-.3479,6.896,19.7271,7.2307-2.4168a16.6411,16.6411,0,0,1,9.8675-17.2911,14.5586,14.5586,0,0,0,5.688-4.4244l1.0737-1.3845A15.062,15.062,0,0,0,417.2031,216.4936Z" fill="#323232" stroke="#1c1c1c" stroke-linecap="round" stroke-linejoin="round" stroke-width="3.9924"/><rect x="370.1968" y="204.4519" width="5.6222" height="31.7345" transform="translate(-51.8085 135.4281) rotate(-19.2679)" fill="#f2f2f2" stroke="#1c1c1c" stroke-linecap="round" stroke-linejoin="round" stroke-width="3.9924"/><polygon points="373.07 237.106 373.07 237.106 373.07 237.106 374.6 236.571 375.59 236.225 371.231 223.754 362.439 246.465 374.279 240.566 373.303 237.773 373.07 237.106" fill="#323232" stroke="#1c1c1c" stroke-linecap="round" stroke-linejoin="round" stroke-width="3.9924"/><path d="M397.5509,273.92l3.1049,8.8821a3.8937,3.8937,0,0,1-2.3907,4.96l-2.9965,1.0475a3.8937,3.8937,0,0,1-4.96-2.3907l-3.0707-8.7842a12.0355,12.0355,0,1,0,10.3134-3.7152Z" fill="#f2f2f2" stroke="#1c1c1c" stroke-linecap="round" stroke-linejoin="round" stroke-width="3.9924"/><path d="M382.0245,233.7255h10.9617a0,0,0,0,1,0,0v52.2392a3.8937,3.8937,0,0,1-3.8937,3.8937h-3.1742a3.8937,3.8937,0,0,1-3.8937-3.8937V233.7255a0,0,0,0,1,0,0Z" transform="translate(-64.6818 142.5351) rotate(-19.2679)" fill="#6e7476" stroke="#1c1c1c" stroke-linecap="round" stroke-linejoin="round" stroke-width="3.9924"/><path d="M172.28,293.1632A23.0536,23.0536,0,0,1,183.8335,273.2l-.0033-.0058-.0739-1.2219H97.7043A17.8588,17.8588,0,0,0,79.8979,289.779h0a17.8588,17.8588,0,0,0,17.8064,17.8064h79.6649A22.9293,22.9293,0,0,1,172.28,293.1632Z" fill="#595959" stroke="#1c1c1c" stroke-linecap="round" stroke-linejoin="round" stroke-width="3.9924"/><circle cx="394.8269" cy="283.0621" r="1.3797" fill="none" stroke="#1c1c1c" stroke-linecap="round" stroke-linejoin="round" stroke-width="3.9924"/><rect x="306.68" y="125.4175" width="13.9074" height="8.2638" transform="translate(-21.7848 180.9652) rotate(-31.1585)" fill="#aab3b6" stroke="#1c1c1c" stroke-linecap="round" stroke-linejoin="round" stroke-width="3.9924"/><rect x="305.4103" y="122.8842" width="10.4259" height="3.3726" transform="translate(-19.643 178.6893) rotate(-31.1585)" fill="none" stroke="#1c1c1c" stroke-linecap="round" stroke-linejoin="round" stroke-width="3.9924"/><path d="M343.8168,98.1668l-11.56,2.1679a13.22,13.22,0,0,1-2.7632,16.7125l14.3227,2.6861a5.6193,5.6193,0,0,0,6.655-5.5231V103.69A5.6193,5.6193,0,0,0,343.8168,98.1668Z" fill="#6e7476" stroke="#1c1c1c" stroke-linecap="round" stroke-linejoin="round" stroke-width="3.9924"/><path d="M327.3038,70.8248l6.6382-20.557a45.2013,45.2013,0,0,0,2.1871-13.89h0" fill="none" stroke="#1c1c1c" stroke-linecap="round" stroke-linejoin="round" stroke-width="3.9924"/><path d="M335.68,36.3874l-4.4161,3.4189a1.0691,1.0691,0,0,1-1.7119-1.0038l3.4866-23.2815a1.0692,1.0692,0,0,1,2.029-.2879l3.7833,8.2378A10.6918,10.6918,0,0,1,335.68,36.3874Z" fill="#4b4e50" stroke="#1c1c1c" stroke-linecap="round" stroke-linejoin="round" stroke-width="3.9924"/><circle cx="327.0086" cy="74.9823" r="4.1575" fill="#aab3b6" stroke="#1c1c1c" stroke-linecap="round" stroke-linejoin="round" stroke-width="3.9924"/><path d="M327.0086,79.14a4.1576,4.1576,0,0,1-4.1576-4.1575V82.38a4.1576,4.1576,0,0,0,4.1575,4.1576h0a4.1576,4.1576,0,0,0,4.1575-4.1576V74.9823A4.1575,4.1575,0,0,1,327.0086,79.14Z" fill="#6e7476" stroke="#1c1c1c" stroke-linecap="round" stroke-linejoin="round" stroke-width="3.9924"/><path d="M338.774,85.1513h0a8.7539,8.7539,0,0,1,4.8149-4.0669l5.8569-2.0265" fill="none" stroke="#1c1c1c" stroke-linecap="round" stroke-linejoin="round" stroke-width="3.9924"/><circle cx="350.5193" cy="78.7914" r="1.1061" fill="none" stroke="#1c1c1c" stroke-linecap="round" stroke-linejoin="round" stroke-width="3.9924"/><path d="M334.5149,85.8445a6.7557,6.7557,0,0,1,.45,2.49,6.5523,6.5523,0,0,1-.45,2.314V92.09h7.2732v-6.245Z" fill="#6e7476" stroke="#1c1c1c" stroke-linecap="round" stroke-linejoin="round" stroke-width="3.9924"/><path d="M331.1661,82.1785V82.38a4.1576,4.1576,0,0,1-4.1575,4.1576h0A4.1576,4.1576,0,0,1,322.851,82.38v-.3177a6.7931,6.7931,0,0,0-4.03,6.571,6.9126,6.9126,0,0,0,6.9636,6.4346h2.1966a6.92,6.92,0,0,0,6.9844-6.7339A6.79,6.79,0,0,0,331.1661,82.1785Z" fill="#4b4e50" stroke="#1c1c1c" stroke-linecap="round" stroke-linejoin="round" stroke-width="3.9924"/><path d="M350.3864,102.7071h0a4.9565,4.9565,0,0,1,4.9565,4.9565v3.5116a4.9565,4.9565,0,0,1-4.9565,4.9565h0a0,0,0,0,1,0,0V102.7071A0,0,0,0,1,350.3864,102.7071Z" fill="#ffd460" stroke="#1c1c1c" stroke-linecap="round" stroke-linejoin="round" stroke-width="3.9924"/><circle cx="64.6787" cy="185.9991" r="6.5657" fill="#ff1d23" stroke="#1c1c1c" stroke-linecap="round" stroke-linejoin="round" stroke-width="3.9924"/><path d="M302.3883,105.2136v-3.7128a7.6187,7.6187,0,0,0-3.42-6.3574h0a7.6192,7.6192,0,0,1-3.42-6.3575v-.22" fill="none" stroke="#1c1c1c" stroke-linecap="round" stroke-linejoin="round" stroke-width="3.9924"/><ellipse cx="292.941" cy="80.9618" rx="8.0504" ry="2.8021" transform="translate(114.38 326.8992) rotate(-69.4683)" fill="#6e7476" stroke="#1c1c1c" stroke-linecap="round" stroke-linejoin="round" stroke-width="3.9924"/><path d="M295.3955,87.4221a5.4109,5.4109,0,0,0,2.767-5.8581l-1.7133-8.4268c-.104-.826-.3688-1.3727-.8059-1.5364-1.4493-.5428-4.23,3.306-6.2117,8.5964s-2.4127,10.0193-.9635,10.562a1.3441,1.3441,0,0,0,1.2036-.3012Z" fill="none" stroke="#1c1c1c" stroke-linecap="round" stroke-linejoin="round" stroke-width="3.9924"/><path d="M327.3862,95.5341l.4057-.4658h-2.0143a6.9089,6.9089,0,0,1-6.9514-6.34,6.7981,6.7981,0,0,1,.266-2.379l-.1552-.1352-22.654,26.0094a3.2343,3.2343,0,0,0,.3146,4.5632l1.3025,1.1345a3.3935,3.3935,0,0,0,3.9847.345l9.5582-5.7792,4.0045,6.6231a13.2281,13.2281,0,0,0,11.9387-23.5757Z" fill="#262626" stroke="#1c1c1c" stroke-linecap="round" stroke-linejoin="round" stroke-width="3.9924"/><path d="M299.5419,119.6825l.2247-.1359-5.6079-4.8845L300.484,107.4h-.994a7.3918,7.3918,0,0,0-7.3379,8.282h0a7.3917,7.3917,0,0,0,7.3379,6.5014h1.564Z" fill="none" stroke="#1c1c1c" stroke-linecap="round" stroke-linejoin="round" stroke-width="3.9924"/><rect x="300.6679" y="115.491" width="13.9074" height="8.2301" transform="translate(-17.5073 176.4201) rotate(-31.1585)" fill="#262626" stroke="#1c1c1c" stroke-linecap="round" stroke-linejoin="round" stroke-width="3.9924"/><path d="M403.2174,236.1421a16.6506,16.6506,0,0,0-4.0425,5.1887,44.636,44.636,0,1,1-23.0338,4.5608l-1.8593-5.3188c-.1136.0547-.229.1064-.3422.1619l-.5411.27a50.3707,50.3707,0,0,0-12.1962,8.6559l-10.4018,26.87a46.5512,46.5512,0,0,1-5.0034,9.49,50.2287,50.2287,0,1,0,57.42-49.8779Z" fill="#f2f2f2" stroke="#1c1c1c" stroke-linecap="round" stroke-linejoin="round" stroke-width="3.9924"/><rect x="96.3426" y="285.8439" width="10.0103" height="10.0103" rx="4.7909" ry="4.7909" fill="none" stroke="#1c1c1c" stroke-linecap="round" stroke-linejoin="round" stroke-width="3.9924"/><path d="M127.816,255.6772H137.78a0,0,0,0,1,0,0v23.4462a4.9818,4.9818,0,0,1-4.9818,4.9818h0a4.9818,4.9818,0,0,1-4.9818-4.9818V255.6772a0,0,0,0,1,0,0Z" transform="translate(237.6104 -12.05) rotate(46.5919)" fill="#f2f2f2" stroke="#1c1c1c" stroke-linecap="round" stroke-linejoin="round" stroke-width="3.9924"/><path d="M155.8989,230.4547h0a7.411,7.411,0,0,1,7.411,7.411V263.992a1.6322,1.6322,0,0,1-1.6322,1.6322H150.12a1.6322,1.6322,0,0,1-1.6322-1.6322V237.8657a7.411,7.411,0,0,1,7.411-7.411Z" transform="translate(228.9618 -35.6679) rotate(46.5919)" fill="#aab3b6" stroke="#1c1c1c" stroke-linecap="round" stroke-linejoin="round" stroke-width="3.9924"/><line x1="168.6738" y1="235.9554" x2="188.0941" y2="217.5853" fill="none" stroke="#1c1c1c" stroke-linecap="round" stroke-linejoin="round" stroke-width="3.9924"/><path d="M185.3287,206.7961h14.8221a0,0,0,0,1,0,0v5.3786a7.411,7.411,0,0,1-7.411,7.411h0a7.411,7.411,0,0,1-7.411-7.411v-5.3786A0,0,0,0,1,185.3287,206.7961Z" transform="translate(215.1693 -73.3329) rotate(46.5919)" fill="none" stroke="#1c1c1c" stroke-linecap="round" stroke-linejoin="round" stroke-width="3.9924"/><line x1="189.0009" y1="202.8971" x2="202.679" y2="217.3572" fill="none" stroke="#1c1c1c" stroke-linecap="round" stroke-linejoin="round" stroke-width="3.9924"/><line x1="185.1337" y1="206.5552" x2="198.8118" y2="221.0152" fill="none" stroke="#1c1c1c" stroke-linecap="round" stroke-linejoin="round" stroke-width="3.9924"/><line x1="181.1895" y1="210.2861" x2="194.8676" y2="224.7461" fill="none" stroke="#1c1c1c" stroke-linecap="round" stroke-linejoin="round" stroke-width="3.9924"/><line x1="177.3993" y1="213.8713" x2="191.0774" y2="228.3314" fill="none" stroke="#1c1c1c" stroke-linecap="round" stroke-linejoin="round" stroke-width="3.9924"/><line x1="173.5321" y1="217.5294" x2="187.2102" y2="231.9895" fill="none" stroke="#1c1c1c" stroke-linecap="round" stroke-linejoin="round" stroke-width="3.9924"/><line x1="169.6649" y1="221.1875" x2="183.343" y2="235.6475" fill="none" stroke="#1c1c1c" stroke-linecap="round" stroke-linejoin="round" stroke-width="3.9924"/><line x1="165.7977" y1="224.8455" x2="179.4758" y2="239.3056" fill="none" stroke="#1c1c1c" stroke-linecap="round" stroke-linejoin="round" stroke-width="3.9924"/><line x1="161.9305" y1="228.5036" x2="175.6085" y2="242.9637" fill="none" stroke="#1c1c1c" stroke-linecap="round" stroke-linejoin="round" stroke-width="3.9924"/><line x1="158.0633" y1="232.1617" x2="171.7413" y2="246.6218" fill="none" stroke="#1c1c1c" stroke-linecap="round" stroke-linejoin="round" stroke-width="3.9924"/><line x1="154.196" y1="235.8198" x2="167.8741" y2="250.2798" fill="none" stroke="#1c1c1c" stroke-linecap="round" stroke-linejoin="round" stroke-width="3.9924"/><line x1="150.3288" y1="239.4778" x2="164.0069" y2="253.9379" fill="none" stroke="#1c1c1c" stroke-linecap="round" stroke-linejoin="round" stroke-width="3.9924"/><circle cx="127.1437" cy="275.2396" r="0.6949" fill="none" stroke="#1c1c1c" stroke-linecap="round" stroke-linejoin="round" stroke-width="3.9924"/><rect x="118.0647" y="287.8133" width="43.6554" height="7.9238" rx="3.9619" ry="3.9619" fill="#f2f2f2" stroke="#f2f2f2" stroke-linecap="round" stroke-linejoin="round" stroke-width="0.3992"/><rect x="73.576" y="125.7558" width="69.6747" height="10.9667" rx="5.4833" ry="5.4833" transform="translate(20.2067 -14.3519) rotate(8.3496)" fill="#f2f2f2" stroke="#f2f2f2" stroke-linecap="round" stroke-linejoin="round" stroke-width="0.3992"/><path d="M382.29,200.3425l-31.8181-36.4462-7.929,36.68a487.4633,487.4633,0,0,1-21.125,71.0517h0a25.7267,25.7267,0,0,1-20.1739,16.25l-6.5254.9894a302.4474,302.4474,0,0,1-32.3089,3.1371l-12.5075.5394a68.4859,68.4859,0,0,1-27.7354-4.5786h0a3.755,3.755,0,0,1-1.6874-5.696l5.2721-7.3155a211.6411,211.6411,0,0,0,25.5663-55.0417l1.9206-6.4135a17.8108,17.8108,0,0,0,.7485-5.1093v-1.503a17.81,17.81,0,0,0-12.9092-17.1225l-39.2345-11.23q-27.4279-7.85-55.3446-13.8064c-.7589.0016-1.5185-.018-2.2781-.0652h0a375.9659,375.9659,0,0,1-49.2933-6.3551L67.05,152.82a119.6089,119.6089,0,0,1-32.3371-11.3771l-1.7942-.3734,12.0542,8.4715a1.4964,1.4964,0,0,1-.7467,2.7164l-13.8856,1.0579,76.8063,14.5167a92.9208,92.9208,0,0,1,75.4947,85.6991l1.1884,19.6632.0033.0058a23.035,23.035,0,1,0,29.4448,34.3851h75.1284a185.43,185.43,0,0,0,25.3318-1.7384h0a46.5629,46.5629,0,0,0,37.062-29.3169l24.3249-62.8362a13.8456,13.8456,0,0,1,3.9333-5.5413l2.8323-2.4126A3.8039,3.8039,0,0,0,382.29,200.3425Z" fill="#ff1d23" stroke="#1c1c1c" stroke-linecap="round" stroke-linejoin="round" stroke-width="3.9924"/><circle cx="195.3245" cy="293.1632" r="15.8587" fill="#1c1c1c" stroke="#1c1c1c" stroke-linecap="round" stroke-linejoin="round" stroke-width="3.9924"/><circle cx="195.3245" cy="293.1632" r="6.9105" fill="#f2f2f2" stroke="#f2f2f2" stroke-linecap="round" stroke-linejoin="round" stroke-width="0.3992"/><path d="M188.7233,191.0392h0a147.9616,147.9616,0,0,1,13.5117,61.7728v6.2234a2.3585,2.3585,0,0,0,4.36,1.248L212.59,250.67a181.178,181.178,0,0,0,19.7-43.474l.2653-.8784a5.8178,5.8178,0,0,0-3.774-7.2164L192.129,187.21A2.7978,2.7978,0,0,0,188.7233,191.0392Z" fill="#323232" stroke="#1c1c1c" stroke-linecap="round" stroke-linejoin="round" stroke-width="3.9924"/><circle cx="358.3564" cy="221.7914" r="6.1378" fill="#ffd460" stroke="#1c1c1c" stroke-linecap="round" stroke-linejoin="round" stroke-width="3.9924"/><path d="M192.0374,249.4749a92.9323,92.9323,0,0,0-46.4159-74.9483L153.79,176.4a143.3286,143.3286,0,0,1,17.5468,5.2249" fill="none" stroke="#1c1c1c" stroke-linecap="round" stroke-linejoin="round" stroke-width="3.9924"/><line x1="232.844" y1="300.8721" x2="267.1628" y2="300.8721" fill="none" stroke="#1c1c1c" stroke-linecap="round" stroke-linejoin="round" stroke-width="3.9924"/><path d="M217.7664,269.7642a211.6331,211.6331,0,0,0,25.5663-55.0417" fill="#ff1d23" stroke="#1c1c1c" stroke-linecap="round" stroke-linejoin="round" stroke-width="3.9924"/><path d="M37.5243,120.8148h5.9509a75.77,75.77,0,0,0,21.2414-3.0384l9.0914-2.6551a75.7679,75.7679,0,0,1,31.124-2.3911l41.5549,5.4666" fill="none" stroke="#1c1c1c" stroke-linecap="round" stroke-linejoin="round" stroke-width="3.9924"/><path d="M35.7941,125.5421h0a108.7437,108.7437,0,0,0,33.3164,11.3794l66.859,11.2393a36.7524,36.7524,0,0,1,13.1608,4.938h0" fill="none" stroke="#1c1c1c" stroke-linecap="round" stroke-linejoin="round" stroke-width="3.9924"/><line x1="336.0448" y1="347.5954" x2="470.5624" y2="347.5954" fill="none" stroke="#1c1c1c" stroke-linecap="round" stroke-linejoin="round" stroke-width="3.9924"/><line x1="316.3322" y1="347.5954" x2="326.6522" y2="347.5954" fill="none" stroke="#1c1c1c" stroke-linecap="round" stroke-linejoin="round" stroke-width="3.9924"/><line x1="51.0279" y1="347.5954" x2="156.8308" y2="347.5954" fill="none" stroke="#1c1c1c" stroke-linecap="round" stroke-linejoin="round" stroke-width="3.9924"/><line x1="176.7804" y1="347.5954" x2="218.6883" y2="347.5954" fill="none" stroke="#1c1c1c" stroke-linecap="round" stroke-linejoin="round" stroke-width="3.9924"/></svg>