<?xml version="1.0" encoding="utf-8"?>
<!-- Generator: Adobe Illustrator 20.0.0, SVG Export Plug-In . SVG Version: 6.00 Build 0)  -->
<svg version="1.1" id="Layer_1" xmlns="http://www.w3.org/2000/svg" xmlns:xlink="http://www.w3.org/1999/xlink" x="0px" y="0px"
	 viewBox="0 0 227 59.8" style="enable-background:new 0 0 227 59.8;" xml:space="preserve">
<style type="text/css">
	.st0{fill:#FFFFFF;}
</style>
<g>
	<path class="st0" d="M25.3,27.6c0-2.8,3.6-2.9,6.2-2.9c3.8,0,7.2,0.6,10.3,1.7c3,1.1,5.2-1.5,5.2-4.2c0-1.7-0.8-3.3-2.8-4.1
		c-3.3-1.3-7.6-2.1-12.7-2.1c-5.9,0-16.8,1-16.8,11.8c0,14,23,8.1,23,14.4c0,2.9-3.2,3.9-7.6,3.9c-4,0-7.9-0.9-11.2-1.9
		c-3.3-1.2-5.3,1.5-5.3,4.2c0,1.6,0.7,3.3,2.6,4.1c3.5,1.2,7.7,2.1,13.9,2.1c7,0,18.4-1.7,18.4-12.1C48.3,27.6,25.3,33,25.3,27.6z"
		/>
	<path class="st0" d="M83.5,44.2c-2.8,2-5.1,2.5-8.6,2.5c-5.9,0-10.8-3.8-10.8-11.1C64.2,28.2,69.1,24,75,24c4.5,0,6.6,1.2,8.6,2.5
		c3.4,1.7,6.2-0.7,6.2-3.5c0-1.1-0.4-2.2-1.4-3.2c-3.1-2.6-9.4-4.1-14.2-4.1C61.9,15.7,54,24.1,54,35.6C54,47,61.9,55,74.3,55
		c4,0,10.2-0.5,14.2-4.1c1.1-1,1.5-2,1.5-3.1C90,45,86.9,42.5,83.5,44.2z"/>
	<path class="st0" d="M116.3,15.7c-12.8,0-21.1,8.1-21.1,19.6s8.3,19.6,21.2,19.6c12.7,0,21.1-8,21.1-19.6
		C137.5,23.8,129.1,15.7,116.3,15.7z M116.3,46.7c-6.5,0-11-4.6-11-11.4c0-6.7,4.5-11.4,11-11.4c6.6,0,11.1,4.7,11.1,11.4
		C127.3,42.1,122.9,46.7,116.3,46.7z"/>
	<path class="st0" d="M164.5,15.7c-12.8,0-21.1,8.1-21.1,19.6s8.3,19.6,21.2,19.6c12.7,0,21.1-8,21.1-19.6
		C185.7,23.8,177.3,15.7,164.5,15.7z M164.5,46.7c-6.5,0-11-4.6-11-11.4c0-6.7,4.5-11.4,11-11.4c6.6,0,11.1,4.7,11.1,11.4
		C175.5,42.1,171.1,46.7,164.5,46.7z"/>
	<path class="st0" d="M209.3,44.9c-5.4,0-8-2.5-8-8.8V25.7h6.1c3.2,0,4.7-2.2,4.7-4.5c0-2.2-1.6-4.5-4.7-4.5h-6.1V9.2
		c0-2.9-2.3-4.4-4.6-4.4c-2.3,0-4.6,1.4-4.6,4.4v26.9c0,11.8,3.9,17.9,16.8,17.9c3.2,0,4.6-2.3,4.6-4.5
		C213.5,47.2,212.2,44.9,209.3,44.9z"/>
</g>
</svg>
