<svg id="Layer_1" data-name="Layer 1" xmlns="http://www.w3.org/2000/svg" xmlns:xlink="http://www.w3.org/1999/xlink" width="47.75" height="47.2802" viewBox="0 0 47.75 47.2802"><defs><radialGradient id="radial-gradient" cx="23.875" cy="23.6401" r="23" gradientUnits="userSpaceOnUse"><stop offset="0.3334"/><stop offset="0.9484" stop-opacity="0"/></radialGradient></defs><title>street-puck</title><circle cx="23.875" cy="23.6401" r="23" fill="url(#radial-gradient)"/><circle cx="23.875" cy="22.4526" r="18.9167" fill="#fff"/><circle cx="23.875" cy="22.4526" r="16.3968"/><path d="M30.6918,18.3728a3.8542,3.8542,0,0,1-3.8082,3.1643c-.2029,0-1.0308-.0322-2.081-.0183-2.2072.027-5.3994.2505-5.8133,1.3725l-.0053-.0226a2.9715,2.9715,0,1,1-.63-3.1877c.5745.5427,1.77.4131,1.8215-1.1316.0521-1.4386-5.8415-1.8239-6.1954-1.9762-.6346-.2739-1.8586-1.2577.2833-1.1089,1.473.1061,8.167.5984,8.7645.6819,1.0264.1391,1.1156.71.9276,1.169a14.9445,14.9445,0,0,0-.9982,2.4684c-.0935.7.909.8576,1.841.8576a13.39,13.39,0,0,0,1.46-.0965c1.7934-.1766,1.8587-2.1206,1.751-4.0089a9.0766,9.0766,0,0,0-1.6574-4.3793,4.5059,4.5059,0,0,0-.97-.2183c-.7476-.1627.9928-1.0437,1.54-1.2012a1.4475,1.4475,0,0,1,.9134,0,.8067.8067,0,0,1,.211,1.2386c-.1307.0835-.5455-.0183-.6487.2409C27.3593,12.3653,30.6918,15.8305,30.6918,18.3728Zm1.1953-.2594a3.3011,3.3011,0,1,1,0,6.6016,3.3655,3.3655,0,0,1-3.276-2.7972c1.2718-.5019,2.8568-1.9953,2.7862-3.7349A2.3509,2.3509,0,0,1,31.8871,18.1134Z" fill="#fff" fill-rule="evenodd"/><circle cx="17.6577" cy="29.2214" r="1.5904" fill="#fff"/><polyline points="21.385 29.221 32.22 29.221 30.308 27.31" fill="none" stroke="#fff" stroke-linecap="round" stroke-linejoin="round" fill-rule="evenodd"/><polyline points="21.385 29.221 32.212 29.221 30.3 31.133" fill="none" stroke="#fff" stroke-linecap="round" stroke-linejoin="round" fill-rule="evenodd"/></svg>